<svg width="528mm" height="351mm" viewBox="0 0 528 351" xmlns="http://www.w3.org/2000/svg" version="1.1" preserveAspectRatio="xMidYMid meet"><g id="svgGroup" stroke-linecap="round" fill-rule="evenodd" font-size="9pt" stroke="#000" stroke-width="0.25mm" fill="none" style="stroke:#000;stroke-width:0.25mm;fill:none"><path d="M 0 307 L 0 319.25 L 2 319.25 L 2 338.75 L 0 338.75 L 0 351 L 18.75 351 L 18.75 349 L 38.25 349 L 38.25 351 L 57.75 351 L 57.75 349 L 77.25 349 L 77.25 351 L 96.75 351 L 96.75 349 L 116.25 349 L 116.25 351 L 135.75 351 L 135.75 349 L 155.25 349 L 155.25 351 L 174 351 L 174 338.75 L 172 338.75 L 172 319.25 L 174 319.25 L 174 307 L 155.25 307 L 155.25 309 L 135.75 309 L 135.75 307 L 116.25 307 L 116.25 309 L 96.75 309 L 96.75 307 L 77.25 307 L 77.25 309 L 57.75 309 L 57.75 307 L 38.25 307 L 38.25 309 L 18.75 309 L 18.75 307 L 0 307 Z" id="front_outsideCutPath" stroke="#FF0000" stroke-width="0.1" style="stroke:#FF0000;stroke-width:0.1" vector-effect="non-scaling-stroke"/><path d="M 93.413 332.324 L 92.7 332.324 L 92.7 329.277 A 2.016 2.016 0 0 0 92.677 328.961 Q 92.622 328.617 92.438 328.418 A 0.804 0.804 0 0 0 92.108 328.207 Q 91.978 328.162 91.819 328.144 A 1.891 1.891 0 0 0 91.617 328.134 A 2.159 2.159 0 0 0 91.213 328.169 Q 90.776 328.253 90.534 328.534 A 1.166 1.166 0 0 0 90.332 328.888 Q 90.19 329.264 90.19 329.853 L 90.19 332.324 L 89.477 332.324 L 89.477 327.614 L 90.057 327.614 L 90.173 328.259 L 90.208 328.259 A 1.444 1.444 0 0 1 90.773 327.744 A 1.737 1.737 0 0 1 90.822 327.719 A 1.931 1.931 0 0 1 91.509 327.536 A 2.336 2.336 0 0 1 91.703 327.528 A 2.816 2.816 0 0 1 92.182 327.566 Q 92.685 327.653 92.983 327.939 A 1.236 1.236 0 0 1 93.285 328.411 Q 93.357 328.606 93.388 328.848 A 3.113 3.113 0 0 1 93.413 329.251 L 93.413 332.324 Z M 79.71 327.614 L 79.71 328.168 L 78.512 328.168 L 78.512 332.324 L 77.798 332.324 L 77.798 328.168 L 76.956 328.168 L 76.956 327.846 L 77.798 327.588 L 77.798 327.326 Q 77.798 325.828 78.929 325.623 A 2.168 2.168 0 0 1 79.315 325.59 A 2.297 2.297 0 0 1 79.64 325.615 Q 79.798 325.638 79.974 325.681 A 4.617 4.617 0 0 1 80.192 325.741 L 80.007 326.312 Q 79.714 326.218 79.482 326.19 A 1.534 1.534 0 0 0 79.302 326.179 A 0.962 0.962 0 0 0 79.07 326.205 A 0.618 0.618 0 0 0 78.705 326.448 Q 78.512 326.716 78.512 327.309 L 78.512 327.614 L 79.71 327.614 Z M 97.044 331.735 L 97.044 332.281 A 0.702 0.702 0 0 1 96.961 332.314 Q 96.872 332.343 96.745 332.366 A 2.667 2.667 0 0 1 96.702 332.373 A 3.092 3.092 0 0 1 96.501 332.399 Q 96.392 332.409 96.296 332.409 Q 94.93 332.409 94.93 330.97 L 94.93 328.168 L 94.255 328.168 L 94.255 327.825 L 94.93 327.528 L 95.231 326.523 L 95.643 326.523 L 95.643 327.614 L 97.01 327.614 L 97.01 328.168 L 95.643 328.168 L 95.643 330.94 A 1.436 1.436 0 0 0 95.664 331.192 Q 95.708 331.438 95.845 331.593 A 0.663 0.663 0 0 0 96.252 331.81 A 0.953 0.953 0 0 0 96.399 331.821 A 2.343 2.343 0 0 0 96.743 331.796 A 2.157 2.157 0 0 0 96.765 331.793 Q 96.933 331.766 97.034 331.738 A 1.074 1.074 0 0 0 97.044 331.735 Z M 83.281 327.58 L 83.182 328.242 A 3.144 3.144 0 0 0 82.956 328.2 Q 82.799 328.177 82.667 328.177 A 1.236 1.236 0 0 0 81.754 328.571 A 1.691 1.691 0 0 0 81.689 328.641 A 1.629 1.629 0 0 0 81.296 329.556 A 2.165 2.165 0 0 0 81.283 329.797 L 81.283 332.324 L 80.57 332.324 L 80.57 327.614 L 81.158 327.614 L 81.24 328.486 L 81.274 328.486 A 2.409 2.409 0 0 1 81.544 328.102 A 1.84 1.84 0 0 1 81.906 327.777 A 1.422 1.422 0 0 1 82.718 327.528 A 3.275 3.275 0 0 1 83.011 327.541 A 2.39 2.39 0 0 1 83.281 327.58 Z M 88.161 330.681 A 3.684 3.684 0 0 0 88.227 329.965 A 4.186 4.186 0 0 0 88.225 329.851 Q 88.215 329.459 88.13 329.126 A 2.221 2.221 0 0 0 87.645 328.186 Q 87.062 327.528 86.074 327.528 A 2.77 2.77 0 0 0 85.576 327.571 A 1.887 1.887 0 0 0 84.476 328.171 A 1.971 1.971 0 0 0 84.234 328.506 Q 83.9 329.088 83.9 329.965 Q 83.9 330.708 84.166 331.262 A 2.345 2.345 0 0 0 84.218 331.364 A 1.931 1.931 0 0 0 84.922 332.113 A 1.986 1.986 0 0 0 85.378 332.316 A 2.291 2.291 0 0 0 86.044 332.409 A 2.77 2.77 0 0 0 86.528 332.369 A 1.902 1.902 0 0 0 87.647 331.763 Q 88.032 331.333 88.161 330.681 Z M 84.639 329.965 A 3.612 3.612 0 0 0 84.673 330.481 Q 84.711 330.742 84.791 330.955 A 1.496 1.496 0 0 0 85 331.34 A 1.169 1.169 0 0 0 85.761 331.788 A 1.772 1.772 0 0 0 86.061 331.812 A 1.657 1.657 0 0 0 86.498 331.758 A 1.153 1.153 0 0 0 87.125 331.342 A 1.531 1.531 0 0 0 87.363 330.877 Q 87.433 330.663 87.464 330.401 A 3.757 3.757 0 0 0 87.488 329.965 A 3.559 3.559 0 0 0 87.454 329.457 Q 87.417 329.199 87.338 328.99 A 1.469 1.469 0 0 0 87.125 328.6 A 1.173 1.173 0 0 0 86.395 328.165 A 1.799 1.799 0 0 0 86.053 328.134 A 1.698 1.698 0 0 0 85.63 328.184 A 1.136 1.136 0 0 0 84.996 328.594 A 1.475 1.475 0 0 0 84.766 329.037 Q 84.699 329.24 84.667 329.49 A 3.769 3.769 0 0 0 84.639 329.965 Z" id="front_labelLayer" stroke="#777777" fill="#777777" style="stroke:#777777;fill:#777777" vector-effect="non-scaling-stroke"/><path d="M 179 307 L 179 319.25 L 177 319.25 L 177 338.75 L 179 338.75 L 179 351 L 195.75 351 L 195.75 349 L 215.25 349 L 215.25 351 L 234.75 351 L 234.75 349 L 254.25 349 L 254.25 351 L 273.75 351 L 273.75 349 L 293.25 349 L 293.25 351 L 312.75 351 L 312.75 349 L 332.25 349 L 332.25 351 L 349 351 L 349 338.75 L 351 338.75 L 351 319.25 L 349 319.25 L 349 307 L 332.25 307 L 332.25 309 L 312.75 309 L 312.75 307 L 293.25 307 L 293.25 309 L 273.75 309 L 273.75 307 L 254.25 307 L 254.25 309 L 234.75 309 L 234.75 307 L 215.25 307 L 215.25 309 L 195.75 309 L 195.75 307 L 179 307 Z" id="left_outsideCutPath" stroke="#FF0000" stroke-width="0.1" style="stroke:#FF0000;stroke-width:0.1" vector-effect="non-scaling-stroke"/><path d="M 267.13 327.614 L 267.13 328.168 L 265.931 328.168 L 265.931 332.324 L 265.218 332.324 L 265.218 328.168 L 264.376 328.168 L 264.376 327.846 L 265.218 327.588 L 265.218 327.326 Q 265.218 325.828 266.349 325.623 A 2.168 2.168 0 0 1 266.735 325.59 A 2.297 2.297 0 0 1 267.06 325.615 Q 267.218 325.638 267.394 325.681 A 4.617 4.617 0 0 1 267.612 325.741 L 267.427 326.312 Q 267.134 326.218 266.901 326.19 A 1.534 1.534 0 0 0 266.722 326.179 A 0.962 0.962 0 0 0 266.49 326.205 A 0.618 0.618 0 0 0 266.125 326.448 Q 265.931 326.716 265.931 327.309 L 265.931 327.614 L 267.13 327.614 Z M 263.792 329.647 L 263.792 330.098 L 260.547 330.098 Q 260.562 330.664 260.752 331.044 A 1.339 1.339 0 0 0 260.966 331.357 A 1.296 1.296 0 0 0 261.647 331.74 A 1.964 1.964 0 0 0 262.086 331.786 A 3.767 3.767 0 0 0 263.497 331.507 A 4.316 4.316 0 0 0 263.59 331.468 L 263.59 332.104 A 4.282 4.282 0 0 1 263.199 332.252 A 3.275 3.275 0 0 1 262.874 332.339 A 2.994 2.994 0 0 1 262.577 332.384 Q 262.431 332.4 262.265 332.406 A 5.811 5.811 0 0 1 262.06 332.409 A 2.772 2.772 0 0 1 261.366 332.327 A 1.963 1.963 0 0 1 260.412 331.774 A 2.099 2.099 0 0 1 259.91 330.851 Q 259.823 330.525 259.81 330.136 A 4.074 4.074 0 0 1 259.808 330.008 Q 259.808 329.079 260.181 328.462 A 2.112 2.112 0 0 1 260.369 328.199 A 1.828 1.828 0 0 1 261.701 327.534 A 2.521 2.521 0 0 1 261.875 327.528 A 2.173 2.173 0 0 1 262.487 327.61 A 1.654 1.654 0 0 1 263.276 328.11 A 1.994 1.994 0 0 1 263.728 329.022 A 2.903 2.903 0 0 1 263.792 329.647 Z M 270.155 331.735 L 270.155 332.281 A 0.702 0.702 0 0 1 270.072 332.314 Q 269.983 332.343 269.856 332.366 A 2.667 2.667 0 0 1 269.814 332.373 A 3.092 3.092 0 0 1 269.612 332.399 Q 269.503 332.409 269.408 332.409 Q 268.041 332.409 268.041 330.97 L 268.041 328.168 L 267.367 328.168 L 267.367 327.825 L 268.041 327.528 L 268.342 326.523 L 268.754 326.523 L 268.754 327.614 L 270.121 327.614 L 270.121 328.168 L 268.754 328.168 L 268.754 330.94 A 1.436 1.436 0 0 0 268.775 331.192 Q 268.819 331.438 268.956 331.593 A 0.663 0.663 0 0 0 269.364 331.81 A 0.953 0.953 0 0 0 269.511 331.821 A 2.343 2.343 0 0 0 269.854 331.796 A 2.157 2.157 0 0 0 269.876 331.793 Q 270.044 331.766 270.146 331.738 A 1.074 1.074 0 0 0 270.155 331.735 Z M 258.558 325.638 L 258.558 332.324 L 257.845 332.324 L 257.845 325.638 L 258.558 325.638 Z M 260.565 329.518 L 263.027 329.518 A 2.431 2.431 0 0 0 262.997 329.127 Q 262.933 328.731 262.726 328.484 A 0.977 0.977 0 0 0 262.137 328.149 A 1.466 1.466 0 0 0 261.867 328.125 A 1.406 1.406 0 0 0 261.46 328.181 A 1.086 1.086 0 0 0 260.962 328.495 Q 260.657 328.829 260.579 329.396 A 2.695 2.695 0 0 0 260.565 329.518 Z" id="left_labelLayer" stroke="#777777" fill="#777777" style="stroke:#777777;fill:#777777" vector-effect="non-scaling-stroke"/><path d="M 356 179 L 356 195.75 L 354 195.75 L 354 215.25 L 356 215.25 L 356 234.75 L 354 234.75 L 354 254.25 L 356 254.25 L 356 273.75 L 354 273.75 L 354 293.25 L 356 293.25 L 356 312.75 L 354 312.75 L 354 332.25 L 356 332.25 L 356 349 L 372.75 349 L 372.75 351 L 392.25 351 L 392.25 349 L 411.75 349 L 411.75 351 L 431.25 351 L 431.25 349 L 450.75 349 L 450.75 351 L 470.25 351 L 470.25 349 L 489.75 349 L 489.75 351 L 509.25 351 L 509.25 349 L 526 349 L 526 332.25 L 528 332.25 L 528 312.75 L 526 312.75 L 526 293.25 L 528 293.25 L 528 273.75 L 526 273.75 L 526 254.25 L 528 254.25 L 528 234.75 L 526 234.75 L 526 215.25 L 528 215.25 L 528 195.75 L 526 195.75 L 526 179 L 509.25 179 L 509.25 177 L 489.75 177 L 489.75 179 L 470.25 179 L 470.25 177 L 450.75 177 L 450.75 179 L 431.25 179 L 431.25 177 L 411.75 177 L 411.75 179 L 392.25 179 L 392.25 177 L 372.75 177 L 372.75 179 L 356 179 Z" id="top_outsideCutPath" stroke="#FF0000" stroke-width="0.1" style="stroke:#FF0000;stroke-width:0.1" vector-effect="non-scaling-stroke"/><path d="M 453.506 268.894 L 453.302 268.894 A 26.694 26.694 0 0 1 453.477 270.866 A 22.368 22.368 0 0 1 453.506 271.986 L 453.506 279.65 L 450.685 279.65 L 450.685 252.666 L 452.979 252.666 L 453.37 255.215 L 453.506 255.215 A 7.593 7.593 0 0 1 454.604 253.968 A 5.871 5.871 0 0 1 456.038 253.006 A 7.064 7.064 0 0 1 458.063 252.414 A 9.143 9.143 0 0 1 459.351 252.326 Q 463.056 252.326 465.069 254.858 A 8.47 8.47 0 0 1 466.515 257.68 Q 466.888 258.896 467.016 260.359 A 18.368 18.368 0 0 1 467.083 261.961 Q 467.083 266.549 465.035 269.089 Q 462.988 271.629 459.351 271.629 A 8.556 8.556 0 0 1 457.202 271.367 A 7.444 7.444 0 0 1 456.029 270.958 A 6.247 6.247 0 0 1 453.506 268.894 Z M 425.945 268.962 L 425.945 271.12 A 2.774 2.774 0 0 1 425.616 271.25 Q 425.265 271.367 424.762 271.456 A 10.549 10.549 0 0 1 424.594 271.485 Q 423.761 271.62 423.084 271.629 A 7.232 7.232 0 0 1 422.988 271.629 A 7.367 7.367 0 0 1 420.817 271.337 Q 418.431 270.601 417.806 268.008 A 8.866 8.866 0 0 1 417.585 265.937 L 417.585 254.858 L 414.917 254.858 L 414.917 253.499 L 417.585 252.326 L 418.774 248.35 L 420.405 248.35 L 420.405 252.666 L 425.809 252.666 L 425.809 254.858 L 420.405 254.858 L 420.405 265.818 Q 420.405 267.5 421.204 268.401 A 2.62 2.62 0 0 0 422.815 269.258 A 3.77 3.77 0 0 0 423.396 269.302 A 9.264 9.264 0 0 0 424.753 269.204 A 8.535 8.535 0 0 0 424.84 269.191 A 15.259 15.259 0 0 0 425.248 269.121 Q 425.664 269.043 425.945 268.962 Z M 445.482 264.795 A 14.57 14.57 0 0 0 445.741 261.961 Q 445.741 260.151 445.357 258.646 A 8.783 8.783 0 0 0 443.438 254.926 A 7.384 7.384 0 0 0 440.01 252.715 A 9.478 9.478 0 0 0 437.228 252.326 A 10.955 10.955 0 0 0 435.26 252.495 A 7.461 7.461 0 0 0 430.906 254.867 A 7.793 7.793 0 0 0 429.949 256.194 Q 429.212 257.479 428.887 259.129 A 14.646 14.646 0 0 0 428.63 261.961 A 14.111 14.111 0 0 0 428.807 264.247 A 10.435 10.435 0 0 0 429.683 267.093 A 9.271 9.271 0 0 0 429.888 267.495 A 7.636 7.636 0 0 0 432.674 270.457 A 7.854 7.854 0 0 0 434.477 271.259 A 9.058 9.058 0 0 0 437.109 271.629 Q 441.153 271.629 443.447 269.072 A 7.869 7.869 0 0 0 444.384 267.785 Q 445.148 266.477 445.482 264.795 Z M 431.552 261.961 A 14.284 14.284 0 0 0 431.688 264.001 Q 431.838 265.037 432.153 265.876 A 5.918 5.918 0 0 0 432.98 267.398 Q 434.407 269.268 437.177 269.268 A 6.552 6.552 0 0 0 438.905 269.053 A 4.56 4.56 0 0 0 441.382 267.407 A 6.055 6.055 0 0 0 442.325 265.57 Q 442.602 264.722 442.724 263.686 A 14.858 14.858 0 0 0 442.818 261.961 Q 442.818 258.41 441.382 256.566 Q 439.946 254.722 437.143 254.722 A 6.713 6.713 0 0 0 435.471 254.918 A 4.493 4.493 0 0 0 432.963 256.54 A 5.832 5.832 0 0 0 432.056 258.292 Q 431.552 259.808 431.552 261.961 Z M 453.506 261.332 L 453.506 261.961 Q 453.506 265.295 454.45 267.017 A 4.254 4.254 0 0 0 454.815 267.577 A 4.092 4.092 0 0 0 456.89 268.978 Q 457.584 269.195 458.43 269.249 A 9.07 9.07 0 0 0 459.012 269.268 A 4.753 4.753 0 0 0 460.86 268.921 Q 461.925 268.476 462.686 267.461 A 5.621 5.621 0 0 0 462.792 267.313 A 6.82 6.82 0 0 0 463.727 265.321 Q 464.16 263.858 464.16 261.927 A 14.234 14.234 0 0 0 464.027 259.908 Q 463.733 257.862 462.792 256.583 Q 461.424 254.722 458.944 254.722 A 8.128 8.128 0 0 0 457.425 254.854 Q 455.721 255.179 454.815 256.303 A 4.833 4.833 0 0 0 454.059 257.68 Q 453.528 259.122 453.506 261.332 Z" id="top_labelLayer" stroke="#777777" fill="#777777" style="stroke:#777777;fill:#777777" vector-effect="non-scaling-stroke"/><path d="M 0 260 L 0 272.25 L 2 272.25 L 2 291.75 L 0 291.75 L 0 304 L 18.75 304 L 18.75 302 L 38.25 302 L 38.25 304 L 57.75 304 L 57.75 302 L 77.25 302 L 77.25 304 L 96.75 304 L 96.75 302 L 116.25 302 L 116.25 304 L 135.75 304 L 135.75 302 L 155.25 302 L 155.25 304 L 174 304 L 174 291.75 L 172 291.75 L 172 272.25 L 174 272.25 L 174 260 L 155.25 260 L 155.25 262 L 135.75 262 L 135.75 260 L 116.25 260 L 116.25 262 L 96.75 262 L 96.75 260 L 77.25 260 L 77.25 262 L 57.75 262 L 57.75 260 L 38.25 260 L 38.25 262 L 18.75 262 L 18.75 260 L 0 260 Z" id="back_outsideCutPath" stroke="#FF0000" stroke-width="0.1" style="stroke:#FF0000;stroke-width:0.1" vector-effect="non-scaling-stroke"/><path d="M 93.024 282.889 L 93.059 282.889 Q 93.2 282.689 93.455 282.392 A 15.325 15.325 0 0 1 93.621 282.202 L 95.143 280.591 L 95.989 280.591 L 94.081 282.597 L 96.122 285.3 L 95.259 285.3 L 93.596 283.074 L 93.059 283.538 L 93.059 285.3 L 92.354 285.3 L 92.354 278.614 L 93.059 278.614 L 93.059 282.159 A 4.753 4.753 0 0 1 93.056 282.293 Q 93.05 282.519 93.024 282.889 Z M 78.591 284.694 L 78.539 284.694 L 78.389 285.3 L 77.878 285.3 L 77.878 278.614 L 78.591 278.614 L 78.591 280.238 Q 78.591 280.784 78.557 281.218 L 78.591 281.218 A 1.622 1.622 0 0 1 79.775 280.53 A 2.436 2.436 0 0 1 80.069 280.513 Q 80.997 280.513 81.511 281.147 Q 81.922 281.655 82.004 282.5 A 4.578 4.578 0 0 1 82.024 282.941 A 4.182 4.182 0 0 1 81.969 283.645 Q 81.855 284.311 81.506 284.744 A 1.689 1.689 0 0 1 80.306 285.375 A 2.419 2.419 0 0 1 80.069 285.386 A 2.164 2.164 0 0 1 79.525 285.32 A 1.882 1.882 0 0 1 79.229 285.216 A 1.58 1.58 0 0 1 78.591 284.694 Z M 86.695 285.3 L 86.166 285.3 L 86.025 284.63 L 85.99 284.63 Q 85.741 284.942 85.494 285.112 A 1.314 1.314 0 0 1 85.288 285.229 A 1.645 1.645 0 0 1 84.948 285.336 Q 84.783 285.37 84.592 285.381 A 3.21 3.21 0 0 1 84.413 285.386 A 2.189 2.189 0 0 1 83.968 285.343 Q 83.576 285.262 83.315 285.025 A 1.172 1.172 0 0 1 82.962 284.407 A 1.795 1.795 0 0 1 82.918 283.998 A 1.234 1.234 0 0 1 83.62 282.833 Q 84.143 282.555 85.055 282.509 A 6.968 6.968 0 0 1 85.2 282.503 L 85.999 282.477 L 85.999 282.185 Q 85.999 281.63 85.76 281.366 Q 85.57 281.155 85.198 281.113 A 1.762 1.762 0 0 0 84.998 281.102 A 2.322 2.322 0 0 0 84.463 281.169 Q 84.218 281.227 83.951 281.335 A 4.777 4.777 0 0 0 83.666 281.463 L 83.446 280.917 Q 83.795 280.728 84.209 280.621 A 3.303 3.303 0 0 1 85.041 280.513 Q 85.567 280.513 85.923 280.659 A 1.214 1.214 0 0 1 86.289 280.887 A 1.13 1.13 0 0 1 86.58 281.337 Q 86.695 281.648 86.695 282.086 L 86.695 285.3 Z M 91.305 280.75 L 91.086 281.355 A 3.173 3.173 0 0 0 90.742 281.241 A 3.79 3.79 0 0 0 90.571 281.199 A 2.946 2.946 0 0 0 90.347 281.157 Q 90.237 281.141 90.14 281.138 A 1.581 1.581 0 0 0 90.077 281.136 A 1.582 1.582 0 0 0 89.434 281.257 Q 88.761 281.554 88.659 282.58 A 3.941 3.941 0 0 0 88.641 282.967 A 3.454 3.454 0 0 0 88.676 283.47 Q 88.713 283.725 88.792 283.932 A 1.479 1.479 0 0 0 88.992 284.299 A 1.133 1.133 0 0 0 89.726 284.737 A 1.726 1.726 0 0 0 90.029 284.763 A 2.986 2.986 0 0 0 90.853 284.643 A 3.687 3.687 0 0 0 91.237 284.509 L 91.237 285.141 A 2.029 2.029 0 0 1 90.74 285.317 Q 90.511 285.367 90.244 285.381 A 3.912 3.912 0 0 1 90.046 285.386 A 2.666 2.666 0 0 1 89.398 285.312 A 1.808 1.808 0 0 1 88.463 284.756 A 2.063 2.063 0 0 1 88.034 283.968 Q 87.939 283.656 87.913 283.279 A 4.313 4.313 0 0 1 87.902 282.975 Q 87.902 281.794 88.472 281.149 A 1.847 1.847 0 0 1 89.483 280.568 A 2.8 2.8 0 0 1 90.094 280.505 A 3.219 3.219 0 0 1 90.773 280.578 Q 91.108 280.65 91.301 280.747 A 1.058 1.058 0 0 1 91.305 280.75 Z M 79.966 281.11 A 2.004 2.004 0 0 0 79.578 281.146 Q 79.142 281.232 78.913 281.529 A 1.221 1.221 0 0 0 78.736 281.866 Q 78.617 282.2 78.596 282.708 A 5.495 5.495 0 0 0 78.591 282.941 A 4.716 4.716 0 0 0 78.614 283.428 Q 78.666 283.92 78.83 284.219 A 1.076 1.076 0 0 0 78.922 284.361 Q 79.218 284.744 79.836 284.784 A 2.294 2.294 0 0 0 79.983 284.789 A 1.422 1.422 0 0 0 80.387 284.735 A 1.026 1.026 0 0 0 80.963 284.31 A 1.637 1.637 0 0 0 81.165 283.871 Q 81.229 283.663 81.259 283.411 A 4.087 4.087 0 0 0 81.285 282.932 A 4.214 4.214 0 0 0 81.26 282.452 Q 81.199 281.927 80.996 281.61 A 1.183 1.183 0 0 0 80.963 281.562 A 1.04 1.04 0 0 0 80.301 281.143 A 1.65 1.65 0 0 0 79.966 281.11 Z M 85.982 283.409 L 85.982 282.984 L 85.268 283.014 A 5.237 5.237 0 0 0 84.85 283.044 Q 84.318 283.106 84.042 283.278 A 0.761 0.761 0 0 0 83.679 283.83 A 1.127 1.127 0 0 0 83.666 284.007 A 1.019 1.019 0 0 0 83.691 284.24 Q 83.733 284.42 83.847 284.544 A 0.635 0.635 0 0 0 83.9 284.595 A 0.776 0.776 0 0 0 84.191 284.75 Q 84.306 284.784 84.444 284.793 A 1.604 1.604 0 0 0 84.555 284.797 Q 85.131 284.797 85.493 284.524 A 1.191 1.191 0 0 0 85.601 284.432 A 1.195 1.195 0 0 0 85.935 283.835 Q 85.981 283.643 85.982 283.417 A 2.24 2.24 0 0 0 85.982 283.409 Z" id="back_labelLayer" stroke="#777777" fill="#777777" style="stroke:#777777;fill:#777777" vector-effect="non-scaling-stroke"/><path d="M 179 260 L 179 272.25 L 177 272.25 L 177 291.75 L 179 291.75 L 179 304 L 195.75 304 L 195.75 302 L 215.25 302 L 215.25 304 L 234.75 304 L 234.75 302 L 254.25 302 L 254.25 304 L 273.75 304 L 273.75 302 L 293.25 302 L 293.25 304 L 312.75 304 L 312.75 302 L 332.25 302 L 332.25 304 L 349 304 L 349 291.75 L 351 291.75 L 351 272.25 L 349 272.25 L 349 260 L 332.25 260 L 332.25 262 L 312.75 262 L 312.75 260 L 293.25 260 L 293.25 262 L 273.75 262 L 273.75 260 L 254.25 260 L 254.25 262 L 234.75 262 L 234.75 260 L 215.25 260 L 215.25 262 L 195.75 262 L 195.75 260 L 179 260 Z" id="right_outsideCutPath" stroke="#FF0000" stroke-width="0.1" style="stroke:#FF0000;stroke-width:0.1" vector-effect="non-scaling-stroke"/><path d="M 269.472 284.286 L 268.759 284.286 L 268.759 281.239 A 2.016 2.016 0 0 0 268.736 280.923 Q 268.681 280.579 268.497 280.38 A 0.804 0.804 0 0 0 268.167 280.17 Q 268.037 280.124 267.878 280.107 A 1.891 1.891 0 0 0 267.676 280.096 A 2.159 2.159 0 0 0 267.272 280.132 Q 267.049 280.174 266.876 280.269 A 0.999 0.999 0 0 0 266.591 280.5 A 1.187 1.187 0 0 0 266.39 280.857 Q 266.268 281.184 266.252 281.67 A 4.604 4.604 0 0 0 266.249 281.824 L 266.249 284.286 L 265.536 284.286 L 265.536 277.6 L 266.249 277.6 L 266.249 279.624 A 6.416 6.416 0 0 1 266.245 279.87 Q 266.237 280.076 266.215 280.23 L 266.258 280.23 Q 266.469 279.89 266.857 279.695 Q 267.246 279.499 267.745 279.499 A 2.894 2.894 0 0 1 268.231 279.537 Q 268.74 279.624 269.04 279.91 A 1.242 1.242 0 0 1 269.347 280.391 Q 269.472 280.732 269.472 281.214 L 269.472 284.286 Z M 262.941 279.577 L 264.569 279.577 L 264.569 280.028 L 263.697 280.131 A 1.159 1.159 0 0 1 263.797 280.28 Q 263.841 280.357 263.881 280.449 A 2.199 2.199 0 0 1 263.912 280.524 A 1.372 1.372 0 0 1 263.993 280.852 A 1.762 1.762 0 0 1 264.006 281.072 A 1.635 1.635 0 0 1 263.931 281.579 A 1.323 1.323 0 0 1 263.534 282.176 Q 263.061 282.589 262.236 282.589 A 2.292 2.292 0 0 1 261.971 282.574 A 1.936 1.936 0 0 1 261.841 282.554 A 1.269 1.269 0 0 0 261.636 282.687 Q 261.53 282.772 261.469 282.87 A 0.537 0.537 0 0 0 261.385 283.16 Q 261.385 283.348 261.535 283.44 A 0.396 0.396 0 0 0 261.544 283.446 A 0.5 0.5 0 0 0 261.655 283.492 Q 261.771 283.525 261.948 283.535 A 2.713 2.713 0 0 0 262.09 283.538 L 262.924 283.538 Q 263.434 283.538 263.786 283.682 A 1.289 1.289 0 0 1 264.099 283.861 A 1.044 1.044 0 0 1 264.487 284.525 A 1.567 1.567 0 0 1 264.509 284.797 A 1.544 1.544 0 0 1 264.421 285.331 Q 264.274 285.733 263.882 285.99 Q 263.254 286.4 262.051 286.4 A 3.996 3.996 0 0 1 261.515 286.366 Q 260.971 286.293 260.627 286.056 Q 260.159 285.735 260.128 285.165 A 1.506 1.506 0 0 1 260.126 285.085 Q 260.126 284.655 260.401 284.342 A 1.245 1.245 0 0 1 260.829 284.03 A 1.765 1.765 0 0 1 261.175 283.916 A 0.74 0.74 0 0 1 260.887 283.684 A 0.879 0.879 0 0 1 260.872 283.663 A 0.661 0.661 0 0 1 260.75 283.305 A 0.819 0.819 0 0 1 260.749 283.263 Q 260.749 283.005 260.887 282.812 A 1.021 1.021 0 0 1 261.022 282.66 Q 261.143 282.547 261.321 282.438 A 1.25 1.25 0 0 1 260.778 282.003 A 1.55 1.55 0 0 1 260.726 281.927 A 1.475 1.475 0 0 1 260.499 281.216 A 1.8 1.8 0 0 1 260.496 281.102 A 2.061 2.061 0 0 1 260.55 280.615 A 1.356 1.356 0 0 1 260.96 279.91 A 1.515 1.515 0 0 1 261.541 279.589 Q 261.772 279.518 262.05 279.498 A 3.15 3.15 0 0 1 262.275 279.491 A 2.734 2.734 0 0 1 262.636 279.513 A 2.082 2.082 0 0 1 262.941 279.577 Z M 273.103 283.697 L 273.103 284.243 A 0.702 0.702 0 0 1 273.02 284.276 Q 272.931 284.305 272.804 284.328 A 2.667 2.667 0 0 1 272.761 284.335 A 3.092 3.092 0 0 1 272.56 284.362 Q 272.451 284.372 272.355 284.372 Q 270.989 284.372 270.989 282.932 L 270.989 280.131 L 270.314 280.131 L 270.314 279.787 L 270.989 279.491 L 271.29 278.485 L 271.702 278.485 L 271.702 279.577 L 273.069 279.577 L 273.069 280.131 L 271.702 280.131 L 271.702 282.902 A 1.436 1.436 0 0 0 271.723 283.155 Q 271.767 283.401 271.904 283.555 A 0.663 0.663 0 0 0 272.311 283.772 A 0.953 0.953 0 0 0 272.458 283.783 A 2.343 2.343 0 0 0 272.802 283.759 A 2.157 2.157 0 0 0 272.824 283.755 Q 272.992 283.729 273.093 283.7 A 1.074 1.074 0 0 0 273.103 283.697 Z M 257.608 279.542 L 257.51 280.204 A 3.144 3.144 0 0 0 257.284 280.162 Q 257.127 280.139 256.994 280.139 A 1.236 1.236 0 0 0 256.081 280.534 A 1.691 1.691 0 0 0 256.016 280.603 A 1.629 1.629 0 0 0 255.623 281.518 A 2.165 2.165 0 0 0 255.61 281.759 L 255.61 284.286 L 254.897 284.286 L 254.897 279.577 L 255.486 279.577 L 255.567 280.449 L 255.602 280.449 A 2.409 2.409 0 0 1 255.871 280.064 A 1.84 1.84 0 0 1 256.233 279.74 A 1.422 1.422 0 0 1 257.046 279.491 A 3.275 3.275 0 0 1 257.339 279.503 A 2.39 2.39 0 0 1 257.608 279.542 Z M 259.203 279.577 L 259.203 284.286 L 258.489 284.286 L 258.489 279.577 L 259.203 279.577 Z M 262.696 284.178 L 261.841 284.178 A 1.64 1.64 0 0 0 261.545 284.203 Q 261.378 284.234 261.245 284.303 A 0.835 0.835 0 0 0 261.085 284.411 Q 260.814 284.643 260.814 285.077 A 0.716 0.716 0 0 0 260.861 285.342 Q 260.929 285.514 261.094 285.629 A 0.837 0.837 0 0 0 261.136 285.657 Q 261.458 285.854 262.06 285.854 A 4.795 4.795 0 0 0 262.528 285.833 Q 262.998 285.787 263.292 285.64 A 1.185 1.185 0 0 0 263.39 285.586 A 1.04 1.04 0 0 0 263.631 285.384 A 0.78 0.78 0 0 0 263.822 284.857 Q 263.822 284.475 263.585 284.327 A 0.677 0.677 0 0 0 263.425 284.257 Q 263.254 284.204 262.984 284.187 A 4.539 4.539 0 0 0 262.696 284.178 Z M 261.201 281.085 A 1.392 1.392 0 0 0 261.229 281.377 Q 261.268 281.558 261.36 281.693 A 0.763 0.763 0 0 0 261.48 281.832 Q 261.731 282.061 262.161 282.083 A 1.837 1.837 0 0 0 262.258 282.086 A 1.554 1.554 0 0 0 262.664 282.037 Q 263.13 281.911 263.255 281.454 A 1.445 1.445 0 0 0 263.302 281.072 Q 263.302 280.23 262.636 280.056 A 1.551 1.551 0 0 0 262.245 280.011 Q 261.859 280.011 261.61 280.17 A 0.821 0.821 0 0 0 261.471 280.281 Q 261.242 280.511 261.207 280.929 A 1.876 1.876 0 0 0 261.201 281.085 Z M 258.549 277.942 A 0.334 0.334 0 0 0 258.476 278.046 Q 258.429 278.148 258.429 278.3 A 0.842 0.842 0 0 0 258.433 278.381 Q 258.45 278.562 258.549 278.659 A 0.4 0.4 0 0 0 258.694 278.751 A 0.453 0.453 0 0 0 258.85 278.777 A 0.416 0.416 0 0 0 259.147 278.659 Q 259.271 278.541 259.271 278.3 Q 259.271 278.06 259.147 277.944 A 0.42 0.42 0 0 0 258.85 277.828 A 0.544 0.544 0 0 0 258.814 277.829 A 0.412 0.412 0 0 0 258.549 277.942 Z" id="right_labelLayer" stroke="#777777" fill="#777777" style="stroke:#777777;fill:#777777" vector-effect="non-scaling-stroke"/><path d="M 356 2 L 356 18.75 L 354 18.75 L 354 38.25 L 356 38.25 L 356 57.75 L 354 57.75 L 354 77.25 L 356 77.25 L 356 96.75 L 354 96.75 L 354 116.25 L 356 116.25 L 356 135.75 L 354 135.75 L 354 155.25 L 356 155.25 L 356 172 L 372.75 172 L 372.75 174 L 392.25 174 L 392.25 172 L 411.75 172 L 411.75 174 L 431.25 174 L 431.25 172 L 450.75 172 L 450.75 174 L 470.25 174 L 470.25 172 L 489.75 172 L 489.75 174 L 509.25 174 L 509.25 172 L 526 172 L 526 155.25 L 528 155.25 L 528 135.75 L 526 135.75 L 526 116.25 L 528 116.25 L 528 96.75 L 526 96.75 L 526 77.25 L 528 77.25 L 528 57.75 L 526 57.75 L 526 38.25 L 528 38.25 L 528 18.75 L 526 18.75 L 526 2 L 509.25 2 L 509.25 0 L 489.75 0 L 489.75 2 L 470.25 2 L 470.25 0 L 450.75 0 L 450.75 2 L 431.25 2 L 431.25 0 L 411.75 0 L 411.75 2 L 392.25 2 L 392.25 0 L 372.75 0 L 372.75 2 L 356 2 Z" id="bottom_outsideCutPath" stroke="#FF0000" stroke-width="0.1" style="stroke:#FF0000;stroke-width:0.1" vector-effect="non-scaling-stroke"/><path d="M 498.247 100.05 L 495.426 100.05 L 495.426 87.934 A 8.321 8.321 0 0 0 495.342 86.711 Q 495.249 86.086 495.052 85.582 A 3.409 3.409 0 0 0 494.474 84.595 A 2.968 2.968 0 0 0 493.095 83.703 Q 492.411 83.482 491.518 83.482 A 7.258 7.258 0 0 0 490.041 83.623 Q 488.501 83.943 487.626 84.994 A 4.661 4.661 0 0 0 486.836 86.425 Q 486.373 87.725 486.369 89.621 A 15.63 15.63 0 0 0 486.369 89.65 L 486.369 100.05 L 483.548 100.05 L 483.548 87.934 A 8.321 8.321 0 0 0 483.464 86.711 Q 483.371 86.086 483.175 85.582 A 3.409 3.409 0 0 0 482.597 84.595 Q 481.773 83.632 480.148 83.502 A 6.605 6.605 0 0 0 479.623 83.482 A 7.006 7.006 0 0 0 478.174 83.622 Q 476.607 83.954 475.74 85.071 A 4.73 4.73 0 0 0 475.039 86.403 Q 474.584 87.69 474.519 89.618 A 19.639 19.639 0 0 0 474.509 90.279 L 474.509 100.05 L 471.688 100.05 L 471.688 81.426 L 473.982 81.426 L 474.441 83.975 L 474.576 83.975 Q 475.375 82.616 476.828 81.851 A 6.697 6.697 0 0 1 479.473 81.109 A 8.089 8.089 0 0 1 480.082 81.086 Q 482.787 81.086 484.331 82.299 A 4.816 4.816 0 0 1 485.791 84.247 L 485.927 84.247 Q 486.76 82.785 488.34 81.936 Q 489.92 81.086 491.942 81.086 A 9.805 9.805 0 0 1 493.721 81.237 Q 494.71 81.42 495.481 81.824 A 4.649 4.649 0 0 1 496.675 82.709 Q 497.819 83.891 498.13 86.103 A 12.938 12.938 0 0 1 498.247 87.9 L 498.247 100.05 Z M 386.574 97.654 L 386.37 97.654 L 385.775 100.05 L 383.753 100.05 L 383.753 73.61 L 386.574 73.61 L 386.574 80.033 A 58.809 58.809 0 0 1 386.542 82.02 Q 386.51 82.959 386.447 83.796 A 35.199 35.199 0 0 1 386.438 83.907 L 386.574 83.907 A 6.413 6.413 0 0 1 391.255 81.188 A 9.634 9.634 0 0 1 392.419 81.12 A 8.621 8.621 0 0 1 394.846 81.444 A 6.454 6.454 0 0 1 398.12 83.627 Q 399.746 85.634 400.07 88.975 A 18.105 18.105 0 0 1 400.151 90.721 Q 400.151 95.309 398.103 97.849 Q 396.056 100.389 392.419 100.389 A 8.556 8.556 0 0 1 390.269 100.127 A 7.444 7.444 0 0 1 389.097 99.718 A 6.247 6.247 0 0 1 386.574 97.654 Z M 434.662 97.722 L 434.662 99.88 A 2.774 2.774 0 0 1 434.333 100.01 Q 433.982 100.127 433.479 100.216 A 10.549 10.549 0 0 1 433.311 100.245 Q 432.478 100.38 431.801 100.389 A 7.232 7.232 0 0 1 431.705 100.389 A 7.367 7.367 0 0 1 429.534 100.097 Q 427.148 99.361 426.523 96.768 A 8.866 8.866 0 0 1 426.302 94.697 L 426.302 83.618 L 423.634 83.618 L 423.634 82.259 L 426.302 81.086 L 427.491 77.11 L 429.122 77.11 L 429.122 81.426 L 434.526 81.426 L 434.526 83.618 L 429.122 83.618 L 429.122 94.578 Q 429.122 96.26 429.921 97.161 A 2.62 2.62 0 0 0 431.532 98.018 A 3.77 3.77 0 0 0 432.113 98.061 A 9.264 9.264 0 0 0 433.47 97.964 A 8.535 8.535 0 0 0 433.557 97.951 A 15.259 15.259 0 0 0 433.965 97.881 Q 434.381 97.803 434.662 97.722 Z M 446.947 97.722 L 446.947 99.88 A 2.774 2.774 0 0 1 446.618 100.01 Q 446.267 100.127 445.765 100.216 A 10.549 10.549 0 0 1 445.596 100.245 Q 444.763 100.38 444.086 100.389 A 7.232 7.232 0 0 1 443.991 100.389 A 7.367 7.367 0 0 1 441.819 100.097 Q 439.433 99.361 438.808 96.768 A 8.866 8.866 0 0 1 438.587 94.697 L 438.587 83.618 L 435.919 83.618 L 435.919 82.259 L 438.587 81.086 L 439.776 77.11 L 441.408 77.11 L 441.408 81.426 L 446.811 81.426 L 446.811 83.618 L 441.408 83.618 L 441.408 94.578 Q 441.408 96.26 442.206 97.161 A 2.62 2.62 0 0 0 443.817 98.018 A 3.77 3.77 0 0 0 444.398 98.061 A 9.264 9.264 0 0 0 445.755 97.964 A 8.535 8.535 0 0 0 445.843 97.951 A 15.259 15.259 0 0 0 446.25 97.881 Q 446.667 97.803 446.947 97.722 Z M 420.894 93.555 A 14.57 14.57 0 0 0 421.153 90.721 Q 421.153 88.91 420.769 87.406 A 8.783 8.783 0 0 0 418.851 83.686 A 7.384 7.384 0 0 0 415.423 81.475 A 9.478 9.478 0 0 0 412.64 81.086 A 10.955 10.955 0 0 0 410.672 81.255 A 7.461 7.461 0 0 0 406.319 83.627 A 7.793 7.793 0 0 0 405.362 84.954 Q 404.624 86.239 404.299 87.888 A 14.646 14.646 0 0 0 404.042 90.721 A 14.111 14.111 0 0 0 404.219 93.007 A 10.435 10.435 0 0 0 405.095 95.852 A 9.271 9.271 0 0 0 405.301 96.255 A 7.636 7.636 0 0 0 408.086 99.217 A 7.854 7.854 0 0 0 409.889 100.019 A 9.058 9.058 0 0 0 412.521 100.389 Q 416.565 100.389 418.859 97.832 A 7.869 7.869 0 0 0 419.796 96.545 Q 420.56 95.237 420.894 93.555 Z M 466.484 93.555 A 14.57 14.57 0 0 0 466.743 90.721 Q 466.743 88.91 466.359 87.406 A 8.783 8.783 0 0 0 464.441 83.686 A 7.384 7.384 0 0 0 461.013 81.475 A 9.478 9.478 0 0 0 458.23 81.086 A 10.955 10.955 0 0 0 456.262 81.255 A 7.461 7.461 0 0 0 451.909 83.627 A 7.793 7.793 0 0 0 450.952 84.954 Q 450.214 86.239 449.889 87.888 A 14.646 14.646 0 0 0 449.632 90.721 A 14.111 14.111 0 0 0 449.809 93.007 A 10.435 10.435 0 0 0 450.685 95.852 A 9.271 9.271 0 0 0 450.891 96.255 A 7.636 7.636 0 0 0 453.676 99.217 A 7.854 7.854 0 0 0 455.479 100.019 A 9.058 9.058 0 0 0 458.111 100.389 Q 462.155 100.389 464.449 97.832 A 7.869 7.869 0 0 0 465.386 96.545 Q 466.15 95.237 466.484 93.555 Z M 406.965 90.721 A 14.284 14.284 0 0 0 407.1 92.761 Q 407.25 93.797 407.566 94.636 A 5.918 5.918 0 0 0 408.392 96.158 Q 409.819 98.027 412.589 98.027 A 6.552 6.552 0 0 0 414.317 97.813 A 4.56 4.56 0 0 0 416.795 96.167 A 6.055 6.055 0 0 0 417.737 94.33 Q 418.015 93.482 418.136 92.446 A 14.858 14.858 0 0 0 418.23 90.721 Q 418.23 87.169 416.795 85.326 Q 415.359 83.482 412.555 83.482 A 6.713 6.713 0 0 0 410.884 83.678 A 4.493 4.493 0 0 0 408.375 85.3 A 5.832 5.832 0 0 0 407.468 87.052 Q 406.965 88.568 406.965 90.721 Z M 452.555 90.721 A 14.284 14.284 0 0 0 452.691 92.761 Q 452.84 93.797 453.156 94.636 A 5.918 5.918 0 0 0 453.982 96.158 Q 455.409 98.027 458.179 98.027 A 6.552 6.552 0 0 0 459.908 97.813 A 4.56 4.56 0 0 0 462.385 96.167 A 6.055 6.055 0 0 0 463.327 94.33 Q 463.605 93.482 463.726 92.446 A 14.858 14.858 0 0 0 463.82 90.721 Q 463.82 87.169 462.385 85.326 Q 460.949 83.482 458.145 83.482 A 6.713 6.713 0 0 0 456.474 83.678 A 4.493 4.493 0 0 0 453.965 85.3 A 5.832 5.832 0 0 0 453.058 87.052 Q 452.555 88.568 452.555 90.721 Z M 392.011 83.482 A 7.926 7.926 0 0 0 390.476 83.621 Q 388.754 83.961 387.848 85.139 A 4.829 4.829 0 0 0 387.149 86.47 Q 386.678 87.792 386.593 89.801 A 21.732 21.732 0 0 0 386.574 90.721 Q 386.574 94.055 387.518 95.777 A 4.254 4.254 0 0 0 387.882 96.337 A 4.092 4.092 0 0 0 389.958 97.738 Q 390.652 97.955 391.498 98.009 A 9.07 9.07 0 0 0 392.079 98.027 A 5.623 5.623 0 0 0 393.677 97.814 A 4.057 4.057 0 0 0 395.954 96.133 A 6.475 6.475 0 0 0 396.755 94.4 Q 397.228 92.851 397.228 90.687 A 16.665 16.665 0 0 0 397.127 88.788 Q 396.87 86.549 395.954 85.266 A 4.113 4.113 0 0 0 393.335 83.609 A 6.524 6.524 0 0 0 392.011 83.482 Z" id="bottom_labelLayer" stroke="#777777" fill="#777777" style="stroke:#777777;fill:#777777" vector-effect="non-scaling-stroke"/></g></svg>