<svg width="534mm" height="355mm" viewBox="0 0 534 355" xmlns="http://www.w3.org/2000/svg" version="1.1" preserveAspectRatio="xMidYMid meet"><g id="svgGroup" stroke-linecap="round" fill-rule="evenodd" font-size="9pt" stroke="#000" stroke-width="0.25mm" fill="none" style="stroke:#000;stroke-width:0.25mm;fill:none"><path d="M 0 309 L 0 322.813 L 3 322.813 L 3 341.188 L 0 341.188 L 0 355 L 23.688 355 L 23.688 352 L 42.063 352 L 42.063 355 L 60.438 355 L 60.438 352 L 78.813 352 L 78.813 355 L 97.188 355 L 97.188 352 L 115.563 352 L 115.563 355 L 133.938 355 L 133.938 352 L 152.313 352 L 152.313 355 L 170.688 355 L 176 355 L 176 341.188 L 173 341.188 L 173 322.813 L 176 322.813 L 176 309 L 152.313 309 L 152.313 312 L 133.938 312 L 133.938 309 L 115.563 309 L 115.563 312 L 97.188 312 L 97.188 309 L 78.813 309 L 78.813 312 L 60.438 312 L 60.438 309 L 42.063 309 L 42.063 312 L 23.688 312 L 23.688 309 L 5.313 309 L 0 309 Z" id="front_outsideCutPath" stroke="#FF0000" stroke-width="0.2" style="stroke:#FF0000;stroke-width:0.2" vector-effect="non-scaling-stroke"/><path d="M 94.705 335.475 L 93.959 335.475 L 93.959 332.29 A 2.108 2.108 0 0 0 93.935 331.959 Q 93.907 331.785 93.848 331.646 A 0.887 0.887 0 0 0 93.685 331.391 A 0.841 0.841 0 0 0 93.34 331.171 Q 93.205 331.123 93.038 331.105 A 1.977 1.977 0 0 0 92.827 331.095 A 2.257 2.257 0 0 0 92.405 331.132 Q 92.169 331.176 91.988 331.276 A 1.051 1.051 0 0 0 91.695 331.513 Q 91.335 331.93 91.335 332.892 L 91.335 335.475 L 90.59 335.475 L 90.59 330.551 L 91.196 330.551 L 91.317 331.225 L 91.353 331.225 Q 91.583 330.861 91.996 330.661 Q 92.409 330.461 92.917 330.461 Q 93.507 330.461 93.903 330.65 A 1.34 1.34 0 0 1 94.255 330.89 Q 94.705 331.319 94.705 332.263 L 94.705 335.475 Z M 80.379 330.551 L 80.379 331.131 L 79.126 331.131 L 79.126 335.475 L 78.38 335.475 L 78.38 331.131 L 77.5 331.131 L 77.5 330.794 L 78.38 330.524 L 78.38 330.25 A 3.022 3.022 0 0 1 78.451 329.565 Q 78.669 328.631 79.562 328.469 A 2.267 2.267 0 0 1 79.966 328.435 A 2.401 2.401 0 0 1 80.306 328.461 Q 80.471 328.485 80.655 328.53 A 4.827 4.827 0 0 1 80.882 328.593 L 80.689 329.19 A 3.621 3.621 0 0 0 80.407 329.111 Q 80.265 329.077 80.14 329.062 A 1.604 1.604 0 0 0 79.952 329.051 A 1.006 1.006 0 0 0 79.71 329.078 A 0.646 0.646 0 0 0 79.328 329.332 A 0.863 0.863 0 0 0 79.214 329.562 Q 79.138 329.786 79.127 330.12 A 3.521 3.521 0 0 0 79.126 330.232 L 79.126 330.551 L 80.379 330.551 Z M 98.5 334.859 L 98.5 335.43 A 0.733 0.733 0 0 1 98.413 335.464 Q 98.321 335.495 98.188 335.519 A 2.79 2.79 0 0 1 98.143 335.526 A 3.232 3.232 0 0 1 97.933 335.554 Q 97.833 335.563 97.744 335.564 A 1.911 1.911 0 0 1 97.719 335.564 A 1.948 1.948 0 0 1 97.145 335.487 Q 96.29 335.224 96.29 334.06 L 96.29 331.131 L 95.585 331.131 L 95.585 330.771 L 96.29 330.461 L 96.605 329.41 L 97.036 329.41 L 97.036 330.551 L 98.465 330.551 L 98.465 331.131 L 97.036 331.131 L 97.036 334.028 Q 97.036 334.341 97.14 334.551 A 0.723 0.723 0 0 0 97.247 334.711 Q 97.458 334.949 97.827 334.949 A 2.449 2.449 0 0 0 98.185 334.923 A 2.258 2.258 0 0 0 98.208 334.92 A 4.034 4.034 0 0 0 98.316 334.901 Q 98.419 334.882 98.49 334.862 A 1.126 1.126 0 0 0 98.5 334.859 Z M 84.112 330.515 L 84.009 331.207 A 3.287 3.287 0 0 0 83.772 331.163 Q 83.654 331.146 83.55 331.142 A 1.749 1.749 0 0 0 83.47 331.14 A 1.292 1.292 0 0 0 82.515 331.552 A 1.768 1.768 0 0 0 82.448 331.625 Q 82.023 332.11 82.023 332.833 L 82.023 335.475 L 81.277 335.475 L 81.277 330.551 L 81.893 330.551 L 81.978 331.463 L 82.014 331.463 A 2.518 2.518 0 0 1 82.296 331.061 A 1.924 1.924 0 0 1 82.675 330.722 A 1.487 1.487 0 0 1 83.524 330.461 A 3.423 3.423 0 0 1 83.83 330.474 A 2.499 2.499 0 0 1 84.112 330.515 Z M 89.283 333.008 Q 89.283 334.212 88.676 334.888 Q 88.07 335.564 87 335.564 A 2.395 2.395 0 0 1 86.305 335.466 A 2.076 2.076 0 0 1 85.828 335.254 A 2.019 2.019 0 0 1 85.092 334.471 A 2.451 2.451 0 0 1 85.037 334.365 A 2.759 2.759 0 0 1 84.806 333.613 A 3.73 3.73 0 0 1 84.759 333.008 A 3.872 3.872 0 0 1 84.827 332.26 Q 84.961 331.579 85.361 331.133 Q 85.963 330.461 87.032 330.461 A 2.506 2.506 0 0 1 87.768 330.564 A 1.952 1.952 0 0 1 88.674 331.149 A 2.322 2.322 0 0 1 89.181 332.132 Q 89.283 332.53 89.283 333.008 Z M 85.532 333.008 A 3.776 3.776 0 0 0 85.567 333.548 Q 85.607 333.822 85.69 334.044 A 1.564 1.564 0 0 0 85.909 334.446 A 1.222 1.222 0 0 0 86.705 334.915 A 1.852 1.852 0 0 0 87.018 334.94 A 1.732 1.732 0 0 0 87.475 334.883 A 1.205 1.205 0 0 0 88.13 334.448 A 1.601 1.601 0 0 0 88.38 333.963 Q 88.453 333.738 88.485 333.464 A 3.928 3.928 0 0 0 88.51 333.008 Q 88.51 332.07 88.13 331.582 A 1.227 1.227 0 0 0 87.368 331.127 A 1.881 1.881 0 0 0 87.009 331.095 A 1.775 1.775 0 0 0 86.568 331.146 A 1.188 1.188 0 0 0 85.904 331.575 Q 85.532 332.056 85.532 333.008 Z" id="front_labelLayer" stroke="#777777" fill="#777777" style="stroke:#777777;fill:#777777" vector-effect="non-scaling-stroke"/><path d="M 182 309 L 182 322.813 L 179 322.813 L 179 341.188 L 182 341.188 L 182 355 L 202.688 355 L 202.688 352 L 221.063 352 L 221.063 355 L 239.438 355 L 239.438 352 L 257.813 352 L 257.813 355 L 276.188 355 L 276.188 352 L 294.563 352 L 294.563 355 L 312.938 355 L 312.938 352 L 331.313 352 L 331.313 355 L 349.688 355 L 352 355 L 352 341.188 L 355 341.188 L 355 322.813 L 352 322.813 L 352 309 L 331.313 309 L 331.313 312 L 312.938 312 L 312.938 309 L 294.563 309 L 294.563 312 L 276.188 312 L 276.188 309 L 257.813 309 L 257.813 312 L 239.438 312 L 239.438 309 L 221.063 309 L 221.063 312 L 202.688 312 L 202.688 309 L 184.313 309 L 182 309 Z" id="left_outsideCutPath" stroke="#FF0000" stroke-width="0.2" style="stroke:#FF0000;stroke-width:0.2" vector-effect="non-scaling-stroke"/><path d="M 270.273 330.551 L 270.273 331.131 L 269.019 331.131 L 269.019 335.475 L 268.274 335.475 L 268.274 331.131 L 267.393 331.131 L 267.393 330.794 L 268.274 330.524 L 268.274 330.25 A 3.022 3.022 0 0 1 268.344 329.565 Q 268.562 328.631 269.455 328.469 A 2.267 2.267 0 0 1 269.859 328.435 A 2.401 2.401 0 0 1 270.199 328.461 Q 270.364 328.485 270.548 328.53 A 4.827 4.827 0 0 1 270.776 328.593 L 270.583 329.19 A 3.621 3.621 0 0 0 270.301 329.111 Q 270.159 329.077 270.033 329.062 A 1.604 1.604 0 0 0 269.846 329.051 A 1.006 1.006 0 0 0 269.603 329.078 A 0.646 0.646 0 0 0 269.221 329.332 A 0.863 0.863 0 0 0 269.107 329.562 Q 269.032 329.786 269.021 330.12 A 3.521 3.521 0 0 0 269.019 330.232 L 269.019 330.551 L 270.273 330.551 Z M 266.782 332.676 L 266.782 333.148 L 263.391 333.148 A 2.993 2.993 0 0 0 263.443 333.649 Q 263.497 333.922 263.605 334.137 A 1.4 1.4 0 0 0 263.829 334.464 A 1.355 1.355 0 0 0 264.54 334.865 A 2.053 2.053 0 0 0 264.999 334.913 A 3.938 3.938 0 0 0 266.474 334.621 A 4.512 4.512 0 0 0 266.571 334.581 L 266.571 335.246 A 4.477 4.477 0 0 1 266.163 335.4 A 3.423 3.423 0 0 1 265.823 335.49 A 3.13 3.13 0 0 1 265.512 335.538 Q 265.268 335.564 264.972 335.564 A 2.898 2.898 0 0 1 264.247 335.479 A 2.052 2.052 0 0 1 263.249 334.9 Q 262.618 334.235 262.618 333.053 A 3.916 3.916 0 0 1 262.69 332.277 Q 262.786 331.805 263.007 331.438 A 2.208 2.208 0 0 1 263.204 331.162 A 1.911 1.911 0 0 1 264.597 330.467 A 2.636 2.636 0 0 1 264.779 330.461 A 2.272 2.272 0 0 1 265.418 330.547 A 1.729 1.729 0 0 1 266.243 331.07 A 2.085 2.085 0 0 1 266.716 332.023 A 3.035 3.035 0 0 1 266.782 332.676 Z M 273.435 334.859 L 273.435 335.43 A 0.733 0.733 0 0 1 273.348 335.464 Q 273.255 335.495 273.122 335.519 A 2.79 2.79 0 0 1 273.078 335.526 A 3.232 3.232 0 0 1 272.867 335.554 Q 272.768 335.563 272.679 335.564 A 1.911 1.911 0 0 1 272.653 335.564 A 1.948 1.948 0 0 1 272.079 335.487 Q 271.225 335.224 271.225 334.06 L 271.225 331.131 L 270.52 331.131 L 270.52 330.771 L 271.225 330.461 L 271.539 329.41 L 271.971 329.41 L 271.971 330.551 L 273.399 330.551 L 273.399 331.131 L 271.971 331.131 L 271.971 334.028 Q 271.971 334.341 272.075 334.551 A 0.723 0.723 0 0 0 272.182 334.711 Q 272.393 334.949 272.761 334.949 A 2.449 2.449 0 0 0 273.12 334.923 A 2.258 2.258 0 0 0 273.143 334.92 A 4.034 4.034 0 0 0 273.251 334.901 Q 273.354 334.882 273.425 334.862 A 1.126 1.126 0 0 0 273.435 334.859 Z M 261.311 328.485 L 261.311 335.475 L 260.565 335.475 L 260.565 328.485 L 261.311 328.485 Z M 263.408 332.541 L 265.983 332.541 A 2.541 2.541 0 0 0 265.952 332.133 Q 265.916 331.914 265.839 331.738 A 1.154 1.154 0 0 0 265.668 331.461 A 1.022 1.022 0 0 0 265.053 331.111 A 1.533 1.533 0 0 0 264.77 331.086 A 1.47 1.47 0 0 0 264.345 331.144 A 1.136 1.136 0 0 0 263.824 331.472 A 1.473 1.473 0 0 0 263.531 331.966 Q 263.457 332.169 263.423 332.414 A 2.817 2.817 0 0 0 263.408 332.541 Z" id="left_labelLayer" stroke="#777777" fill="#777777" style="stroke:#777777;fill:#777777" vector-effect="non-scaling-stroke"/><path d="M 361 182 L 361 202.688 L 358 202.688 L 358 221.063 L 361 221.063 L 361 239.438 L 358 239.438 L 358 257.813 L 361 257.813 L 361 276.188 L 358 276.188 L 358 294.563 L 361 294.563 L 361 312.938 L 358 312.938 L 358 331.313 L 361 331.313 L 361 349.688 L 361 352 L 381.688 352 L 381.688 355 L 400.063 355 L 400.063 352 L 418.438 352 L 418.438 355 L 436.813 355 L 436.813 352 L 455.188 352 L 455.188 355 L 473.563 355 L 473.563 352 L 491.938 352 L 491.938 355 L 510.313 355 L 510.313 352 L 528.688 352 L 531 352 L 531 331.313 L 534 331.313 L 534 312.938 L 531 312.938 L 531 294.563 L 534 294.563 L 534 276.188 L 531 276.188 L 531 257.813 L 534 257.813 L 534 239.438 L 531 239.438 L 531 221.063 L 534 221.063 L 534 202.688 L 531 202.688 L 531 184.313 L 531 182 L 510.313 182 L 510.313 179 L 491.938 179 L 491.938 182 L 473.563 182 L 473.563 179 L 455.188 179 L 455.188 182 L 436.813 182 L 436.813 179 L 418.438 179 L 418.438 182 L 400.063 182 L 400.063 179 L 381.688 179 L 381.688 182 L 363.313 182 L 361 182 Z" id="top_outsideCutPath" stroke="#FF0000" stroke-width="0.2" style="stroke:#FF0000;stroke-width:0.2" vector-effect="non-scaling-stroke"/><path d="M 458.65 271.95 L 458.444 271.95 A 27.001 27.001 0 0 1 458.621 273.945 A 22.626 22.626 0 0 1 458.65 275.078 L 458.65 282.83 L 455.797 282.83 L 455.797 255.536 L 458.117 255.536 L 458.512 258.114 L 458.65 258.114 A 7.68 7.68 0 0 1 459.76 256.853 A 5.939 5.939 0 0 1 461.211 255.88 A 7.145 7.145 0 0 1 463.259 255.281 A 9.248 9.248 0 0 1 464.562 255.192 Q 468.309 255.192 470.346 257.753 A 8.567 8.567 0 0 1 471.808 260.607 Q 472.383 262.481 472.383 264.938 A 16.729 16.729 0 0 1 472.161 267.752 Q 471.705 270.419 470.312 272.148 A 6.754 6.754 0 0 1 465.511 274.672 A 9.677 9.677 0 0 1 464.562 274.717 A 8.654 8.654 0 0 1 462.388 274.452 A 7.53 7.53 0 0 1 461.202 274.038 A 6.319 6.319 0 0 1 458.65 271.95 Z M 430.772 272.019 L 430.772 274.202 Q 430.353 274.403 429.576 274.542 A 10.671 10.671 0 0 1 429.405 274.571 Q 428.503 274.717 427.781 274.717 A 7.452 7.452 0 0 1 425.585 274.422 Q 423.171 273.677 422.539 271.054 A 8.968 8.968 0 0 1 422.315 268.959 L 422.315 257.753 L 419.617 257.753 L 419.617 256.378 L 422.315 255.192 L 423.519 251.17 L 425.169 251.17 L 425.169 255.536 L 430.634 255.536 L 430.634 257.753 L 425.169 257.753 L 425.169 268.839 Q 425.169 270.035 425.567 270.84 A 2.767 2.767 0 0 0 425.976 271.452 Q 426.784 272.363 428.194 272.363 A 9.37 9.37 0 0 0 429.566 272.264 A 8.637 8.637 0 0 0 429.655 272.251 A 15.434 15.434 0 0 0 430.066 272.18 Q 430.46 272.107 430.733 272.03 A 4.281 4.281 0 0 0 430.772 272.019 Z M 450.533 267.804 A 14.738 14.738 0 0 0 450.795 264.938 A 16.745 16.745 0 0 0 450.789 264.485 Q 450.676 260.317 448.466 257.822 Q 446.137 255.192 442.184 255.192 A 11.081 11.081 0 0 0 440.194 255.363 A 7.547 7.547 0 0 0 435.79 257.762 Q 434.261 259.468 433.747 262.073 A 14.814 14.814 0 0 0 433.487 264.938 A 14.273 14.273 0 0 0 433.667 267.249 A 10.555 10.555 0 0 0 434.553 270.128 A 9.378 9.378 0 0 0 434.761 270.535 A 7.724 7.724 0 0 0 437.578 273.531 A 7.944 7.944 0 0 0 439.402 274.342 A 9.162 9.162 0 0 0 442.064 274.717 A 11.079 11.079 0 0 0 443.999 274.556 A 7.606 7.606 0 0 0 448.475 272.13 Q 450.016 270.413 450.533 267.804 Z M 436.444 264.937 A 14.448 14.448 0 0 0 436.581 267.001 Q 436.733 268.049 437.052 268.898 A 5.986 5.986 0 0 0 437.887 270.438 A 4.676 4.676 0 0 0 440.933 272.231 A 7.086 7.086 0 0 0 442.133 272.328 A 6.627 6.627 0 0 0 443.881 272.111 A 4.612 4.612 0 0 0 446.387 270.446 A 6.125 6.125 0 0 0 447.34 268.588 Q 447.621 267.73 447.743 266.682 A 15.029 15.029 0 0 0 447.839 264.937 A 14.236 14.236 0 0 0 447.704 262.909 Q 447.555 261.876 447.241 261.04 A 5.874 5.874 0 0 0 446.387 259.48 A 4.693 4.693 0 0 0 443.469 257.74 A 7.196 7.196 0 0 0 442.098 257.616 A 6.79 6.79 0 0 0 440.408 257.814 A 4.544 4.544 0 0 0 437.87 259.455 A 5.899 5.899 0 0 0 436.953 261.227 Q 436.682 262.041 436.556 263.038 A 15.077 15.077 0 0 0 436.444 264.937 Z M 458.65 264.302 L 458.65 264.938 A 18.865 18.865 0 0 0 458.743 266.887 Q 459.001 269.362 459.973 270.618 Q 461.16 272.151 463.631 272.31 A 9.174 9.174 0 0 0 464.219 272.328 Q 466.659 272.328 468.043 270.352 Q 469.135 268.792 469.365 266.301 A 15.2 15.2 0 0 0 469.426 264.903 Q 469.426 262.591 468.831 260.986 A 6.049 6.049 0 0 0 468.043 259.498 A 4.438 4.438 0 0 0 464.797 257.649 A 6.139 6.139 0 0 0 464.15 257.616 A 8.221 8.221 0 0 0 462.614 257.749 Q 461.759 257.912 461.102 258.274 A 3.77 3.77 0 0 0 459.973 259.214 A 4.888 4.888 0 0 0 459.209 260.607 Q 458.725 261.921 458.659 263.864 A 18.158 18.158 0 0 0 458.65 264.302 Z" id="top_labelLayer" stroke="#777777" fill="#777777" style="stroke:#777777;fill:#777777" vector-effect="non-scaling-stroke"/><path d="M 0 260 L 0 273.813 L 3 273.813 L 3 292.188 L 0 292.188 L 0 306 L 23.688 306 L 23.688 303 L 42.063 303 L 42.063 306 L 60.438 306 L 60.438 303 L 78.813 303 L 78.813 306 L 97.188 306 L 97.188 303 L 115.563 303 L 115.563 306 L 133.938 306 L 133.938 303 L 152.313 303 L 152.313 306 L 170.688 306 L 176 306 L 176 292.188 L 173 292.188 L 173 273.813 L 176 273.813 L 176 260 L 152.313 260 L 152.313 263 L 133.938 263 L 133.938 260 L 115.563 260 L 115.563 263 L 97.188 263 L 97.188 260 L 78.813 260 L 78.813 263 L 60.438 263 L 60.438 260 L 42.063 260 L 42.063 263 L 23.688 263 L 23.688 260 L 5.313 260 L 0 260 Z" id="back_outsideCutPath" stroke="#FF0000" stroke-width="0.2" style="stroke:#FF0000;stroke-width:0.2" vector-effect="non-scaling-stroke"/><path d="M 94.298 283.93 L 94.334 283.93 A 4.415 4.415 0 0 1 94.443 283.782 Q 94.626 283.545 94.922 283.211 L 96.513 281.527 L 97.398 281.527 L 95.403 283.624 L 97.537 286.45 L 96.634 286.45 L 94.896 284.123 L 94.334 284.608 L 94.334 286.45 L 93.597 286.45 L 93.597 279.46 L 94.334 279.46 L 94.334 283.166 A 4.97 4.97 0 0 1 94.332 283.307 Q 94.325 283.537 94.299 283.911 A 29.918 29.918 0 0 1 94.298 283.93 Z M 79.209 285.817 L 79.155 285.817 L 78.998 286.45 L 78.463 286.45 L 78.463 279.46 L 79.209 279.46 L 79.209 281.158 A 15.547 15.547 0 0 1 79.2 281.683 Q 79.192 281.932 79.175 282.153 A 9.328 9.328 0 0 1 79.173 282.182 L 79.209 282.182 A 1.695 1.695 0 0 1 80.446 281.464 A 2.547 2.547 0 0 1 80.754 281.446 A 2.279 2.279 0 0 1 81.396 281.531 A 1.706 1.706 0 0 1 82.261 282.108 A 2.197 2.197 0 0 1 82.647 282.85 Q 82.741 283.156 82.777 283.522 A 4.786 4.786 0 0 1 82.798 283.984 Q 82.798 285.197 82.257 285.868 A 1.765 1.765 0 0 1 81.002 286.528 A 2.529 2.529 0 0 1 80.754 286.54 A 2.262 2.262 0 0 1 80.186 286.47 A 1.968 1.968 0 0 1 79.876 286.362 A 1.652 1.652 0 0 1 79.209 285.817 Z M 87.681 286.45 L 87.129 286.45 L 86.98 285.749 L 86.944 285.749 Q 86.684 286.076 86.425 286.254 A 1.374 1.374 0 0 1 86.21 286.376 A 1.72 1.72 0 0 1 85.855 286.488 Q 85.682 286.524 85.483 286.535 A 3.356 3.356 0 0 1 85.296 286.54 A 2.288 2.288 0 0 1 84.83 286.495 Q 84.421 286.41 84.148 286.162 A 1.226 1.226 0 0 1 83.778 285.516 A 1.876 1.876 0 0 1 83.732 285.089 A 1.29 1.29 0 0 1 84.466 283.871 Q 85.056 283.558 86.118 283.526 L 86.953 283.499 L 86.953 283.193 Q 86.953 282.614 86.704 282.337 A 0.757 0.757 0 0 0 86.394 282.135 Q 86.27 282.09 86.116 282.072 A 1.842 1.842 0 0 0 85.907 282.061 A 2.428 2.428 0 0 0 85.348 282.131 Q 84.957 282.223 84.514 282.438 L 84.285 281.868 A 3.438 3.438 0 0 1 84.949 281.595 A 3.914 3.914 0 0 1 85.082 281.558 A 3.453 3.453 0 0 1 85.952 281.446 A 3.149 3.149 0 0 1 86.431 281.48 Q 86.678 281.518 86.875 281.599 A 1.269 1.269 0 0 1 87.257 281.836 A 1.181 1.181 0 0 1 87.561 282.307 Q 87.632 282.5 87.661 282.739 A 2.934 2.934 0 0 1 87.681 283.09 L 87.681 286.45 Z M 92.501 281.693 L 92.272 282.326 A 3.317 3.317 0 0 0 91.912 282.206 A 3.962 3.962 0 0 0 91.733 282.162 Q 91.441 282.097 91.216 282.097 A 1.654 1.654 0 0 0 90.545 282.223 Q 89.841 282.534 89.735 283.607 A 4.12 4.12 0 0 0 89.716 284.011 A 3.611 3.611 0 0 0 89.752 284.537 Q 89.83 285.07 90.082 285.403 A 1.184 1.184 0 0 0 90.849 285.862 A 1.804 1.804 0 0 0 91.167 285.888 A 3.122 3.122 0 0 0 92.028 285.763 A 3.854 3.854 0 0 0 92.429 285.623 L 92.429 286.284 Q 91.935 286.54 91.185 286.54 A 2.787 2.787 0 0 1 90.507 286.462 A 1.89 1.89 0 0 1 89.53 285.882 A 2.157 2.157 0 0 1 89.081 285.058 Q 88.982 284.731 88.954 284.338 A 4.509 4.509 0 0 1 88.943 284.02 A 4.114 4.114 0 0 1 89.007 283.271 Q 89.084 282.854 89.255 282.525 A 2.056 2.056 0 0 1 89.539 282.11 A 1.931 1.931 0 0 1 90.596 281.502 A 2.927 2.927 0 0 1 91.234 281.437 A 3.365 3.365 0 0 1 91.944 281.513 Q 92.299 281.589 92.501 281.693 Z M 80.646 282.07 Q 79.883 282.07 79.546 282.508 A 1.277 1.277 0 0 0 79.361 282.86 Q 79.236 283.209 79.214 283.741 A 5.745 5.745 0 0 0 79.209 283.984 Q 79.209 284.865 79.458 285.32 A 1.125 1.125 0 0 0 79.555 285.468 A 1.082 1.082 0 0 0 80.103 285.839 Q 80.287 285.896 80.511 285.911 A 2.398 2.398 0 0 0 80.664 285.915 A 1.487 1.487 0 0 0 81.086 285.859 A 1.072 1.072 0 0 0 81.688 285.415 A 1.712 1.712 0 0 0 81.9 284.956 Q 81.967 284.739 81.998 284.475 A 4.273 4.273 0 0 0 82.025 283.975 Q 82.025 283.013 81.688 282.542 A 1.087 1.087 0 0 0 80.996 282.104 A 1.725 1.725 0 0 0 80.646 282.07 Z M 86.935 284.473 L 86.935 284.029 L 86.19 284.06 Q 85.447 284.086 85.05 284.261 A 1.145 1.145 0 0 0 84.907 284.336 A 0.796 0.796 0 0 0 84.528 284.914 A 1.178 1.178 0 0 0 84.514 285.098 Q 84.514 285.453 84.703 285.659 A 0.664 0.664 0 0 0 84.759 285.713 A 0.812 0.812 0 0 0 85.063 285.875 Q 85.183 285.91 85.328 285.92 A 1.677 1.677 0 0 0 85.444 285.924 A 2.053 2.053 0 0 0 85.887 285.879 Q 86.277 285.793 86.538 285.543 A 1.249 1.249 0 0 0 86.886 284.919 Q 86.935 284.718 86.935 284.481 A 2.367 2.367 0 0 0 86.935 284.473 Z" id="back_labelLayer" stroke="#777777" fill="#777777" style="stroke:#777777;fill:#777777" vector-effect="non-scaling-stroke"/><path d="M 182 260 L 182 273.813 L 179 273.813 L 179 292.188 L 182 292.188 L 182 306 L 202.688 306 L 202.688 303 L 221.063 303 L 221.063 306 L 239.438 306 L 239.438 303 L 257.813 303 L 257.813 306 L 276.188 306 L 276.188 303 L 294.563 303 L 294.563 306 L 312.938 306 L 312.938 303 L 331.313 303 L 331.313 306 L 349.688 306 L 352 306 L 352 292.188 L 355 292.188 L 355 273.813 L 352 273.813 L 352 260 L 331.313 260 L 331.313 263 L 312.938 263 L 312.938 260 L 294.563 260 L 294.563 263 L 276.188 263 L 276.188 260 L 257.813 260 L 257.813 263 L 239.438 263 L 239.438 260 L 221.063 260 L 221.063 263 L 202.688 263 L 202.688 260 L 184.313 260 L 182 260 Z" id="right_outsideCutPath" stroke="#FF0000" stroke-width="0.2" style="stroke:#FF0000;stroke-width:0.2" vector-effect="non-scaling-stroke"/><path d="M 272.721 285.39 L 271.975 285.39 L 271.975 282.205 A 2.108 2.108 0 0 0 271.951 281.874 Q 271.923 281.7 271.864 281.562 A 0.887 0.887 0 0 0 271.701 281.306 A 0.841 0.841 0 0 0 271.356 281.086 Q 271.221 281.039 271.054 281.021 A 1.977 1.977 0 0 0 270.843 281.01 Q 270.336 281.01 270.007 281.19 A 1.044 1.044 0 0 0 269.709 281.432 A 1.241 1.241 0 0 0 269.498 281.805 Q 269.371 282.147 269.354 282.655 A 4.813 4.813 0 0 0 269.352 282.816 L 269.352 285.39 L 268.606 285.39 L 268.606 278.4 L 269.352 278.4 L 269.352 280.516 Q 269.352 280.791 269.333 280.998 A 2.917 2.917 0 0 1 269.316 281.149 L 269.361 281.149 A 1.49 1.49 0 0 1 269.883 280.647 A 1.82 1.82 0 0 1 269.987 280.59 A 1.914 1.914 0 0 1 270.616 280.404 A 2.42 2.42 0 0 1 270.915 280.386 A 3.025 3.025 0 0 1 271.423 280.425 Q 271.955 280.516 272.269 280.815 Q 272.62 281.148 272.698 281.786 A 3.225 3.225 0 0 1 272.721 282.178 L 272.721 285.39 Z M 265.893 280.466 L 267.595 280.466 L 267.595 280.938 L 266.683 281.046 Q 266.789 281.178 266.876 281.379 A 2.299 2.299 0 0 1 266.908 281.457 A 1.435 1.435 0 0 1 266.993 281.8 A 1.842 1.842 0 0 1 267.007 282.03 A 1.709 1.709 0 0 1 266.928 282.56 A 1.383 1.383 0 0 1 266.513 283.184 A 1.654 1.654 0 0 1 265.862 283.527 Q 265.547 283.615 265.156 283.615 A 2.397 2.397 0 0 1 264.879 283.6 A 2.024 2.024 0 0 1 264.743 283.579 Q 264.267 283.831 264.267 284.213 Q 264.267 284.415 264.433 284.512 Q 264.599 284.608 265.003 284.608 L 265.875 284.608 Q 266.674 284.608 267.103 284.945 A 1.091 1.091 0 0 1 267.509 285.64 A 1.638 1.638 0 0 1 267.532 285.924 Q 267.532 286.742 266.876 287.171 Q 266.221 287.6 264.963 287.6 Q 264.329 287.6 263.886 287.445 A 1.733 1.733 0 0 1 263.474 287.241 Q 262.984 286.904 262.952 286.309 A 1.574 1.574 0 0 1 262.95 286.225 A 1.14 1.14 0 0 1 263.238 285.448 A 1.302 1.302 0 0 1 263.685 285.122 A 1.846 1.846 0 0 1 264.046 285.003 A 0.774 0.774 0 0 1 263.746 284.761 A 0.919 0.919 0 0 1 263.73 284.738 A 0.691 0.691 0 0 1 263.603 284.365 A 0.856 0.856 0 0 1 263.602 284.321 A 0.853 0.853 0 0 1 263.645 284.046 A 0.756 0.756 0 0 1 263.745 283.849 Q 263.854 283.696 264.058 283.551 A 2.343 2.343 0 0 1 264.199 283.458 A 1.307 1.307 0 0 1 263.631 283.004 A 1.62 1.62 0 0 1 263.577 282.924 A 1.542 1.542 0 0 1 263.34 282.181 A 1.881 1.881 0 0 1 263.337 282.061 A 2.154 2.154 0 0 1 263.393 281.552 A 1.417 1.417 0 0 1 263.822 280.815 Q 264.241 280.436 264.962 280.385 A 3.294 3.294 0 0 1 265.196 280.377 A 2.858 2.858 0 0 1 265.574 280.4 A 2.177 2.177 0 0 1 265.893 280.466 Z M 276.517 284.774 L 276.517 285.345 A 0.733 0.733 0 0 1 276.43 285.379 Q 276.337 285.41 276.204 285.434 A 2.79 2.79 0 0 1 276.16 285.441 A 3.232 3.232 0 0 1 275.949 285.469 Q 275.849 285.478 275.76 285.479 A 1.911 1.911 0 0 1 275.735 285.48 A 1.948 1.948 0 0 1 275.161 285.402 Q 274.307 285.139 274.307 283.975 L 274.307 281.046 L 273.601 281.046 L 273.601 280.686 L 274.307 280.377 L 274.621 279.325 L 275.052 279.325 L 275.052 280.466 L 276.481 280.466 L 276.481 281.046 L 275.052 281.046 L 275.052 283.943 Q 275.052 284.256 275.156 284.466 A 0.723 0.723 0 0 0 275.263 284.626 Q 275.475 284.864 275.843 284.864 A 2.449 2.449 0 0 0 276.202 284.839 A 2.258 2.258 0 0 0 276.225 284.835 A 4.034 4.034 0 0 0 276.332 284.817 Q 276.435 284.797 276.507 284.777 A 1.126 1.126 0 0 0 276.517 284.774 Z M 260.318 280.43 L 260.215 281.122 A 3.287 3.287 0 0 0 259.978 281.079 Q 259.86 281.062 259.756 281.057 A 1.749 1.749 0 0 0 259.675 281.055 A 1.292 1.292 0 0 0 258.721 281.467 A 1.768 1.768 0 0 0 258.654 281.54 Q 258.229 282.025 258.229 282.748 L 258.229 285.39 L 257.483 285.39 L 257.483 280.466 L 258.099 280.466 L 258.184 281.378 L 258.22 281.378 A 2.518 2.518 0 0 1 258.502 280.976 A 1.924 1.924 0 0 1 258.88 280.637 A 1.487 1.487 0 0 1 259.729 280.377 A 3.423 3.423 0 0 1 260.036 280.39 A 2.499 2.499 0 0 1 260.318 280.43 Z M 261.984 280.466 L 261.984 285.39 L 261.239 285.39 L 261.239 280.466 L 261.984 280.466 Z M 265.637 285.278 L 264.743 285.278 Q 264.371 285.278 264.12 285.408 A 0.873 0.873 0 0 0 263.952 285.52 A 0.786 0.786 0 0 0 263.694 285.966 A 1.193 1.193 0 0 0 263.669 286.216 A 0.749 0.749 0 0 0 263.718 286.494 Q 263.789 286.673 263.962 286.794 A 0.875 0.875 0 0 0 264.006 286.823 A 1.194 1.194 0 0 0 264.3 286.949 Q 264.577 287.029 264.966 287.029 A 3.916 3.916 0 0 0 264.972 287.029 A 5.013 5.013 0 0 0 265.461 287.007 Q 266.038 286.951 266.362 286.749 A 1.088 1.088 0 0 0 266.614 286.538 A 0.815 0.815 0 0 0 266.814 285.987 Q 266.814 285.74 266.719 285.586 A 0.47 0.47 0 0 0 266.567 285.432 Q 266.378 285.314 265.937 285.286 A 4.745 4.745 0 0 0 265.637 285.278 Z M 264.073 282.043 Q 264.073 282.56 264.365 282.825 Q 264.628 283.064 265.077 283.087 A 1.92 1.92 0 0 0 265.178 283.09 A 1.625 1.625 0 0 0 265.604 283.039 Q 266.09 282.907 266.222 282.429 A 1.51 1.51 0 0 0 266.27 282.03 A 1.603 1.603 0 0 0 266.215 281.591 Q 266.075 281.098 265.574 280.967 A 1.622 1.622 0 0 0 265.165 280.92 A 1.565 1.565 0 0 0 264.846 280.951 Q 264.546 281.013 264.356 281.203 A 0.895 0.895 0 0 0 264.14 281.568 Q 264.094 281.709 264.08 281.881 A 1.962 1.962 0 0 0 264.073 282.043 Z M 261.186 278.996 A 0.826 0.826 0 0 0 261.176 279.132 Q 261.176 279.259 261.208 279.353 A 0.385 0.385 0 0 0 261.302 279.507 A 0.418 0.418 0 0 0 261.453 279.604 A 0.474 0.474 0 0 0 261.616 279.631 Q 261.796 279.631 261.926 279.507 Q 262.017 279.421 262.044 279.274 A 0.772 0.772 0 0 0 262.056 279.132 A 0.853 0.853 0 0 0 262.053 279.051 Q 262.046 278.978 262.025 278.918 A 0.377 0.377 0 0 0 261.926 278.759 A 0.439 0.439 0 0 0 261.616 278.638 A 0.569 0.569 0 0 0 261.578 278.639 A 0.431 0.431 0 0 0 261.302 278.757 Q 261.212 278.842 261.186 278.996 Z" id="right_labelLayer" stroke="#777777" fill="#777777" style="stroke:#777777;fill:#777777" vector-effect="non-scaling-stroke"/><path d="M 361 3 L 361 23.688 L 358 23.688 L 358 42.063 L 361 42.063 L 361 60.438 L 358 60.438 L 358 78.813 L 361 78.813 L 361 97.188 L 358 97.188 L 358 115.563 L 361 115.563 L 361 133.938 L 358 133.938 L 358 152.313 L 361 152.313 L 361 170.688 L 361 173 L 381.688 173 L 381.688 176 L 400.063 176 L 400.063 173 L 418.438 173 L 418.438 176 L 436.813 176 L 436.813 173 L 455.188 173 L 455.188 176 L 473.563 176 L 473.563 173 L 491.938 173 L 491.938 176 L 510.313 176 L 510.313 173 L 528.688 173 L 531 173 L 531 152.313 L 534 152.313 L 534 133.938 L 531 133.938 L 531 115.563 L 534 115.563 L 534 97.188 L 531 97.188 L 531 78.813 L 534 78.813 L 534 60.438 L 531 60.438 L 531 42.063 L 534 42.063 L 534 23.688 L 531 23.688 L 531 5.313 L 531 3 L 510.313 3 L 510.313 0 L 491.938 0 L 491.938 3 L 473.563 3 L 473.563 0 L 455.188 0 L 455.188 3 L 436.813 3 L 436.813 0 L 418.438 0 L 418.438 3 L 400.063 3 L 400.063 0 L 381.688 0 L 381.688 3 L 363.313 3 L 361 3 Z" id="bottom_outsideCutPath" stroke="#FF0000" stroke-width="0.2" style="stroke:#FF0000;stroke-width:0.2" vector-effect="non-scaling-stroke"/><path d="M 503.905 101.2 L 501.051 101.2 L 501.051 88.945 A 8.417 8.417 0 0 0 500.967 87.707 Q 500.872 87.075 500.674 86.566 A 3.448 3.448 0 0 0 500.089 85.568 A 3.002 3.002 0 0 0 498.693 84.665 Q 498.196 84.505 497.59 84.459 A 6.623 6.623 0 0 0 497.098 84.442 A 7.342 7.342 0 0 0 495.604 84.584 Q 494.716 84.769 494.047 85.194 A 3.778 3.778 0 0 0 493.162 85.971 A 4.715 4.715 0 0 0 492.363 87.418 Q 491.894 88.733 491.891 90.652 A 15.991 15.991 0 0 0 491.891 90.681 L 491.891 101.2 L 489.037 101.2 L 489.037 88.945 A 8.417 8.417 0 0 0 488.953 87.707 Q 488.858 87.075 488.66 86.566 A 3.448 3.448 0 0 0 488.075 85.568 A 2.993 2.993 0 0 0 486.698 84.673 Q 485.994 84.442 485.067 84.442 A 7.086 7.086 0 0 0 483.602 84.583 Q 482.016 84.919 481.14 86.049 A 4.785 4.785 0 0 0 480.43 87.396 Q 479.97 88.697 479.905 90.649 A 19.864 19.864 0 0 0 479.894 91.317 L 479.894 101.2 L 477.041 101.2 L 477.041 82.362 L 479.361 82.362 L 479.825 84.94 L 479.962 84.94 Q 480.77 83.565 482.24 82.792 A 6.774 6.774 0 0 1 484.915 82.041 A 8.181 8.181 0 0 1 485.531 82.018 Q 488.267 82.018 489.829 83.245 A 4.871 4.871 0 0 1 491.306 85.215 L 491.444 85.215 A 5.957 5.957 0 0 1 493.687 82.988 A 7.158 7.158 0 0 1 493.884 82.878 A 7.221 7.221 0 0 1 496.533 82.072 A 9.004 9.004 0 0 1 497.528 82.018 A 9.918 9.918 0 0 1 499.327 82.171 Q 501.209 82.518 502.315 83.66 A 4.913 4.913 0 0 1 503.37 85.385 Q 503.905 86.817 503.905 88.91 L 503.905 101.2 Z M 390.948 98.776 L 390.742 98.776 L 390.141 101.2 L 388.095 101.2 L 388.095 74.456 L 390.948 74.456 L 390.948 80.953 A 59.486 59.486 0 0 1 390.916 82.962 Q 390.884 83.913 390.82 84.759 A 35.616 35.616 0 0 1 390.811 84.871 L 390.948 84.871 A 6.487 6.487 0 0 1 395.683 82.121 A 9.744 9.744 0 0 1 396.861 82.053 A 8.72 8.72 0 0 1 399.315 82.38 A 6.528 6.528 0 0 1 402.627 84.588 A 8.407 8.407 0 0 1 404.101 87.427 Q 404.464 88.597 404.6 89.998 A 18.313 18.313 0 0 1 404.681 91.764 A 16.729 16.729 0 0 1 404.46 94.578 Q 404.004 97.245 402.61 98.974 A 6.754 6.754 0 0 1 397.81 101.498 A 9.677 9.677 0 0 1 396.861 101.543 A 8.654 8.654 0 0 1 394.686 101.278 A 7.53 7.53 0 0 1 393.501 100.864 A 6.319 6.319 0 0 1 390.948 98.776 Z M 439.589 98.845 L 439.589 101.028 Q 439.17 101.23 438.393 101.368 A 10.671 10.671 0 0 1 438.223 101.397 Q 437.32 101.543 436.598 101.543 A 7.452 7.452 0 0 1 434.402 101.248 Q 431.988 100.503 431.357 97.881 A 8.968 8.968 0 0 1 431.133 95.785 L 431.133 84.579 L 428.434 84.579 L 428.434 83.204 L 431.133 82.018 L 432.336 77.996 L 433.986 77.996 L 433.986 82.362 L 439.451 82.362 L 439.451 84.579 L 433.986 84.579 L 433.986 95.665 Q 433.986 96.861 434.385 97.666 A 2.767 2.767 0 0 0 434.794 98.278 Q 435.601 99.189 437.011 99.189 A 9.37 9.37 0 0 0 438.384 99.09 A 8.637 8.637 0 0 0 438.472 99.077 A 15.434 15.434 0 0 0 438.884 99.006 Q 439.277 98.933 439.551 98.856 A 4.281 4.281 0 0 0 439.589 98.845 Z M 452.016 98.845 L 452.016 101.028 Q 451.596 101.23 450.82 101.368 A 10.671 10.671 0 0 1 450.649 101.397 Q 449.747 101.543 449.025 101.543 A 7.452 7.452 0 0 1 446.829 101.248 Q 444.415 100.503 443.783 97.881 A 8.968 8.968 0 0 1 443.559 95.785 L 443.559 84.579 L 440.861 84.579 L 440.861 83.204 L 443.559 82.018 L 444.762 77.996 L 446.412 77.996 L 446.412 82.362 L 451.878 82.362 L 451.878 84.579 L 446.412 84.579 L 446.412 95.665 Q 446.412 96.861 446.811 97.666 A 2.767 2.767 0 0 0 447.22 98.278 Q 448.028 99.189 449.437 99.189 A 9.37 9.37 0 0 0 450.81 99.09 A 8.637 8.637 0 0 0 450.898 99.077 A 15.434 15.434 0 0 0 451.31 99.006 Q 451.704 98.933 451.977 98.856 A 4.281 4.281 0 0 0 452.016 98.845 Z M 425.663 94.631 A 14.738 14.738 0 0 0 425.925 91.764 A 16.745 16.745 0 0 0 425.919 91.311 Q 425.806 87.143 423.596 84.648 Q 421.267 82.018 417.314 82.018 A 11.081 11.081 0 0 0 415.324 82.189 A 7.547 7.547 0 0 0 410.92 84.588 Q 409.391 86.294 408.877 88.899 A 14.814 14.814 0 0 0 408.617 91.764 A 14.273 14.273 0 0 0 408.796 94.076 A 10.555 10.555 0 0 0 409.683 96.954 A 9.378 9.378 0 0 0 409.89 97.361 A 7.724 7.724 0 0 0 412.708 100.357 A 7.944 7.944 0 0 0 414.531 101.168 A 9.162 9.162 0 0 0 417.194 101.543 A 11.079 11.079 0 0 0 419.128 101.382 A 7.606 7.606 0 0 0 423.605 98.957 Q 425.145 97.239 425.663 94.631 Z M 471.777 94.631 A 14.738 14.738 0 0 0 472.039 91.764 A 16.745 16.745 0 0 0 472.033 91.311 Q 471.92 87.143 469.71 84.648 Q 467.381 82.018 463.428 82.018 A 11.081 11.081 0 0 0 461.438 82.189 A 7.547 7.547 0 0 0 457.034 84.588 Q 455.505 86.294 454.991 88.899 A 14.814 14.814 0 0 0 454.731 91.764 A 14.273 14.273 0 0 0 454.91 94.076 A 10.555 10.555 0 0 0 455.797 96.954 A 9.378 9.378 0 0 0 456.004 97.361 A 7.724 7.724 0 0 0 458.822 100.357 A 7.944 7.944 0 0 0 460.645 101.168 A 9.162 9.162 0 0 0 463.308 101.543 A 11.079 11.079 0 0 0 465.242 101.382 A 7.606 7.606 0 0 0 469.719 98.957 Q 471.259 97.239 471.777 94.631 Z M 411.573 91.764 A 14.448 14.448 0 0 0 411.711 93.828 Q 411.862 94.875 412.181 95.724 A 5.986 5.986 0 0 0 413.017 97.264 A 4.676 4.676 0 0 0 416.063 99.057 A 7.086 7.086 0 0 0 417.262 99.154 A 6.627 6.627 0 0 0 419.011 98.937 A 4.612 4.612 0 0 0 421.516 97.272 A 6.125 6.125 0 0 0 422.47 95.415 Q 422.751 94.556 422.873 93.508 A 15.029 15.029 0 0 0 422.969 91.764 A 14.236 14.236 0 0 0 422.834 89.735 Q 422.685 88.702 422.371 87.866 A 5.874 5.874 0 0 0 421.516 86.307 A 4.693 4.693 0 0 0 418.598 84.566 A 7.196 7.196 0 0 0 417.228 84.442 A 6.79 6.79 0 0 0 415.538 84.64 A 4.544 4.544 0 0 0 413 86.281 A 5.899 5.899 0 0 0 412.083 88.053 Q 411.812 88.867 411.685 89.864 A 15.077 15.077 0 0 0 411.573 91.764 Z M 457.687 91.764 A 14.448 14.448 0 0 0 457.825 93.828 Q 457.977 94.875 458.295 95.724 A 5.986 5.986 0 0 0 459.131 97.264 A 4.676 4.676 0 0 0 462.177 99.057 A 7.086 7.086 0 0 0 463.376 99.154 A 6.627 6.627 0 0 0 465.125 98.937 A 4.612 4.612 0 0 0 467.63 97.272 A 6.125 6.125 0 0 0 468.584 95.415 Q 468.865 94.556 468.987 93.508 A 15.029 15.029 0 0 0 469.083 91.764 A 14.236 14.236 0 0 0 468.948 89.735 Q 468.799 88.702 468.485 87.866 A 5.874 5.874 0 0 0 467.63 86.307 A 4.693 4.693 0 0 0 464.712 84.566 A 7.196 7.196 0 0 0 463.342 84.442 A 6.79 6.79 0 0 0 461.652 84.64 A 4.544 4.544 0 0 0 459.114 86.281 A 5.899 5.899 0 0 0 458.197 88.053 Q 457.926 88.867 457.799 89.864 A 15.077 15.077 0 0 0 457.687 91.764 Z M 396.448 84.442 A 8.018 8.018 0 0 0 394.896 84.582 Q 394.011 84.757 393.339 85.15 A 3.794 3.794 0 0 0 392.237 86.118 Q 391.105 87.59 390.967 90.834 A 21.982 21.982 0 0 0 390.948 91.764 A 18.865 18.865 0 0 0 391.042 93.713 Q 391.3 96.188 392.272 97.444 Q 393.458 98.977 395.929 99.136 A 9.174 9.174 0 0 0 396.517 99.154 A 5.688 5.688 0 0 0 398.133 98.938 A 4.103 4.103 0 0 0 400.436 97.238 Q 401.725 95.321 401.725 91.729 A 16.857 16.857 0 0 0 401.623 89.808 Q 401.362 87.544 400.436 86.246 A 4.161 4.161 0 0 0 397.787 84.57 A 6.599 6.599 0 0 0 396.448 84.442 Z" id="bottom_labelLayer" stroke="#777777" fill="#777777" style="stroke:#777777;fill:#777777" vector-effect="non-scaling-stroke"/></g></svg>