<svg width="438mm" height="211mm" viewBox="0 0 438 211" xmlns="http://www.w3.org/2000/svg" version="1.1" preserveAspectRatio="xMidYMid meet"><g id="svgGroup" stroke-linecap="round" fill-rule="evenodd" font-size="9pt" stroke="#000" stroke-width="0.25mm" fill="none" style="stroke:#000;stroke-width:0.25mm;fill:none"><path d="M 0 182 L 0 190.405 L 2 190.405 L 2 202.595 L 0 202.595 L 0 211 L 14.955 211 L 14.955 209 L 27.145 209 L 27.145 211 L 39.335 211 L 39.335 209 L 51.525 209 L 51.525 211 L 63.715 211 L 63.715 209 L 75.905 209 L 75.905 211 L 88.095 211 L 88.095 209 L 100.285 209 L 100.285 211 L 112.475 211 L 112.475 209 L 124.665 209 L 124.665 211 L 136.855 211 L 136.855 209 L 149.045 209 L 149.045 211 L 164 211 L 164 202.595 L 162 202.595 L 162 190.405 L 164 190.405 L 164 182 L 149.045 182 L 149.045 184 L 136.855 184 L 136.855 182 L 124.665 182 L 124.665 184 L 112.475 184 L 112.475 182 L 100.285 182 L 100.285 184 L 88.095 184 L 88.095 182 L 75.905 182 L 75.905 184 L 63.715 184 L 63.715 182 L 51.525 182 L 51.525 184 L 39.335 184 L 39.335 182 L 27.145 182 L 27.145 184 L 14.955 184 L 14.955 182 L 0 182 Z" id="front_outsideCutPath" stroke="#FF0000" stroke-width="0.2" style="stroke:#FF0000;stroke-width:0.2" vector-effect="non-scaling-stroke"/><path d="M 86.227 198.691 L 85.757 198.691 L 85.757 196.683 A 1.329 1.329 0 0 0 85.741 196.474 Q 85.705 196.248 85.584 196.116 Q 85.444 195.965 85.176 195.936 A 1.246 1.246 0 0 0 85.043 195.929 Q 84.722 195.929 84.514 196.044 A 0.663 0.663 0 0 0 84.329 196.193 Q 84.122 196.433 84.104 196.96 A 3.012 3.012 0 0 0 84.103 197.062 L 84.103 198.691 L 83.633 198.691 L 83.633 195.587 L 84.015 195.587 L 84.091 196.011 L 84.114 196.011 A 0.952 0.952 0 0 1 84.487 195.672 A 1.145 1.145 0 0 1 84.519 195.656 Q 84.78 195.53 85.1 195.53 A 1.856 1.856 0 0 1 85.416 195.555 Q 85.747 195.612 85.944 195.8 A 0.815 0.815 0 0 1 86.142 196.112 Q 86.19 196.241 86.211 196.4 A 2.052 2.052 0 0 1 86.227 196.666 L 86.227 198.691 Z M 77.195 195.587 L 77.195 195.952 L 76.405 195.952 L 76.405 198.691 L 75.935 198.691 L 75.935 195.952 L 75.38 195.952 L 75.38 195.74 L 75.935 195.57 L 75.935 195.397 Q 75.935 194.409 76.68 194.274 A 1.429 1.429 0 0 1 76.935 194.253 A 1.514 1.514 0 0 1 77.149 194.269 Q 77.253 194.284 77.369 194.313 A 3.043 3.043 0 0 1 77.513 194.352 L 77.391 194.729 A 2.283 2.283 0 0 0 77.213 194.679 Q 77.124 194.657 77.045 194.648 A 1.011 1.011 0 0 0 76.926 194.641 Q 76.66 194.641 76.533 194.818 Q 76.405 194.995 76.405 195.386 L 76.405 195.587 L 77.195 195.587 Z M 88.62 198.303 L 88.62 198.662 A 0.462 0.462 0 0 1 88.565 198.684 Q 88.507 198.703 88.423 198.718 A 1.757 1.757 0 0 1 88.395 198.723 Q 88.246 198.747 88.127 198.747 A 1.228 1.228 0 0 1 87.765 198.698 Q 87.227 198.532 87.227 197.798 L 87.227 195.952 L 86.782 195.952 L 86.782 195.725 L 87.227 195.53 L 87.425 194.867 L 87.697 194.867 L 87.697 195.587 L 88.597 195.587 L 88.597 195.952 L 87.697 195.952 L 87.697 197.779 Q 87.697 198.059 87.83 198.209 A 0.437 0.437 0 0 0 88.098 198.352 A 0.628 0.628 0 0 0 88.195 198.359 A 1.544 1.544 0 0 0 88.421 198.343 A 1.421 1.421 0 0 0 88.436 198.341 Q 88.552 198.322 88.62 198.303 Z M 79.549 195.564 L 79.484 196 Q 79.291 195.958 79.144 195.958 A 0.815 0.815 0 0 0 78.542 196.218 A 1.115 1.115 0 0 0 78.5 196.263 A 1.074 1.074 0 0 0 78.241 196.866 A 1.427 1.427 0 0 0 78.232 197.025 L 78.232 198.691 L 77.762 198.691 L 77.762 195.587 L 78.15 195.587 L 78.204 196.162 L 78.226 196.162 A 1.588 1.588 0 0 1 78.404 195.908 A 1.213 1.213 0 0 1 78.643 195.694 Q 78.886 195.53 79.178 195.53 A 2.158 2.158 0 0 1 79.371 195.538 A 1.575 1.575 0 0 1 79.549 195.564 Z M 82.765 197.608 A 2.428 2.428 0 0 0 82.809 197.136 A 2.759 2.759 0 0 0 82.808 197.061 Q 82.801 196.803 82.745 196.583 A 1.464 1.464 0 0 0 82.425 195.963 Q 82.041 195.53 81.39 195.53 A 1.826 1.826 0 0 0 81.062 195.558 A 1.243 1.243 0 0 0 80.336 195.953 A 1.299 1.299 0 0 0 80.177 196.175 Q 80.054 196.389 80 196.664 A 2.441 2.441 0 0 0 79.957 197.136 A 2.352 2.352 0 0 0 79.986 197.517 A 1.739 1.739 0 0 0 80.132 197.991 A 1.545 1.545 0 0 0 80.166 198.058 A 1.273 1.273 0 0 0 80.631 198.552 A 1.309 1.309 0 0 0 80.931 198.685 A 1.51 1.51 0 0 0 81.37 198.747 A 1.826 1.826 0 0 0 81.689 198.721 A 1.253 1.253 0 0 0 82.426 198.321 A 1.311 1.311 0 0 0 82.582 198.106 Q 82.71 197.888 82.765 197.608 Z M 80.444 197.136 A 2.381 2.381 0 0 0 80.466 197.476 Q 80.491 197.648 80.544 197.788 A 0.986 0.986 0 0 0 80.682 198.042 A 0.771 0.771 0 0 0 81.184 198.338 A 1.168 1.168 0 0 0 81.381 198.354 Q 81.843 198.354 82.082 198.043 A 1.009 1.009 0 0 0 82.239 197.737 Q 82.285 197.596 82.306 197.423 A 2.476 2.476 0 0 0 82.321 197.136 A 2.346 2.346 0 0 0 82.299 196.801 Q 82.275 196.631 82.223 196.493 A 0.968 0.968 0 0 0 82.082 196.237 Q 81.843 195.929 81.376 195.929 A 1.119 1.119 0 0 0 81.097 195.962 A 0.749 0.749 0 0 0 80.679 196.232 A 0.972 0.972 0 0 0 80.528 196.524 Q 80.483 196.658 80.462 196.823 A 2.484 2.484 0 0 0 80.444 197.136 Z" id="front_labelLayer" stroke="#777777" fill="#777777" style="stroke:#777777;fill:#777777" vector-effect="non-scaling-stroke"/><path d="M 169 182 L 169 190.405 L 167 190.405 L 167 202.595 L 169 202.595 L 169 211 L 176.335 211 L 176.335 209 L 188.525 209 L 188.525 211 L 200.715 211 L 200.715 209 L 212.905 209 L 212.905 211 L 225.095 211 L 225.095 209 L 237.285 209 L 237.285 211 L 249.475 211 L 249.475 209 L 261.665 209 L 261.665 211 L 269 211 L 269 202.595 L 271 202.595 L 271 190.405 L 269 190.405 L 269 182 L 261.665 182 L 261.665 184 L 249.475 184 L 249.475 182 L 237.285 182 L 237.285 184 L 225.095 184 L 225.095 182 L 212.905 182 L 212.905 184 L 200.715 184 L 200.715 182 L 188.525 182 L 188.525 184 L 176.335 184 L 176.335 182 L 169 182 Z" id="left_outsideCutPath" stroke="#FF0000" stroke-width="0.2" style="stroke:#FF0000;stroke-width:0.2" vector-effect="non-scaling-stroke"/><path d="M 221.063 195.587 L 221.063 195.952 L 220.273 195.952 L 220.273 198.691 L 219.803 198.691 L 219.803 195.952 L 219.248 195.952 L 219.248 195.74 L 219.803 195.57 L 219.803 195.397 Q 219.803 194.409 220.548 194.274 A 1.429 1.429 0 0 1 220.803 194.253 A 1.514 1.514 0 0 1 221.017 194.269 Q 221.121 194.284 221.237 194.313 A 3.043 3.043 0 0 1 221.38 194.352 L 221.259 194.729 A 2.283 2.283 0 0 0 221.081 194.679 Q 220.991 194.657 220.912 194.648 A 1.011 1.011 0 0 0 220.794 194.641 Q 220.528 194.641 220.4 194.818 Q 220.273 194.995 220.273 195.386 L 220.273 195.587 L 221.063 195.587 Z M 218.863 196.926 L 218.863 197.224 L 216.724 197.224 Q 216.734 197.597 216.859 197.847 A 0.883 0.883 0 0 0 217.001 198.053 A 0.854 0.854 0 0 0 217.449 198.306 A 1.294 1.294 0 0 0 217.738 198.337 A 2.483 2.483 0 0 0 218.668 198.152 A 2.846 2.846 0 0 0 218.73 198.127 L 218.73 198.546 A 2.822 2.822 0 0 1 218.472 198.643 A 2.158 2.158 0 0 1 218.258 198.7 Q 218.036 198.747 217.721 198.747 A 1.827 1.827 0 0 1 217.264 198.693 A 1.294 1.294 0 0 1 216.635 198.328 A 1.384 1.384 0 0 1 216.304 197.72 Q 216.237 197.47 216.237 197.164 A 2.469 2.469 0 0 1 216.283 196.675 Q 216.343 196.377 216.483 196.146 A 1.392 1.392 0 0 1 216.607 195.972 A 1.205 1.205 0 0 1 217.485 195.534 A 1.662 1.662 0 0 1 217.6 195.53 A 1.432 1.432 0 0 1 218.003 195.584 A 1.09 1.09 0 0 1 218.523 195.914 A 1.314 1.314 0 0 1 218.821 196.514 A 1.913 1.913 0 0 1 218.863 196.926 Z M 223.057 198.303 L 223.057 198.662 A 0.462 0.462 0 0 1 223.002 198.684 Q 222.944 198.703 222.86 198.718 A 1.757 1.757 0 0 1 222.832 198.723 Q 222.683 198.747 222.564 198.747 A 1.228 1.228 0 0 1 222.202 198.698 Q 221.664 198.532 221.664 197.798 L 221.664 195.952 L 221.219 195.952 L 221.219 195.725 L 221.664 195.53 L 221.862 194.867 L 222.134 194.867 L 222.134 195.587 L 223.034 195.587 L 223.034 195.952 L 222.134 195.952 L 222.134 197.779 Q 222.134 198.059 222.267 198.209 A 0.437 0.437 0 0 0 222.535 198.352 A 0.628 0.628 0 0 0 222.632 198.359 A 1.544 1.544 0 0 0 222.858 198.343 A 1.421 1.421 0 0 0 222.873 198.341 Q 222.989 198.322 223.057 198.303 Z M 215.413 194.284 L 215.413 198.691 L 214.943 198.691 L 214.943 194.284 L 215.413 194.284 Z M 216.736 196.841 L 218.359 196.841 A 1.602 1.602 0 0 0 218.339 196.584 Q 218.317 196.446 218.268 196.335 A 0.727 0.727 0 0 0 218.16 196.16 A 0.644 0.644 0 0 0 217.772 195.939 A 0.966 0.966 0 0 0 217.594 195.924 A 0.927 0.927 0 0 0 217.326 195.96 A 0.716 0.716 0 0 0 216.998 196.167 A 0.929 0.929 0 0 0 216.813 196.479 Q 216.766 196.607 216.745 196.761 A 1.776 1.776 0 0 0 216.736 196.841 Z" id="left_labelLayer" stroke="#777777" fill="#777777" style="stroke:#777777;fill:#777777" vector-effect="non-scaling-stroke"/><path d="M 276 109 L 276 116.335 L 274 116.335 L 274 128.525 L 276 128.525 L 276 140.715 L 274 140.715 L 274 152.905 L 276 152.905 L 276 165.095 L 274 165.095 L 274 177.285 L 276 177.285 L 276 189.475 L 274 189.475 L 274 201.665 L 276 201.665 L 276 209 L 288.955 209 L 288.955 211 L 301.145 211 L 301.145 209 L 313.335 209 L 313.335 211 L 325.525 211 L 325.525 209 L 337.715 209 L 337.715 211 L 349.905 211 L 349.905 209 L 362.095 209 L 362.095 211 L 374.285 211 L 374.285 209 L 386.475 209 L 386.475 211 L 398.665 211 L 398.665 209 L 410.855 209 L 410.855 211 L 423.045 211 L 423.045 209 L 436 209 L 436 201.665 L 438 201.665 L 438 189.475 L 436 189.475 L 436 177.285 L 438 177.285 L 438 165.095 L 436 165.095 L 436 152.905 L 438 152.905 L 438 140.715 L 436 140.715 L 436 128.525 L 438 128.525 L 438 116.335 L 436 116.335 L 436 109 L 423.045 109 L 423.045 107 L 410.855 107 L 410.855 109 L 398.665 109 L 398.665 107 L 386.475 107 L 386.475 109 L 374.285 109 L 374.285 107 L 362.095 107 L 362.095 109 L 349.905 109 L 349.905 107 L 337.715 107 L 337.715 109 L 325.525 109 L 325.525 107 L 313.335 107 L 313.335 109 L 301.145 109 L 301.145 107 L 288.955 107 L 288.955 109 L 276 109 Z" id="top_outsideCutPath" stroke="#FF0000" stroke-width="0.2" style="stroke:#FF0000;stroke-width:0.2" vector-effect="non-scaling-stroke"/><path d="M 363.475 161.925 L 363.353 161.925 A 15.955 15.955 0 0 1 363.458 163.104 A 13.37 13.37 0 0 1 363.475 163.773 L 363.475 168.354 L 361.789 168.354 L 361.789 152.226 L 363.16 152.226 L 363.394 153.749 L 363.475 153.749 A 4.538 4.538 0 0 1 364.131 153.004 A 3.509 3.509 0 0 1 364.988 152.429 A 4.222 4.222 0 0 1 366.198 152.075 A 5.465 5.465 0 0 1 366.969 152.023 A 5.168 5.168 0 0 1 368.429 152.218 A 3.82 3.82 0 0 1 370.386 153.536 A 5.062 5.062 0 0 1 371.25 155.222 Q 371.473 155.949 371.55 156.824 A 10.978 10.978 0 0 1 371.59 157.781 Q 371.59 159.716 370.98 161.042 A 4.739 4.739 0 0 1 370.366 162.042 Q 369.142 163.56 366.969 163.56 A 5.114 5.114 0 0 1 365.684 163.403 A 4.449 4.449 0 0 1 364.983 163.159 A 3.734 3.734 0 0 1 363.475 161.925 Z M 347.001 161.966 L 347.001 163.255 A 1.658 1.658 0 0 1 346.805 163.334 Q 346.561 163.414 346.194 163.474 Q 345.696 163.554 345.291 163.56 A 4.32 4.32 0 0 1 345.234 163.56 Q 342.005 163.56 342.005 160.158 L 342.005 153.536 L 340.41 153.536 L 340.41 152.723 L 342.005 152.023 L 342.716 149.646 L 343.691 149.646 L 343.691 152.226 L 346.92 152.226 L 346.92 153.536 L 343.691 153.536 L 343.691 160.087 A 3.395 3.395 0 0 0 343.74 160.683 Q 343.798 161.01 343.926 161.269 A 1.635 1.635 0 0 0 344.168 161.63 Q 344.645 162.169 345.478 162.169 A 5.537 5.537 0 0 0 346.289 162.111 A 5.102 5.102 0 0 0 346.341 162.103 Q 346.739 162.04 346.979 161.972 A 2.535 2.535 0 0 0 347.001 161.966 Z M 357.462 162.032 A 4.703 4.703 0 0 0 358.022 161.262 Q 358.834 159.875 358.834 157.781 Q 358.834 156.699 358.604 155.8 A 5.25 5.25 0 0 0 357.457 153.577 Q 356.081 152.023 353.745 152.023 A 6.548 6.548 0 0 0 352.569 152.124 A 4.459 4.459 0 0 0 349.967 153.541 A 4.658 4.658 0 0 0 349.395 154.334 Q 348.954 155.102 348.76 156.088 A 8.754 8.754 0 0 0 348.606 157.781 A 8.434 8.434 0 0 0 348.712 159.147 A 6.237 6.237 0 0 0 349.236 160.848 A 5.541 5.541 0 0 0 349.359 161.089 A 4.564 4.564 0 0 0 351.023 162.859 A 4.694 4.694 0 0 0 352.101 163.339 A 5.414 5.414 0 0 0 353.674 163.56 Q 356.091 163.56 357.462 162.032 Z M 350.712 160.122 A 3.537 3.537 0 0 0 351.206 161.031 A 2.763 2.763 0 0 0 353.006 162.091 A 4.187 4.187 0 0 0 353.715 162.148 A 3.916 3.916 0 0 0 354.748 162.02 A 2.725 2.725 0 0 0 356.228 161.036 Q 356.867 160.209 357.03 158.812 A 8.881 8.881 0 0 0 357.087 157.781 A 8.412 8.412 0 0 0 357.007 156.583 Q 356.919 155.972 356.733 155.478 A 3.471 3.471 0 0 0 356.228 154.557 A 2.773 2.773 0 0 0 354.504 153.528 A 4.252 4.252 0 0 0 353.694 153.455 A 4.012 4.012 0 0 0 352.696 153.572 A 2.685 2.685 0 0 0 351.196 154.541 A 3.486 3.486 0 0 0 350.654 155.589 Q 350.353 156.494 350.353 157.781 Q 350.353 159.165 350.712 160.122 Z M 363.475 157.405 L 363.475 157.781 A 11.147 11.147 0 0 0 363.53 158.933 Q 363.651 160.096 364.039 160.803 A 2.543 2.543 0 0 0 364.257 161.138 A 2.446 2.446 0 0 0 365.498 161.975 Q 365.912 162.105 366.418 162.138 A 5.421 5.421 0 0 0 366.766 162.148 A 2.841 2.841 0 0 0 367.87 161.941 Q 368.552 161.656 369.025 160.98 A 4.076 4.076 0 0 0 369.584 159.789 Q 369.843 158.915 369.843 157.761 Q 369.843 156.395 369.491 155.446 A 3.574 3.574 0 0 0 369.025 154.567 A 2.623 2.623 0 0 0 367.107 153.474 A 3.627 3.627 0 0 0 366.725 153.455 A 4.858 4.858 0 0 0 365.817 153.534 Q 364.798 153.728 364.257 154.399 Q 363.495 155.344 363.475 157.405 Z" id="top_labelLayer" stroke="#777777" fill="#777777" style="stroke:#777777;fill:#777777" vector-effect="non-scaling-stroke"/><path d="M 0 150 L 0 158.405 L 2 158.405 L 2 170.595 L 0 170.595 L 0 179 L 14.955 179 L 14.955 177 L 27.145 177 L 27.145 179 L 39.335 179 L 39.335 177 L 51.525 177 L 51.525 179 L 63.715 179 L 63.715 177 L 75.905 177 L 75.905 179 L 88.095 179 L 88.095 177 L 100.285 177 L 100.285 179 L 112.475 179 L 112.475 177 L 124.665 177 L 124.665 179 L 136.855 179 L 136.855 177 L 149.045 177 L 149.045 179 L 164 179 L 164 170.595 L 162 170.595 L 162 158.405 L 164 158.405 L 164 150 L 149.045 150 L 149.045 152 L 136.855 152 L 136.855 150 L 124.665 150 L 124.665 152 L 112.475 152 L 112.475 150 L 100.285 150 L 100.285 152 L 88.095 152 L 88.095 150 L 75.905 150 L 75.905 152 L 63.715 152 L 63.715 150 L 51.525 150 L 51.525 152 L 39.335 152 L 39.335 150 L 27.145 150 L 27.145 152 L 14.955 152 L 14.955 150 L 0 150 Z" id="back_outsideCutPath" stroke="#FF0000" stroke-width="0.2" style="stroke:#FF0000;stroke-width:0.2" vector-effect="non-scaling-stroke"/><path d="M 85.971 165.086 L 85.993 165.086 A 2.783 2.783 0 0 1 86.062 164.993 Q 86.141 164.89 86.254 164.759 A 10.1 10.1 0 0 1 86.364 164.633 L 87.367 163.571 L 87.925 163.571 L 86.667 164.894 L 88.012 166.675 L 87.443 166.675 L 86.347 165.208 L 85.993 165.514 L 85.993 166.675 L 85.529 166.675 L 85.529 162.268 L 85.993 162.268 L 85.993 164.605 Q 85.993 164.758 85.971 165.074 A 20.768 20.768 0 0 1 85.971 165.086 Z M 76.458 166.276 L 76.424 166.276 L 76.325 166.675 L 75.988 166.675 L 75.988 162.268 L 76.458 162.268 L 76.458 163.339 A 9.802 9.802 0 0 1 76.452 163.67 Q 76.447 163.827 76.436 163.966 A 5.855 5.855 0 0 1 76.435 163.985 L 76.458 163.985 A 1.069 1.069 0 0 1 77.238 163.531 A 1.606 1.606 0 0 1 77.432 163.52 A 1.437 1.437 0 0 1 77.836 163.574 A 1.076 1.076 0 0 1 78.382 163.938 Q 78.653 164.272 78.707 164.829 A 3.018 3.018 0 0 1 78.721 165.12 A 2.756 2.756 0 0 1 78.684 165.584 Q 78.609 166.023 78.379 166.308 A 1.113 1.113 0 0 1 77.588 166.724 A 1.594 1.594 0 0 1 77.432 166.732 A 1.426 1.426 0 0 1 77.074 166.688 A 1.241 1.241 0 0 1 76.878 166.62 A 1.041 1.041 0 0 1 76.458 166.276 Z M 81.799 166.675 L 81.451 166.675 L 81.357 166.233 L 81.334 166.233 A 1.949 1.949 0 0 1 81.177 166.41 Q 81.092 166.493 81.007 166.551 A 0.866 0.866 0 0 1 80.871 166.628 A 1.084 1.084 0 0 1 80.648 166.699 Q 80.539 166.721 80.413 166.728 A 2.116 2.116 0 0 1 80.295 166.732 Q 79.926 166.732 79.684 166.579 A 0.81 0.81 0 0 1 79.572 166.494 A 0.773 0.773 0 0 1 79.338 166.086 A 1.183 1.183 0 0 1 79.31 165.817 A 0.813 0.813 0 0 1 79.772 165.049 Q 80.117 164.866 80.718 164.835 A 4.592 4.592 0 0 1 80.813 164.831 L 81.34 164.814 L 81.34 164.622 A 1.35 1.35 0 0 0 81.327 164.427 Q 81.295 164.206 81.183 164.082 A 0.477 0.477 0 0 0 80.987 163.955 Q 80.859 163.908 80.68 163.908 A 1.531 1.531 0 0 0 80.328 163.952 Q 80.166 163.99 79.991 164.062 A 3.148 3.148 0 0 0 79.802 164.146 L 79.658 163.786 A 2.168 2.168 0 0 1 80.076 163.614 A 2.467 2.467 0 0 1 80.161 163.591 A 2.177 2.177 0 0 1 80.709 163.52 A 1.986 1.986 0 0 1 81.011 163.542 Q 81.343 163.593 81.531 163.766 Q 81.799 164.013 81.799 164.557 L 81.799 166.675 Z M 84.838 163.676 L 84.693 164.075 Q 84.538 164.013 84.353 163.972 A 1.942 1.942 0 0 0 84.206 163.944 Q 84.11 163.931 84.028 163.931 A 1.043 1.043 0 0 0 83.604 164.01 Q 83.16 164.206 83.094 164.883 A 2.598 2.598 0 0 0 83.082 165.137 A 2.277 2.277 0 0 0 83.104 165.469 Q 83.154 165.805 83.313 166.015 A 0.747 0.747 0 0 0 83.796 166.304 A 1.137 1.137 0 0 0 83.997 166.321 A 1.968 1.968 0 0 0 84.539 166.242 A 2.43 2.43 0 0 0 84.792 166.154 L 84.792 166.57 Q 84.525 166.709 84.138 166.728 A 2.578 2.578 0 0 1 84.008 166.732 A 1.757 1.757 0 0 1 83.58 166.683 A 1.191 1.191 0 0 1 82.964 166.317 Q 82.645 165.958 82.602 165.343 A 2.843 2.843 0 0 1 82.595 165.143 A 2.594 2.594 0 0 1 82.635 164.671 Q 82.717 164.225 82.97 163.939 A 1.217 1.217 0 0 1 83.637 163.556 A 1.845 1.845 0 0 1 84.039 163.514 A 2.122 2.122 0 0 1 84.487 163.563 Q 84.708 163.61 84.835 163.674 A 0.719 0.719 0 0 1 84.838 163.676 Z M 77.364 163.914 A 1.321 1.321 0 0 0 77.108 163.937 Q 76.821 163.994 76.67 164.19 Q 76.458 164.466 76.458 165.12 A 3.108 3.108 0 0 0 76.473 165.441 Q 76.516 165.849 76.676 166.056 Q 76.871 166.309 77.278 166.335 A 1.512 1.512 0 0 0 77.375 166.338 A 0.937 0.937 0 0 0 77.641 166.302 A 0.676 0.676 0 0 0 78.021 166.022 A 1.079 1.079 0 0 0 78.155 165.733 Q 78.196 165.596 78.216 165.43 A 2.694 2.694 0 0 0 78.233 165.115 A 2.778 2.778 0 0 0 78.217 164.798 Q 78.177 164.452 78.043 164.243 A 0.78 0.78 0 0 0 78.021 164.211 A 0.686 0.686 0 0 0 77.585 163.935 A 1.087 1.087 0 0 0 77.364 163.914 Z M 81.329 165.429 L 81.329 165.149 L 80.859 165.168 Q 80.39 165.185 80.14 165.295 A 0.722 0.722 0 0 0 80.05 165.342 A 0.502 0.502 0 0 0 79.811 165.706 A 0.743 0.743 0 0 0 79.802 165.823 Q 79.802 166.047 79.922 166.177 A 0.419 0.419 0 0 0 79.957 166.211 Q 80.111 166.344 80.389 166.344 Q 80.768 166.344 81.007 166.164 A 0.785 0.785 0 0 0 81.078 166.103 A 0.787 0.787 0 0 0 81.298 165.71 Q 81.328 165.583 81.329 165.434 A 1.485 1.485 0 0 0 81.329 165.429 Z" id="back_labelLayer" stroke="#777777" fill="#777777" style="stroke:#777777;fill:#777777" vector-effect="non-scaling-stroke"/><path d="M 169 150 L 169 158.405 L 167 158.405 L 167 170.595 L 169 170.595 L 169 179 L 176.335 179 L 176.335 177 L 188.525 177 L 188.525 179 L 200.715 179 L 200.715 177 L 212.905 177 L 212.905 179 L 225.095 179 L 225.095 177 L 237.285 177 L 237.285 179 L 249.475 179 L 249.475 177 L 261.665 177 L 261.665 179 L 269 179 L 269 170.595 L 271 170.595 L 271 158.405 L 269 158.405 L 269 150 L 261.665 150 L 261.665 152 L 249.475 152 L 249.475 150 L 237.285 150 L 237.285 152 L 225.095 152 L 225.095 150 L 212.905 150 L 212.905 152 L 200.715 152 L 200.715 150 L 188.525 150 L 188.525 152 L 176.335 152 L 176.335 150 L 169 150 Z" id="right_outsideCutPath" stroke="#FF0000" stroke-width="0.2" style="stroke:#FF0000;stroke-width:0.2" vector-effect="non-scaling-stroke"/><path d="M 222.607 166.007 L 222.136 166.007 L 222.136 163.999 A 1.329 1.329 0 0 0 222.121 163.79 Q 222.085 163.564 221.964 163.432 Q 221.824 163.281 221.556 163.252 A 1.246 1.246 0 0 0 221.423 163.245 A 1.423 1.423 0 0 0 221.157 163.269 Q 221.009 163.297 220.896 163.359 A 0.658 0.658 0 0 0 220.708 163.512 A 0.782 0.782 0 0 0 220.575 163.747 Q 220.495 163.962 220.484 164.282 A 3.034 3.034 0 0 0 220.483 164.384 L 220.483 166.007 L 220.012 166.007 L 220.012 161.6 L 220.483 161.6 L 220.483 162.934 A 4.229 4.229 0 0 1 220.48 163.096 Q 220.474 163.232 220.46 163.333 L 220.488 163.333 A 0.939 0.939 0 0 1 220.817 163.016 A 1.147 1.147 0 0 1 220.883 162.981 A 1.207 1.207 0 0 1 221.279 162.863 A 1.526 1.526 0 0 1 221.468 162.852 A 1.907 1.907 0 0 1 221.789 162.877 Q 222.124 162.934 222.322 163.122 A 0.819 0.819 0 0 1 222.524 163.439 Q 222.572 163.571 222.592 163.735 A 2.033 2.033 0 0 1 222.607 163.982 L 222.607 166.007 Z M 218.302 162.903 L 219.375 162.903 L 219.375 163.2 L 218.8 163.268 A 0.764 0.764 0 0 1 218.866 163.366 Q 218.896 163.417 218.922 163.478 A 1.449 1.449 0 0 1 218.942 163.527 A 0.904 0.904 0 0 1 218.995 163.743 A 1.161 1.161 0 0 1 219.004 163.888 A 1.078 1.078 0 0 1 218.955 164.222 A 0.872 0.872 0 0 1 218.693 164.616 Q 218.381 164.888 217.837 164.888 A 1.511 1.511 0 0 1 217.663 164.878 A 1.276 1.276 0 0 1 217.577 164.865 Q 217.406 164.956 217.332 165.073 A 0.354 0.354 0 0 0 217.277 165.265 Q 217.277 165.388 217.375 165.449 A 0.261 0.261 0 0 0 217.381 165.453 A 0.33 0.33 0 0 0 217.455 165.483 Q 217.56 165.514 217.741 165.514 L 218.291 165.514 Q 218.627 165.514 218.859 165.608 A 0.85 0.85 0 0 1 219.065 165.726 Q 219.336 165.939 219.336 166.344 A 1.018 1.018 0 0 1 219.277 166.696 Q 219.181 166.96 218.922 167.13 A 1.41 1.41 0 0 1 218.559 167.294 Q 218.211 167.4 217.716 167.4 A 2.634 2.634 0 0 1 217.362 167.378 Q 217.004 167.329 216.777 167.173 A 0.749 0.749 0 0 1 216.535 166.911 Q 216.447 166.747 216.447 166.533 A 0.719 0.719 0 0 1 216.628 166.043 Q 216.809 165.837 217.138 165.763 Q 217.019 165.709 216.938 165.596 Q 216.858 165.483 216.858 165.333 A 0.538 0.538 0 0 1 216.885 165.159 A 0.476 0.476 0 0 1 216.948 165.035 A 0.673 0.673 0 0 1 217.037 164.935 Q 217.084 164.891 217.145 164.847 A 1.477 1.477 0 0 1 217.234 164.789 A 0.824 0.824 0 0 1 216.876 164.502 A 1.022 1.022 0 0 1 216.842 164.452 A 0.972 0.972 0 0 1 216.693 163.983 A 1.186 1.186 0 0 1 216.69 163.908 A 1.358 1.358 0 0 1 216.726 163.587 A 0.894 0.894 0 0 1 216.996 163.122 A 0.998 0.998 0 0 1 217.38 162.911 Q 217.532 162.864 217.715 162.851 A 2.076 2.076 0 0 1 217.863 162.846 A 1.802 1.802 0 0 1 218.101 162.861 A 1.372 1.372 0 0 1 218.302 162.903 Z M 225 165.619 L 225 165.978 A 0.462 0.462 0 0 1 224.945 166 Q 224.886 166.019 224.803 166.034 A 1.757 1.757 0 0 1 224.775 166.039 Q 224.626 166.063 224.507 166.063 A 1.228 1.228 0 0 1 224.145 166.015 Q 223.606 165.848 223.606 165.115 L 223.606 163.268 L 223.162 163.268 L 223.162 163.041 L 223.606 162.846 L 223.805 162.183 L 224.076 162.183 L 224.076 162.903 L 224.977 162.903 L 224.977 163.268 L 224.076 163.268 L 224.076 165.095 Q 224.076 165.375 224.21 165.525 A 0.437 0.437 0 0 0 224.478 165.668 A 0.628 0.628 0 0 0 224.575 165.675 A 1.544 1.544 0 0 0 224.801 165.659 A 1.421 1.421 0 0 0 224.816 165.657 Q 224.932 165.638 225 165.619 Z M 214.787 162.88 L 214.722 163.316 Q 214.53 163.274 214.382 163.274 A 0.815 0.815 0 0 0 213.781 163.534 A 1.115 1.115 0 0 0 213.738 163.58 A 1.074 1.074 0 0 0 213.479 164.182 A 1.427 1.427 0 0 0 213.47 164.341 L 213.47 166.007 L 213 166.007 L 213 162.903 L 213.388 162.903 L 213.442 163.478 L 213.465 163.478 A 1.588 1.588 0 0 1 213.642 163.224 A 1.213 1.213 0 0 1 213.881 163.01 Q 214.125 162.846 214.416 162.846 A 2.158 2.158 0 0 1 214.61 162.854 A 1.575 1.575 0 0 1 214.787 162.88 Z M 215.838 162.903 L 215.838 166.007 L 215.368 166.007 L 215.368 162.903 L 215.838 162.903 Z M 218.14 165.936 L 217.577 165.936 A 1.081 1.081 0 0 0 217.382 165.952 Q 217.198 165.986 217.078 166.089 A 0.495 0.495 0 0 0 216.916 166.37 A 0.752 0.752 0 0 0 216.9 166.528 Q 216.9 166.763 217.085 166.892 A 0.552 0.552 0 0 0 217.112 166.91 A 0.753 0.753 0 0 0 217.298 166.989 Q 217.472 167.04 217.717 167.04 A 2.334 2.334 0 0 0 217.721 167.04 A 3.16 3.16 0 0 0 218.03 167.026 Q 218.339 166.996 218.534 166.899 A 0.781 0.781 0 0 0 218.598 166.863 A 0.686 0.686 0 0 0 218.757 166.73 A 0.514 0.514 0 0 0 218.882 166.383 A 0.636 0.636 0 0 0 218.871 166.257 Q 218.84 166.105 218.727 166.034 A 0.446 0.446 0 0 0 218.621 165.987 Q 218.508 165.953 218.33 165.941 A 2.991 2.991 0 0 0 218.14 165.936 Z M 217.155 163.897 A 0.918 0.918 0 0 0 217.174 164.089 Q 217.199 164.208 217.26 164.298 A 0.503 0.503 0 0 0 217.339 164.39 A 0.608 0.608 0 0 0 217.584 164.522 Q 217.677 164.549 217.788 164.555 A 1.21 1.21 0 0 0 217.852 164.557 A 1.024 1.024 0 0 0 218.12 164.525 Q 218.427 164.441 218.509 164.14 A 0.952 0.952 0 0 0 218.54 163.888 A 1.011 1.011 0 0 0 218.505 163.611 Q 218.417 163.301 218.101 163.219 A 1.022 1.022 0 0 0 217.843 163.189 Q 217.512 163.189 217.333 163.367 A 0.564 0.564 0 0 0 217.197 163.597 Q 217.168 163.686 217.159 163.794 A 1.237 1.237 0 0 0 217.155 163.897 Z M 215.408 161.825 A 0.22 0.22 0 0 0 215.359 161.894 Q 215.328 161.961 215.328 162.062 Q 215.328 162.142 215.348 162.201 A 0.243 0.243 0 0 0 215.408 162.298 A 0.264 0.264 0 0 0 215.503 162.359 A 0.299 0.299 0 0 0 215.606 162.376 A 0.274 0.274 0 0 0 215.801 162.298 A 0.229 0.229 0 0 0 215.846 162.239 Q 215.866 162.2 215.876 162.151 A 0.486 0.486 0 0 0 215.883 162.062 A 0.538 0.538 0 0 0 215.881 162.011 Q 215.877 161.964 215.864 161.926 A 0.237 0.237 0 0 0 215.801 161.827 A 0.277 0.277 0 0 0 215.606 161.75 A 0.359 0.359 0 0 0 215.582 161.751 A 0.272 0.272 0 0 0 215.408 161.825 Z" id="right_labelLayer" stroke="#777777" fill="#777777" style="stroke:#777777;fill:#777777" vector-effect="non-scaling-stroke"/><path d="M 276 2 L 276 9.335 L 274 9.335 L 274 21.525 L 276 21.525 L 276 33.715 L 274 33.715 L 274 45.905 L 276 45.905 L 276 58.095 L 274 58.095 L 274 70.285 L 276 70.285 L 276 82.475 L 274 82.475 L 274 94.665 L 276 94.665 L 276 102 L 288.955 102 L 288.955 104 L 301.145 104 L 301.145 102 L 313.335 102 L 313.335 104 L 325.525 104 L 325.525 102 L 337.715 102 L 337.715 104 L 349.905 104 L 349.905 102 L 362.095 102 L 362.095 104 L 374.285 104 L 374.285 102 L 386.475 102 L 386.475 104 L 398.665 104 L 398.665 102 L 410.855 102 L 410.855 104 L 423.045 104 L 423.045 102 L 436 102 L 436 94.665 L 438 94.665 L 438 82.475 L 436 82.475 L 436 70.285 L 438 70.285 L 438 58.095 L 436 58.095 L 436 45.905 L 438 45.905 L 438 33.715 L 436 33.715 L 436 21.525 L 438 21.525 L 438 9.335 L 436 9.335 L 436 2 L 423.045 2 L 423.045 0 L 410.855 0 L 410.855 2 L 398.665 2 L 398.665 0 L 386.475 0 L 386.475 2 L 374.285 2 L 374.285 0 L 362.095 0 L 362.095 2 L 349.905 2 L 349.905 0 L 337.715 0 L 337.715 2 L 325.525 2 L 325.525 0 L 313.335 0 L 313.335 2 L 301.145 2 L 301.145 0 L 288.955 0 L 288.955 2 L 276 2 Z" id="bottom_outsideCutPath" stroke="#FF0000" stroke-width="0.2" style="stroke:#FF0000;stroke-width:0.2" vector-effect="non-scaling-stroke"/><path d="M 390.216 59.8 L 388.53 59.8 L 388.53 52.558 Q 388.53 51.228 387.962 50.563 A 1.774 1.774 0 0 0 387.137 50.029 Q 386.843 49.934 386.485 49.908 A 3.914 3.914 0 0 0 386.194 49.897 Q 385.091 49.897 384.391 50.342 A 2.233 2.233 0 0 0 383.869 50.801 Q 383.117 51.705 383.117 53.584 L 383.117 59.8 L 381.431 59.8 L 381.431 52.558 Q 381.431 51.228 380.862 50.563 A 1.768 1.768 0 0 0 380.049 50.034 Q 379.756 49.938 379.399 49.909 A 3.948 3.948 0 0 0 379.085 49.897 Q 377.979 49.897 377.287 50.36 A 2.21 2.21 0 0 0 376.764 50.847 A 2.827 2.827 0 0 0 376.345 51.643 Q 376.073 52.412 376.035 53.565 A 11.738 11.738 0 0 0 376.028 53.96 L 376.028 59.8 L 374.342 59.8 L 374.342 48.668 L 375.713 48.668 L 375.987 50.192 L 376.069 50.192 A 3.313 3.313 0 0 1 377.414 48.922 A 4.003 4.003 0 0 1 378.995 48.479 A 4.834 4.834 0 0 1 379.359 48.465 Q 381.969 48.465 382.772 50.354 L 382.853 50.354 Q 383.351 49.481 384.295 48.973 A 4.267 4.267 0 0 1 385.861 48.497 A 5.321 5.321 0 0 1 386.448 48.465 Q 387.722 48.465 388.564 48.906 A 2.778 2.778 0 0 1 389.277 49.435 Q 390.216 50.405 390.216 52.538 L 390.216 59.8 Z M 323.469 58.368 L 323.348 58.368 L 322.992 59.8 L 321.784 59.8 L 321.784 43.997 L 323.469 43.997 L 323.469 47.836 A 35.15 35.15 0 0 1 323.45 49.023 Q 323.431 49.585 323.393 50.085 A 21.045 21.045 0 0 1 323.388 50.151 L 323.469 50.151 A 3.833 3.833 0 0 1 326.267 48.526 A 5.758 5.758 0 0 1 326.963 48.486 A 5.153 5.153 0 0 1 328.413 48.679 A 3.857 3.857 0 0 1 330.371 49.984 A 4.968 4.968 0 0 1 331.242 51.662 Q 331.456 52.353 331.536 53.181 A 10.822 10.822 0 0 1 331.584 54.224 Q 331.584 56.159 330.975 57.485 A 4.739 4.739 0 0 1 330.36 58.485 Q 329.137 60.003 326.963 60.003 A 5.114 5.114 0 0 1 325.678 59.846 A 4.449 4.449 0 0 1 324.978 59.602 A 3.734 3.734 0 0 1 323.469 58.368 Z M 352.212 58.408 L 352.212 59.698 A 1.658 1.658 0 0 1 352.015 59.776 Q 351.771 59.857 351.404 59.917 Q 350.906 59.997 350.502 60.002 A 4.32 4.32 0 0 1 350.444 60.003 Q 347.215 60.003 347.215 56.601 L 347.215 49.979 L 345.62 49.979 L 345.62 49.166 L 347.215 48.465 L 347.926 46.089 L 348.901 46.089 L 348.901 48.668 L 352.13 48.668 L 352.13 49.979 L 348.901 49.979 L 348.901 56.529 A 3.395 3.395 0 0 0 348.95 57.126 Q 349.008 57.453 349.136 57.712 A 1.635 1.635 0 0 0 349.378 58.073 Q 349.855 58.611 350.688 58.611 A 5.537 5.537 0 0 0 351.499 58.553 A 5.102 5.102 0 0 0 351.552 58.545 Q 351.949 58.482 352.189 58.415 A 2.535 2.535 0 0 0 352.212 58.408 Z M 359.555 58.408 L 359.555 59.698 A 1.658 1.658 0 0 1 359.358 59.776 Q 359.114 59.857 358.747 59.917 Q 358.249 59.997 357.845 60.002 A 4.32 4.32 0 0 1 357.787 60.003 Q 354.558 60.003 354.558 56.601 L 354.558 49.979 L 352.963 49.979 L 352.963 49.166 L 354.558 48.465 L 355.269 46.089 L 356.244 46.089 L 356.244 48.668 L 359.473 48.668 L 359.473 49.979 L 356.244 49.979 L 356.244 56.529 A 3.395 3.395 0 0 0 356.293 57.126 Q 356.351 57.453 356.479 57.712 A 1.635 1.635 0 0 0 356.721 58.073 Q 357.198 58.611 358.031 58.611 A 5.537 5.537 0 0 0 358.842 58.553 A 5.102 5.102 0 0 0 358.894 58.545 Q 359.292 58.482 359.532 58.415 A 2.535 2.535 0 0 0 359.555 58.408 Z M 342.766 58.474 A 4.703 4.703 0 0 0 343.326 57.705 Q 344.137 56.317 344.137 54.224 Q 344.137 53.142 343.908 52.243 A 5.25 5.25 0 0 0 342.761 50.019 Q 341.385 48.465 339.049 48.465 A 6.548 6.548 0 0 0 337.873 48.566 A 4.459 4.459 0 0 0 335.271 49.984 A 4.658 4.658 0 0 0 334.699 50.777 Q 334.258 51.545 334.064 52.531 A 8.754 8.754 0 0 0 333.91 54.224 A 8.434 8.434 0 0 0 334.016 55.59 A 6.237 6.237 0 0 0 334.54 57.291 A 5.541 5.541 0 0 0 334.663 57.531 A 4.564 4.564 0 0 0 336.327 59.302 A 4.694 4.694 0 0 0 337.405 59.781 A 5.414 5.414 0 0 0 338.978 60.003 Q 341.395 60.003 342.766 58.474 Z M 370.016 58.474 A 4.703 4.703 0 0 0 370.576 57.705 Q 371.387 56.317 371.387 54.224 Q 371.387 53.142 371.157 52.243 A 5.25 5.25 0 0 0 370.01 50.019 Q 368.634 48.465 366.298 48.465 A 6.548 6.548 0 0 0 365.122 48.566 A 4.459 4.459 0 0 0 362.52 49.984 A 4.658 4.658 0 0 0 361.948 50.777 Q 361.507 51.545 361.313 52.531 A 8.754 8.754 0 0 0 361.159 54.224 A 8.434 8.434 0 0 0 361.265 55.59 A 6.237 6.237 0 0 0 361.789 57.291 A 5.541 5.541 0 0 0 361.912 57.531 A 4.564 4.564 0 0 0 363.577 59.302 A 4.694 4.694 0 0 0 364.654 59.781 A 5.414 5.414 0 0 0 366.227 60.003 Q 368.644 60.003 370.016 58.474 Z M 336.016 56.564 A 3.537 3.537 0 0 0 336.51 57.474 A 2.763 2.763 0 0 0 338.31 58.534 A 4.187 4.187 0 0 0 339.019 58.591 A 3.916 3.916 0 0 0 340.052 58.463 A 2.725 2.725 0 0 0 341.532 57.479 Q 342.171 56.652 342.334 55.255 A 8.881 8.881 0 0 0 342.391 54.224 A 8.412 8.412 0 0 0 342.311 53.025 Q 342.223 52.415 342.037 51.921 A 3.471 3.471 0 0 0 341.532 50.999 A 2.773 2.773 0 0 0 339.808 49.971 A 4.252 4.252 0 0 0 338.998 49.897 A 4.012 4.012 0 0 0 337.999 50.014 A 2.685 2.685 0 0 0 336.5 50.984 A 3.486 3.486 0 0 0 335.958 52.031 Q 335.657 52.937 335.657 54.224 Q 335.657 55.608 336.016 56.564 Z M 363.265 56.564 A 3.537 3.537 0 0 0 363.759 57.474 A 2.763 2.763 0 0 0 365.559 58.534 A 4.187 4.187 0 0 0 366.268 58.591 A 3.916 3.916 0 0 0 367.301 58.463 A 2.725 2.725 0 0 0 368.782 57.479 Q 369.42 56.652 369.583 55.255 A 8.881 8.881 0 0 0 369.64 54.224 A 8.412 8.412 0 0 0 369.56 53.025 Q 369.472 52.415 369.287 51.921 A 3.471 3.471 0 0 0 368.782 50.999 A 2.773 2.773 0 0 0 367.057 49.971 A 4.252 4.252 0 0 0 366.248 49.897 A 4.012 4.012 0 0 0 365.249 50.014 A 2.685 2.685 0 0 0 363.749 50.984 A 3.486 3.486 0 0 0 363.207 52.031 Q 362.906 52.937 362.906 54.224 Q 362.906 55.608 363.265 56.564 Z M 326.719 49.897 A 4.738 4.738 0 0 0 325.802 49.98 Q 325.279 50.083 324.882 50.316 A 2.242 2.242 0 0 0 324.231 50.888 A 2.886 2.886 0 0 0 323.813 51.683 Q 323.532 52.473 323.481 53.674 A 12.989 12.989 0 0 0 323.469 54.224 A 11.147 11.147 0 0 0 323.525 55.376 Q 323.646 56.539 324.034 57.246 A 2.543 2.543 0 0 0 324.252 57.581 A 2.446 2.446 0 0 0 325.492 58.418 Q 325.907 58.548 326.413 58.58 A 5.421 5.421 0 0 0 326.76 58.591 A 3.361 3.361 0 0 0 327.715 58.463 A 2.425 2.425 0 0 0 329.076 57.459 A 3.87 3.87 0 0 0 329.555 56.423 Q 329.705 55.931 329.775 55.335 A 9.66 9.66 0 0 0 329.837 54.204 A 9.961 9.961 0 0 0 329.777 53.069 Q 329.623 51.73 329.076 50.964 A 2.459 2.459 0 0 0 327.51 49.973 A 3.899 3.899 0 0 0 326.719 49.897 Z" id="bottom_labelLayer" stroke="#777777" fill="#777777" style="stroke:#777777;fill:#777777" vector-effect="non-scaling-stroke"/></g></svg>