<svg width="444mm" height="215mm" viewBox="0 0 444 215" xmlns="http://www.w3.org/2000/svg" version="1.1" preserveAspectRatio="xMidYMid meet"><g id="svgGroup" stroke-linecap="round" fill-rule="evenodd" font-size="9pt" stroke="#000" stroke-width="0.25mm" fill="none" style="stroke:#000;stroke-width:0.25mm;fill:none"><path d="M 0 184 L 0 193.403 L 3 193.403 L 3 205.598 L 0 205.598 L 0 215 L 15.927 215 L 15.927 212 L 28.122 212 L 28.122 215 L 40.317 215 L 40.317 212 L 52.512 212 L 52.512 215 L 64.708 215 L 64.708 212 L 76.903 212 L 76.903 215 L 89.098 215 L 89.098 212 L 101.292 212 L 101.292 215 L 113.488 215 L 113.488 212 L 125.683 212 L 125.683 215 L 137.878 215 L 137.878 212 L 150.073 212 L 150.073 215 L 162.267 215 L 166 215 L 166 205.598 L 163 205.598 L 163 193.403 L 166 193.403 L 166 184 L 150.073 184 L 150.073 187 L 137.878 187 L 137.878 184 L 125.683 184 L 125.683 187 L 113.488 187 L 113.488 184 L 101.293 184 L 101.293 187 L 89.098 187 L 89.098 184 L 76.903 184 L 76.903 187 L 64.708 187 L 64.708 184 L 52.513 184 L 52.513 187 L 40.318 187 L 40.318 184 L 28.123 184 L 28.123 187 L 15.928 187 L 15.928 184 L 3.733 184 L 0 184 Z" id="front_outsideCutPath" stroke="#FF0000" stroke-width="0.2" style="stroke:#FF0000;stroke-width:0.2" vector-effect="non-scaling-stroke"/><path d="M 87.518 201.842 L 87.016 201.842 L 87.016 199.695 A 1.421 1.421 0 0 0 86.999 199.472 Q 86.961 199.23 86.831 199.09 Q 86.646 198.89 86.253 198.89 A 1.521 1.521 0 0 0 85.968 198.915 Q 85.81 198.945 85.688 199.012 A 0.709 0.709 0 0 0 85.49 199.171 A 0.822 0.822 0 0 0 85.347 199.421 Q 85.261 199.65 85.25 199.992 A 3.219 3.219 0 0 0 85.248 200.101 L 85.248 201.842 L 84.745 201.842 L 84.745 198.524 L 85.154 198.524 L 85.236 198.978 L 85.26 198.978 A 1.018 1.018 0 0 1 85.658 198.615 A 1.224 1.224 0 0 1 85.693 198.598 Q 85.971 198.463 86.313 198.463 A 1.984 1.984 0 0 1 86.651 198.49 Q 86.834 198.521 86.978 198.59 A 0.903 0.903 0 0 1 87.216 198.752 Q 87.518 199.041 87.518 199.677 L 87.518 201.842 Z M 77.864 198.524 L 77.864 198.914 L 77.019 198.914 L 77.019 201.842 L 76.517 201.842 L 76.517 198.914 L 75.924 198.914 L 75.924 198.687 L 76.517 198.505 L 76.517 198.321 A 2.037 2.037 0 0 1 76.564 197.859 Q 76.712 197.23 77.313 197.121 A 1.527 1.527 0 0 1 77.586 197.098 A 1.618 1.618 0 0 1 77.815 197.115 Q 77.926 197.131 78.05 197.162 A 3.253 3.253 0 0 1 78.203 197.204 L 78.073 197.606 Q 77.867 197.54 77.703 197.52 A 1.081 1.081 0 0 0 77.577 197.512 A 0.678 0.678 0 0 0 77.413 197.531 A 0.435 0.435 0 0 0 77.156 197.702 Q 77.032 197.873 77.021 198.233 A 2.373 2.373 0 0 0 77.019 198.309 L 77.019 198.524 L 77.864 198.524 Z M 90.076 201.427 L 90.076 201.811 Q 90.003 201.847 89.866 201.871 A 1.877 1.877 0 0 1 89.836 201.876 A 2.178 2.178 0 0 1 89.694 201.895 Q 89.627 201.901 89.567 201.902 A 1.287 1.287 0 0 1 89.55 201.902 Q 88.587 201.902 88.587 200.888 L 88.587 198.914 L 88.112 198.914 L 88.112 198.672 L 88.587 198.463 L 88.799 197.755 L 89.09 197.755 L 89.09 198.524 L 90.052 198.524 L 90.052 198.914 L 89.09 198.914 L 89.09 200.867 A 1.012 1.012 0 0 0 89.104 201.044 Q 89.122 201.142 89.16 201.219 A 0.487 0.487 0 0 0 89.232 201.327 A 0.467 0.467 0 0 0 89.519 201.48 A 0.672 0.672 0 0 0 89.622 201.487 A 1.65 1.65 0 0 0 89.864 201.47 A 1.522 1.522 0 0 0 89.88 201.468 Q 90.004 201.448 90.076 201.427 Z M 80.38 198.499 L 80.31 198.966 A 2.215 2.215 0 0 0 80.151 198.936 Q 80.071 198.925 80.001 198.921 A 1.179 1.179 0 0 0 79.947 198.92 A 0.871 0.871 0 0 0 79.304 199.198 A 1.191 1.191 0 0 0 79.258 199.247 Q 78.972 199.574 78.972 200.062 L 78.972 201.842 L 78.47 201.842 L 78.47 198.524 L 78.884 198.524 L 78.942 199.138 L 78.966 199.138 A 1.697 1.697 0 0 1 79.156 198.867 A 1.296 1.296 0 0 1 79.411 198.639 A 1.002 1.002 0 0 1 79.983 198.463 A 2.307 2.307 0 0 1 80.19 198.472 A 1.684 1.684 0 0 1 80.38 198.499 Z M 83.456 201.447 A 1.402 1.402 0 0 0 83.623 201.217 Q 83.864 200.804 83.864 200.18 Q 83.864 199.389 83.454 198.926 A 1.316 1.316 0 0 0 82.843 198.532 A 1.689 1.689 0 0 0 82.348 198.463 A 1.952 1.952 0 0 0 81.997 198.493 A 1.329 1.329 0 0 0 81.221 198.916 Q 80.816 199.368 80.816 200.18 A 2.514 2.514 0 0 0 80.847 200.587 A 1.859 1.859 0 0 0 81.003 201.094 A 1.652 1.652 0 0 0 81.04 201.165 A 1.361 1.361 0 0 0 81.536 201.693 A 1.399 1.399 0 0 0 81.857 201.836 A 1.614 1.614 0 0 0 82.326 201.902 A 1.951 1.951 0 0 0 82.667 201.874 A 1.34 1.34 0 0 0 83.456 201.447 Z M 81.336 200.18 A 2.545 2.545 0 0 0 81.361 200.543 Q 81.387 200.728 81.444 200.877 A 1.054 1.054 0 0 0 81.591 201.148 A 0.824 0.824 0 0 0 82.127 201.464 A 1.248 1.248 0 0 0 82.339 201.481 A 1.167 1.167 0 0 0 82.646 201.443 A 0.812 0.812 0 0 0 83.088 201.15 Q 83.344 200.818 83.344 200.18 A 2.507 2.507 0 0 0 83.32 199.822 Q 83.294 199.64 83.238 199.493 A 1.035 1.035 0 0 0 83.088 199.218 A 0.827 0.827 0 0 0 82.574 198.912 A 1.267 1.267 0 0 0 82.332 198.89 Q 81.839 198.89 81.588 199.214 Q 81.407 199.447 81.356 199.845 A 2.656 2.656 0 0 0 81.336 200.18 Z" id="front_labelLayer" stroke="#777777" fill="#777777" style="stroke:#777777;fill:#777777" vector-effect="non-scaling-stroke"/><path d="M 172 184 L 172 193.403 L 169 193.403 L 169 205.598 L 172 205.598 L 172 215 L 179.318 215 L 179.318 212 L 191.513 212 L 191.513 215 L 203.707 215 L 203.707 212 L 215.903 212 L 215.903 215 L 228.098 215 L 228.098 212 L 240.293 212 L 240.293 215 L 252.488 215 L 252.488 212 L 264.683 212 L 264.683 215 L 272 215 L 272 205.598 L 275 205.598 L 275 193.403 L 272 193.403 L 272 184 L 264.683 184 L 264.683 187 L 252.488 187 L 252.488 184 L 240.293 184 L 240.293 187 L 228.098 187 L 228.098 184 L 215.903 184 L 215.903 187 L 203.708 187 L 203.708 184 L 191.513 184 L 191.513 187 L 179.318 187 L 179.318 184 L 172 184 Z" id="left_outsideCutPath" stroke="#FF0000" stroke-width="0.2" style="stroke:#FF0000;stroke-width:0.2" vector-effect="non-scaling-stroke"/><path d="M 224.205 198.524 L 224.205 198.914 L 223.361 198.914 L 223.361 201.842 L 222.858 201.842 L 222.858 198.914 L 222.265 198.914 L 222.265 198.687 L 222.858 198.505 L 222.858 198.321 A 2.037 2.037 0 0 1 222.906 197.859 Q 223.053 197.23 223.655 197.121 A 1.527 1.527 0 0 1 223.927 197.098 A 1.618 1.618 0 0 1 224.156 197.115 Q 224.267 197.131 224.391 197.162 A 3.253 3.253 0 0 1 224.544 197.204 L 224.414 197.606 Q 224.208 197.54 224.044 197.52 A 1.081 1.081 0 0 0 223.918 197.512 A 0.678 0.678 0 0 0 223.754 197.531 A 0.435 0.435 0 0 0 223.497 197.702 Q 223.373 197.873 223.362 198.233 A 2.373 2.373 0 0 0 223.361 198.309 L 223.361 198.524 L 224.205 198.524 Z M 221.853 199.956 L 221.853 200.273 L 219.568 200.273 A 2.017 2.017 0 0 0 219.603 200.611 Q 219.639 200.795 219.712 200.94 A 0.944 0.944 0 0 0 219.863 201.16 A 0.913 0.913 0 0 0 220.342 201.431 A 1.384 1.384 0 0 0 220.651 201.463 A 2.654 2.654 0 0 0 221.645 201.266 A 3.043 3.043 0 0 0 221.711 201.239 L 221.711 201.687 Q 221.444 201.802 221.207 201.852 A 2.11 2.11 0 0 1 220.998 201.885 Q 220.894 201.896 220.778 201.9 A 4.094 4.094 0 0 1 220.633 201.902 A 1.953 1.953 0 0 1 220.144 201.844 A 1.383 1.383 0 0 1 219.472 201.454 A 1.479 1.479 0 0 1 219.118 200.804 Q 219.057 200.574 219.048 200.301 A 2.871 2.871 0 0 1 219.047 200.21 A 2.639 2.639 0 0 1 219.096 199.687 Q 219.186 199.242 219.442 198.935 A 1.288 1.288 0 0 1 220.38 198.467 A 1.777 1.777 0 0 1 220.503 198.463 A 1.531 1.531 0 0 1 220.934 198.521 A 1.165 1.165 0 0 1 221.49 198.873 Q 221.853 199.283 221.853 199.956 Z M 226.337 201.427 L 226.337 201.811 Q 226.263 201.847 226.126 201.871 A 1.877 1.877 0 0 1 226.096 201.876 A 2.178 2.178 0 0 1 225.954 201.895 Q 225.887 201.901 225.827 201.902 A 1.287 1.287 0 0 1 225.81 201.902 Q 224.847 201.902 224.847 200.888 L 224.847 198.914 L 224.372 198.914 L 224.372 198.672 L 224.847 198.463 L 225.059 197.755 L 225.35 197.755 L 225.35 198.524 L 226.312 198.524 L 226.312 198.914 L 225.35 198.914 L 225.35 200.867 A 1.012 1.012 0 0 0 225.364 201.044 Q 225.382 201.142 225.42 201.219 A 0.487 0.487 0 0 0 225.492 201.327 A 0.467 0.467 0 0 0 225.779 201.48 A 0.672 0.672 0 0 0 225.883 201.487 A 1.65 1.65 0 0 0 226.124 201.47 A 1.522 1.522 0 0 0 226.14 201.468 Q 226.264 201.448 226.337 201.427 Z M 218.166 197.131 L 218.166 201.842 L 217.663 201.842 L 217.663 197.131 L 218.166 197.131 Z M 219.58 199.865 L 221.314 199.865 A 1.712 1.712 0 0 0 221.294 199.589 Q 221.248 199.31 221.102 199.137 Q 220.89 198.884 220.497 198.884 A 0.991 0.991 0 0 0 220.211 198.923 A 0.765 0.765 0 0 0 219.86 199.144 A 0.993 0.993 0 0 0 219.662 199.477 Q 219.6 199.649 219.58 199.865 Z" id="left_labelLayer" stroke="#777777" fill="#777777" style="stroke:#777777;fill:#777777" vector-effect="non-scaling-stroke"/><path d="M 281 112 L 281 119.318 L 278 119.318 L 278 131.513 L 281 131.513 L 281 143.707 L 278 143.707 L 278 155.903 L 281 155.903 L 281 168.098 L 278 168.098 L 278 180.293 L 281 180.293 L 281 192.488 L 278 192.488 L 278 204.683 L 281 204.683 L 281 212 L 293.928 212 L 293.928 215 L 306.123 215 L 306.123 212 L 318.318 212 L 318.318 215 L 330.513 215 L 330.513 212 L 342.708 212 L 342.708 215 L 354.903 215 L 354.903 212 L 367.097 212 L 367.097 215 L 379.293 215 L 379.293 212 L 391.488 212 L 391.488 215 L 403.683 215 L 403.683 212 L 415.878 212 L 415.878 215 L 428.073 215 L 428.073 212 L 440.268 212 L 441 212 L 441 204.683 L 444 204.683 L 444 192.488 L 441 192.488 L 441 180.293 L 444 180.293 L 444 168.098 L 441 168.098 L 441 155.903 L 444 155.903 L 444 143.708 L 441 143.708 L 441 131.513 L 444 131.513 L 444 119.318 L 441 119.318 L 441 112 L 428.073 112 L 428.073 109 L 415.878 109 L 415.878 112 L 403.683 112 L 403.683 109 L 391.488 109 L 391.488 112 L 379.293 112 L 379.293 109 L 367.098 109 L 367.098 112 L 354.903 112 L 354.903 109 L 342.708 109 L 342.708 112 L 330.513 112 L 330.513 109 L 318.318 109 L 318.318 112 L 306.123 112 L 306.123 109 L 293.928 109 L 293.928 112 L 281.733 112 L 281 112 Z" id="top_outsideCutPath" stroke="#FF0000" stroke-width="0.2" style="stroke:#FF0000;stroke-width:0.2" vector-effect="non-scaling-stroke"/><path d="M 368.619 164.981 L 368.494 164.981 A 16.262 16.262 0 0 1 368.601 166.183 A 13.627 13.627 0 0 1 368.619 166.865 L 368.619 171.534 L 366.9 171.534 L 366.9 155.096 L 368.298 155.096 L 368.536 156.648 L 368.619 156.648 A 4.625 4.625 0 0 1 369.288 155.889 A 3.577 3.577 0 0 1 370.161 155.303 A 4.303 4.303 0 0 1 371.395 154.942 A 5.57 5.57 0 0 1 372.18 154.888 A 5.267 5.267 0 0 1 373.668 155.087 A 3.893 3.893 0 0 1 375.663 156.431 A 5.16 5.16 0 0 1 376.543 158.15 Q 376.771 158.891 376.849 159.782 A 11.19 11.19 0 0 1 376.89 160.758 A 10.075 10.075 0 0 1 376.756 162.453 Q 376.602 163.356 376.268 164.081 A 4.83 4.83 0 0 1 375.642 165.1 A 4.068 4.068 0 0 1 372.751 166.621 A 5.828 5.828 0 0 1 372.18 166.648 A 5.212 5.212 0 0 1 370.87 166.488 A 4.535 4.535 0 0 1 370.156 166.239 Q 369.24 165.83 368.619 164.981 Z M 351.828 165.023 L 351.828 166.337 Q 351.549 166.472 351.005 166.56 Q 350.462 166.648 350.027 166.648 A 4.488 4.488 0 0 1 348.705 166.47 Q 347.251 166.021 346.87 164.442 A 5.401 5.401 0 0 1 346.735 163.18 L 346.735 156.431 L 345.11 156.431 L 345.11 155.603 L 346.735 154.888 L 347.46 152.466 L 348.454 152.466 L 348.454 155.096 L 351.746 155.096 L 351.746 156.431 L 348.454 156.431 L 348.454 163.108 A 3.46 3.46 0 0 0 348.504 163.715 Q 348.61 164.308 348.94 164.681 A 1.596 1.596 0 0 0 349.922 165.203 A 2.297 2.297 0 0 0 350.276 165.23 Q 350.731 165.23 351.156 165.162 Q 351.561 165.098 351.805 165.029 A 2.58 2.58 0 0 0 351.828 165.023 Z M 363.73 162.484 A 8.876 8.876 0 0 0 363.888 160.758 A 10.085 10.085 0 0 0 363.884 160.485 Q 363.859 159.54 363.654 158.738 A 5.351 5.351 0 0 0 362.485 156.472 Q 361.083 154.888 358.702 154.888 A 6.674 6.674 0 0 0 357.503 154.991 A 4.545 4.545 0 0 0 354.851 156.436 Q 353.93 157.464 353.621 159.032 A 8.922 8.922 0 0 0 353.464 160.758 A 8.596 8.596 0 0 0 353.572 162.15 A 6.357 6.357 0 0 0 354.106 163.884 A 5.648 5.648 0 0 0 354.231 164.129 A 4.652 4.652 0 0 0 355.928 165.934 A 4.785 4.785 0 0 0 357.026 166.422 A 5.518 5.518 0 0 0 358.629 166.648 Q 361.093 166.648 362.491 165.09 A 4.794 4.794 0 0 0 363.061 164.306 Q 363.527 163.509 363.73 162.484 Z M 355.244 160.758 A 8.702 8.702 0 0 0 355.327 162.001 Q 355.419 162.632 355.611 163.143 A 3.605 3.605 0 0 0 356.114 164.07 A 2.816 2.816 0 0 0 357.948 165.151 A 4.268 4.268 0 0 0 358.671 165.209 A 3.991 3.991 0 0 0 359.724 165.078 A 2.778 2.778 0 0 0 361.233 164.075 Q 362.108 162.942 362.108 160.758 Q 362.108 159.37 361.748 158.41 A 3.538 3.538 0 0 0 361.233 157.471 A 2.827 2.827 0 0 0 359.475 156.423 A 4.334 4.334 0 0 0 358.65 156.348 A 4.089 4.089 0 0 0 357.632 156.467 A 2.737 2.737 0 0 0 356.104 157.456 Q 355.485 158.253 355.312 159.614 A 9.08 9.08 0 0 0 355.244 160.758 Z M 368.619 160.375 L 368.619 160.758 Q 368.619 162.789 369.194 163.838 A 2.592 2.592 0 0 0 369.416 164.179 Q 370.13 165.102 371.619 165.198 A 5.525 5.525 0 0 0 371.973 165.209 A 2.895 2.895 0 0 0 373.098 164.998 Q 373.794 164.707 374.276 164.019 Q 375.109 162.828 375.109 160.737 Q 375.109 159.345 374.75 158.378 A 3.643 3.643 0 0 0 374.276 157.482 A 2.673 2.673 0 0 0 372.321 156.368 A 3.697 3.697 0 0 0 371.931 156.348 Q 370.815 156.348 370.096 156.745 A 2.271 2.271 0 0 0 369.416 157.311 Q 368.689 158.212 368.624 160.111 A 10.936 10.936 0 0 0 368.619 160.375 Z" id="top_labelLayer" stroke="#777777" fill="#777777" style="stroke:#777777;fill:#777777" vector-effect="non-scaling-stroke"/><path d="M 0 150 L 0 159.403 L 3 159.403 L 3 171.598 L 0 171.598 L 0 181 L 15.927 181 L 15.927 178 L 28.122 178 L 28.122 181 L 40.317 181 L 40.317 178 L 52.512 178 L 52.512 181 L 64.708 181 L 64.708 178 L 76.903 178 L 76.903 181 L 89.098 181 L 89.098 178 L 101.292 178 L 101.292 181 L 113.488 181 L 113.488 178 L 125.683 178 L 125.683 181 L 137.878 181 L 137.878 178 L 150.073 178 L 150.073 181 L 162.267 181 L 166 181 L 166 171.598 L 163 171.598 L 163 159.403 L 166 159.403 L 166 150 L 150.073 150 L 150.073 153 L 137.878 153 L 137.878 150 L 125.683 150 L 125.683 153 L 113.488 153 L 113.488 150 L 101.293 150 L 101.293 153 L 89.098 153 L 89.098 150 L 76.903 150 L 76.903 153 L 64.708 153 L 64.708 150 L 52.513 150 L 52.513 153 L 40.318 153 L 40.318 150 L 28.123 150 L 28.123 153 L 15.928 153 L 15.928 150 L 3.733 150 L 0 150 Z" id="back_outsideCutPath" stroke="#FF0000" stroke-width="0.2" style="stroke:#FF0000;stroke-width:0.2" vector-effect="non-scaling-stroke"/><path d="M 87.244 166.127 L 87.269 166.127 A 2.975 2.975 0 0 1 87.342 166.027 Q 87.465 165.867 87.665 165.642 L 88.737 164.507 L 89.333 164.507 L 87.989 165.921 L 89.427 167.825 L 88.819 167.825 L 87.647 166.257 L 87.269 166.584 L 87.269 167.825 L 86.772 167.825 L 86.772 163.114 L 87.269 163.114 L 87.269 165.612 Q 87.269 165.775 87.245 166.114 A 20.523 20.523 0 0 1 87.244 166.127 Z M 77.075 167.398 L 77.039 167.398 L 76.933 167.825 L 76.573 167.825 L 76.573 163.114 L 77.075 163.114 L 77.075 164.259 A 10.478 10.478 0 0 1 77.07 164.613 Q 77.064 164.78 77.053 164.929 A 6.259 6.259 0 0 1 77.051 164.949 L 77.075 164.949 A 1.143 1.143 0 0 1 77.909 164.465 A 1.716 1.716 0 0 1 78.117 164.453 A 1.536 1.536 0 0 1 78.549 164.51 A 1.15 1.15 0 0 1 79.133 164.899 A 1.481 1.481 0 0 1 79.392 165.399 Q 79.456 165.605 79.48 165.852 A 3.226 3.226 0 0 1 79.494 166.163 Q 79.494 166.98 79.13 167.433 A 1.19 1.19 0 0 1 78.284 167.878 A 1.704 1.704 0 0 1 78.117 167.886 A 1.524 1.524 0 0 1 77.734 167.839 A 1.326 1.326 0 0 1 77.525 167.766 Q 77.257 167.646 77.075 167.398 Z M 82.785 167.825 L 82.413 167.825 L 82.313 167.353 L 82.289 167.353 A 2.083 2.083 0 0 1 82.12 167.541 Q 82.029 167.631 81.939 167.693 A 0.926 0.926 0 0 1 81.794 167.775 A 1.159 1.159 0 0 1 81.554 167.851 Q 81.438 167.875 81.304 167.882 A 2.261 2.261 0 0 1 81.178 167.886 A 1.542 1.542 0 0 1 80.864 167.856 Q 80.672 167.816 80.525 167.723 A 0.865 0.865 0 0 1 80.404 167.631 A 0.826 0.826 0 0 1 80.155 167.196 A 1.264 1.264 0 0 1 80.124 166.908 A 0.87 0.87 0 0 1 80.619 166.087 Q 81.016 165.876 81.732 165.854 L 82.295 165.836 L 82.295 165.63 Q 82.295 165.24 82.127 165.053 Q 81.959 164.867 81.589 164.867 Q 81.175 164.867 80.651 165.122 L 80.496 164.737 A 2.317 2.317 0 0 1 80.944 164.553 A 2.637 2.637 0 0 1 81.034 164.528 A 2.327 2.327 0 0 1 81.62 164.453 A 2.122 2.122 0 0 1 81.943 164.475 Q 82.109 164.501 82.242 164.556 A 0.855 0.855 0 0 1 82.499 164.716 A 0.796 0.796 0 0 1 82.704 165.033 Q 82.785 165.252 82.785 165.561 L 82.785 167.825 Z M 86.033 164.619 L 85.879 165.046 A 2.236 2.236 0 0 0 85.636 164.965 A 2.67 2.67 0 0 0 85.516 164.935 Q 85.347 164.898 85.212 164.892 A 1.114 1.114 0 0 0 85.168 164.891 A 1.115 1.115 0 0 0 84.715 164.977 Q 84.24 165.186 84.169 165.909 A 2.777 2.777 0 0 0 84.156 166.181 A 2.434 2.434 0 0 0 84.181 166.536 Q 84.234 166.895 84.403 167.12 A 0.798 0.798 0 0 0 84.92 167.429 A 1.216 1.216 0 0 0 85.134 167.447 A 2.104 2.104 0 0 0 85.715 167.362 A 2.597 2.597 0 0 0 85.985 167.268 L 85.985 167.713 Q 85.699 167.861 85.286 167.882 A 2.756 2.756 0 0 1 85.146 167.886 A 1.878 1.878 0 0 1 84.689 167.833 A 1.274 1.274 0 0 1 84.031 167.442 Q 83.636 166.999 83.636 166.187 Q 83.636 165.355 84.037 164.901 A 1.301 1.301 0 0 1 84.749 164.491 A 1.973 1.973 0 0 1 85.18 164.446 A 2.268 2.268 0 0 1 85.658 164.498 Q 85.895 164.549 86.03 164.617 A 0.745 0.745 0 0 1 86.033 164.619 Z M 77.497 164.998 A 0.668 0.668 0 0 0 77.303 165.168 A 0.86 0.86 0 0 0 77.178 165.406 Q 77.094 165.641 77.079 165.999 A 3.872 3.872 0 0 0 77.075 166.163 A 3.323 3.323 0 0 0 77.092 166.506 Q 77.128 166.853 77.244 167.064 A 0.758 0.758 0 0 0 77.309 167.163 A 0.729 0.729 0 0 0 77.678 167.413 Q 77.802 167.452 77.953 167.461 A 1.616 1.616 0 0 0 78.056 167.465 Q 78.52 167.465 78.747 167.127 A 1.154 1.154 0 0 0 78.889 166.818 Q 78.934 166.672 78.955 166.494 A 2.88 2.88 0 0 0 78.974 166.157 Q 78.974 165.509 78.747 165.191 A 0.733 0.733 0 0 0 78.28 164.896 A 1.162 1.162 0 0 0 78.044 164.873 Q 77.71 164.873 77.497 164.998 Z M 82.283 166.493 L 82.283 166.193 L 81.78 166.214 A 3.69 3.69 0 0 0 81.485 166.236 Q 81.11 166.279 80.916 166.401 Q 80.651 166.566 80.651 166.914 A 0.718 0.718 0 0 0 80.669 167.079 Q 80.698 167.205 80.778 167.292 A 0.448 0.448 0 0 0 80.816 167.328 Q 80.958 167.451 81.199 167.468 A 1.13 1.13 0 0 0 81.277 167.471 Q 81.683 167.471 81.938 167.279 A 0.839 0.839 0 0 0 82.015 167.213 A 0.842 0.842 0 0 0 82.249 166.793 Q 82.283 166.656 82.283 166.493 Z" id="back_labelLayer" stroke="#777777" fill="#777777" style="stroke:#777777;fill:#777777" vector-effect="non-scaling-stroke"/><path d="M 172 150 L 172 159.403 L 169 159.403 L 169 171.598 L 172 171.598 L 172 181 L 179.318 181 L 179.318 178 L 191.513 178 L 191.513 181 L 203.707 181 L 203.707 178 L 215.903 178 L 215.903 181 L 228.098 181 L 228.098 178 L 240.293 178 L 240.293 181 L 252.488 181 L 252.488 178 L 264.683 178 L 264.683 181 L 272 181 L 272 171.598 L 275 171.598 L 275 159.403 L 272 159.403 L 272 150 L 264.683 150 L 264.683 153 L 252.488 153 L 252.488 150 L 240.293 150 L 240.293 153 L 228.098 153 L 228.098 150 L 215.903 150 L 215.903 153 L 203.708 153 L 203.708 150 L 191.513 150 L 191.513 153 L 179.318 153 L 179.318 150 L 172 150 Z" id="right_outsideCutPath" stroke="#FF0000" stroke-width="0.2" style="stroke:#FF0000;stroke-width:0.2" vector-effect="non-scaling-stroke"/><path d="M 225.855 167.111 L 225.353 167.111 L 225.353 164.964 A 1.421 1.421 0 0 0 225.337 164.741 Q 225.298 164.499 225.168 164.359 Q 224.983 164.159 224.59 164.159 A 1.521 1.521 0 0 0 224.306 164.184 Q 224.148 164.214 224.027 164.28 A 0.704 0.704 0 0 0 223.825 164.443 Q 223.585 164.728 223.585 165.376 L 223.585 167.111 L 223.082 167.111 L 223.082 162.4 L 223.585 162.4 L 223.585 163.826 A 4.521 4.521 0 0 1 223.582 163.999 Q 223.579 164.081 223.572 164.151 A 1.966 1.966 0 0 1 223.561 164.253 L 223.591 164.253 A 1.004 1.004 0 0 1 223.943 163.914 A 1.227 1.227 0 0 1 224.013 163.876 A 1.29 1.29 0 0 1 224.437 163.75 A 1.631 1.631 0 0 1 224.638 163.738 A 2.039 2.039 0 0 1 224.981 163.765 Q 225.34 163.826 225.551 164.027 A 0.875 0.875 0 0 1 225.767 164.366 Q 225.819 164.507 225.84 164.682 A 2.173 2.173 0 0 1 225.855 164.946 L 225.855 167.111 Z M 221.254 163.793 L 222.401 163.793 L 222.401 164.11 L 221.787 164.183 Q 221.871 164.289 221.938 164.46 A 0.967 0.967 0 0 1 221.995 164.691 A 1.242 1.242 0 0 1 222.005 164.846 Q 222.005 165.333 221.672 165.624 A 1.115 1.115 0 0 1 221.233 165.855 Q 221.021 165.915 220.757 165.915 A 1.615 1.615 0 0 1 220.57 165.904 A 1.364 1.364 0 0 1 220.479 165.891 A 0.894 0.894 0 0 0 220.335 165.984 Q 220.26 166.044 220.217 166.113 A 0.378 0.378 0 0 0 220.158 166.317 Q 220.158 166.454 220.27 166.519 Q 220.36 166.571 220.554 166.581 A 1.912 1.912 0 0 0 220.654 166.584 L 221.242 166.584 A 2.057 2.057 0 0 1 221.554 166.606 Q 221.717 166.631 221.849 166.685 A 0.908 0.908 0 0 1 222.07 166.811 A 0.735 0.735 0 0 1 222.343 167.279 A 1.104 1.104 0 0 1 222.359 167.471 A 1.088 1.088 0 0 1 222.297 167.847 Q 222.196 168.121 221.934 168.299 A 1.194 1.194 0 0 1 221.917 168.311 Q 221.609 168.512 221.103 168.573 A 3.983 3.983 0 0 1 220.627 168.6 Q 219.976 168.6 219.624 168.358 Q 219.294 168.131 219.272 167.73 A 1.061 1.061 0 0 1 219.271 167.674 A 0.768 0.768 0 0 1 219.465 167.15 A 0.878 0.878 0 0 1 219.766 166.93 A 1.244 1.244 0 0 1 220.01 166.85 A 0.522 0.522 0 0 1 219.807 166.686 A 0.62 0.62 0 0 1 219.796 166.672 A 0.466 0.466 0 0 1 219.711 166.42 A 0.577 0.577 0 0 1 219.71 166.39 A 0.575 0.575 0 0 1 219.739 166.205 A 0.509 0.509 0 0 1 219.807 166.072 Q 219.88 165.969 220.017 165.871 A 1.579 1.579 0 0 1 220.112 165.809 A 0.881 0.881 0 0 1 219.73 165.502 A 1.092 1.092 0 0 1 219.693 165.449 A 1.039 1.039 0 0 1 219.534 164.948 A 1.268 1.268 0 0 1 219.531 164.867 A 1.452 1.452 0 0 1 219.569 164.524 A 0.955 0.955 0 0 1 219.858 164.027 A 1.067 1.067 0 0 1 220.268 163.801 Q 220.431 163.751 220.626 163.737 A 2.219 2.219 0 0 1 220.785 163.732 A 1.926 1.926 0 0 1 221.039 163.748 A 1.467 1.467 0 0 1 221.254 163.793 Z M 228.413 166.696 L 228.413 167.08 Q 228.34 167.116 228.203 167.14 A 1.877 1.877 0 0 1 228.173 167.145 A 2.178 2.178 0 0 1 228.031 167.164 Q 227.964 167.17 227.904 167.171 A 1.287 1.287 0 0 1 227.887 167.171 Q 226.924 167.171 226.924 166.157 L 226.924 164.183 L 226.449 164.183 L 226.449 163.941 L 226.924 163.732 L 227.136 163.024 L 227.427 163.024 L 227.427 163.793 L 228.389 163.793 L 228.389 164.183 L 227.427 164.183 L 227.427 166.136 A 1.012 1.012 0 0 0 227.441 166.313 Q 227.459 166.411 227.497 166.488 A 0.487 0.487 0 0 0 227.569 166.596 A 0.467 0.467 0 0 0 227.856 166.749 A 0.672 0.672 0 0 0 227.959 166.756 A 1.65 1.65 0 0 0 228.201 166.739 A 1.522 1.522 0 0 0 228.217 166.737 Q 228.341 166.717 228.413 166.696 Z M 217.497 163.768 L 217.427 164.235 A 2.215 2.215 0 0 0 217.268 164.205 Q 217.188 164.194 217.118 164.19 A 1.179 1.179 0 0 0 217.064 164.189 A 0.871 0.871 0 0 0 216.421 164.467 A 1.191 1.191 0 0 0 216.375 164.516 Q 216.089 164.843 216.089 165.33 L 216.089 167.111 L 215.587 167.111 L 215.587 163.793 L 216.001 163.793 L 216.059 164.407 L 216.083 164.407 A 1.697 1.697 0 0 1 216.273 164.136 A 1.296 1.296 0 0 1 216.528 163.908 A 1.002 1.002 0 0 1 217.1 163.732 A 2.307 2.307 0 0 1 217.307 163.741 A 1.684 1.684 0 0 1 217.497 163.768 Z M 218.62 163.793 L 218.62 167.111 L 218.117 167.111 L 218.117 163.793 L 218.62 163.793 Z M 221.081 167.035 L 220.479 167.035 Q 220.228 167.035 220.059 167.123 A 0.589 0.589 0 0 0 219.946 167.198 A 0.53 0.53 0 0 0 219.772 167.499 A 0.804 0.804 0 0 0 219.755 167.668 A 0.505 0.505 0 0 0 219.788 167.855 Q 219.836 167.975 219.953 168.057 A 0.59 0.59 0 0 0 219.982 168.076 Q 220.208 168.215 220.629 168.216 A 2.668 2.668 0 0 0 220.633 168.216 A 3.378 3.378 0 0 0 220.963 168.201 Q 221.294 168.168 221.501 168.065 A 0.835 0.835 0 0 0 221.57 168.026 A 0.733 0.733 0 0 0 221.74 167.884 A 0.549 0.549 0 0 0 221.874 167.513 A 0.68 0.68 0 0 0 221.862 167.378 Q 221.846 167.3 221.81 167.243 A 0.317 0.317 0 0 0 221.708 167.139 A 0.477 0.477 0 0 0 221.595 167.09 Q 221.416 167.035 221.081 167.035 Z M 220.14 165.284 A 0.538 0.538 0 0 0 220.224 165.382 Q 220.402 165.543 220.704 165.559 A 1.294 1.294 0 0 0 220.772 165.561 A 1.095 1.095 0 0 0 221.059 165.526 Q 221.387 165.437 221.475 165.115 A 1.018 1.018 0 0 0 221.508 164.846 A 1.081 1.081 0 0 0 221.471 164.55 Q 221.376 164.218 221.039 164.13 A 1.093 1.093 0 0 0 220.763 164.098 Q 220.492 164.098 220.316 164.21 A 0.578 0.578 0 0 0 220.218 164.289 Q 220.028 164.48 220.028 164.855 Q 220.028 165.118 220.14 165.284 Z M 218.082 162.801 A 0.557 0.557 0 0 0 218.075 162.893 A 0.593 0.593 0 0 0 218.078 162.95 Q 218.083 163.001 218.097 163.042 A 0.259 0.259 0 0 0 218.16 163.146 A 0.282 0.282 0 0 0 218.262 163.211 A 0.319 0.319 0 0 0 218.372 163.229 Q 218.493 163.229 218.581 163.146 Q 218.668 163.063 218.668 162.893 Q 218.668 162.724 218.581 162.642 Q 218.493 162.56 218.372 162.56 A 0.384 0.384 0 0 0 218.346 162.561 A 0.291 0.291 0 0 0 218.16 162.641 A 0.235 0.235 0 0 0 218.108 162.714 Q 218.09 162.753 218.082 162.801 Z" id="right_labelLayer" stroke="#777777" fill="#777777" style="stroke:#777777;fill:#777777" vector-effect="non-scaling-stroke"/><path d="M 281 3 L 281 10.317 L 278 10.317 L 278 22.512 L 281 22.512 L 281 34.707 L 278 34.707 L 278 46.903 L 281 46.903 L 281 59.098 L 278 59.098 L 278 71.292 L 281 71.292 L 281 83.488 L 278 83.488 L 278 95.683 L 281 95.683 L 281 103 L 293.928 103 L 293.928 106 L 306.123 106 L 306.123 103 L 318.318 103 L 318.318 106 L 330.513 106 L 330.513 103 L 342.708 103 L 342.708 106 L 354.903 106 L 354.903 103 L 367.097 103 L 367.097 106 L 379.293 106 L 379.293 103 L 391.488 103 L 391.488 106 L 403.683 106 L 403.683 103 L 415.878 103 L 415.878 106 L 428.073 106 L 428.073 103 L 440.268 103 L 441 103 L 441 95.683 L 444 95.683 L 444 83.488 L 441 83.488 L 441 71.293 L 444 71.293 L 444 59.098 L 441 59.098 L 441 46.903 L 444 46.903 L 444 34.708 L 441 34.708 L 441 22.512 L 444 22.512 L 444 10.317 L 441 10.317 L 441 3 L 428.073 3 L 428.073 0 L 415.878 0 L 415.878 3 L 403.683 3 L 403.683 0 L 391.488 0 L 391.488 3 L 379.293 3 L 379.293 0 L 367.098 0 L 367.098 3 L 354.903 3 L 354.903 0 L 342.708 0 L 342.708 3 L 330.513 3 L 330.513 0 L 318.318 0 L 318.318 3 L 306.123 3 L 306.123 0 L 293.928 0 L 293.928 3 L 281.733 3 L 281 3 Z" id="bottom_outsideCutPath" stroke="#FF0000" stroke-width="0.2" style="stroke:#FF0000;stroke-width:0.2" vector-effect="non-scaling-stroke"/><path d="M 395.874 60.95 L 394.156 60.95 L 394.156 53.569 Q 394.156 52.213 393.576 51.535 Q 393.069 50.942 392.071 50.868 A 3.989 3.989 0 0 0 391.775 50.857 A 4.422 4.422 0 0 0 390.875 50.942 Q 389.937 51.138 389.405 51.778 Q 388.642 52.695 388.639 54.597 A 9.479 9.479 0 0 0 388.639 54.615 L 388.639 60.95 L 386.92 60.95 L 386.92 53.569 Q 386.92 52.213 386.341 51.535 Q 385.761 50.857 384.529 50.857 A 4.268 4.268 0 0 0 383.646 50.942 Q 383.102 51.057 382.696 51.328 A 2.252 2.252 0 0 0 382.164 51.825 A 2.882 2.882 0 0 0 381.736 52.636 Q 381.413 53.551 381.413 54.998 L 381.413 60.95 L 379.695 60.95 L 379.695 49.604 L 381.092 49.604 L 381.372 51.157 L 381.455 51.157 A 3.377 3.377 0 0 1 382.826 49.863 A 4.08 4.08 0 0 1 384.438 49.411 A 4.927 4.927 0 0 1 384.809 49.397 A 5.626 5.626 0 0 1 386.075 49.529 Q 387.683 49.901 388.287 51.323 L 388.369 51.323 A 3.588 3.588 0 0 1 389.721 49.981 A 4.311 4.311 0 0 1 389.839 49.915 A 4.349 4.349 0 0 1 391.435 49.43 A 5.423 5.423 0 0 1 392.034 49.397 Q 393.959 49.397 394.917 50.386 A 2.959 2.959 0 0 1 395.552 51.425 Q 395.723 51.883 395.804 52.454 A 7.882 7.882 0 0 1 395.874 53.548 L 395.874 60.95 Z M 327.844 59.49 L 327.72 59.49 L 327.357 60.95 L 326.126 60.95 L 326.126 44.843 L 327.844 44.843 L 327.844 48.756 Q 327.844 50.028 327.766 51.048 A 21.449 21.449 0 0 1 327.761 51.116 L 327.844 51.116 A 3.907 3.907 0 0 1 330.696 49.46 A 5.869 5.869 0 0 1 331.405 49.418 A 5.252 5.252 0 0 1 332.883 49.615 A 3.932 3.932 0 0 1 334.878 50.945 A 5.063 5.063 0 0 1 335.766 52.655 Q 336.115 53.782 336.115 55.267 A 10.075 10.075 0 0 1 335.981 56.962 Q 335.827 57.865 335.494 58.59 A 4.83 4.83 0 0 1 334.867 59.609 A 4.068 4.068 0 0 1 331.976 61.129 A 5.828 5.828 0 0 1 331.405 61.157 A 5.212 5.212 0 0 1 330.095 60.997 A 4.535 4.535 0 0 1 329.381 60.748 Q 328.465 60.339 327.844 59.49 Z M 357.139 59.532 L 357.139 60.846 Q 356.859 60.981 356.316 61.069 Q 355.772 61.157 355.338 61.157 A 4.488 4.488 0 0 1 354.015 60.979 Q 352.561 60.53 352.181 58.951 A 5.401 5.401 0 0 1 352.046 57.689 L 352.046 50.94 L 350.421 50.94 L 350.421 50.112 L 352.046 49.397 L 352.77 46.975 L 353.764 46.975 L 353.764 49.604 L 357.056 49.604 L 357.056 50.94 L 353.764 50.94 L 353.764 57.617 A 3.46 3.46 0 0 0 353.814 58.224 Q 353.92 58.817 354.251 59.19 A 1.596 1.596 0 0 0 355.232 59.712 A 2.297 2.297 0 0 0 355.586 59.739 Q 356.042 59.739 356.466 59.671 Q 356.871 59.607 357.116 59.538 A 2.58 2.58 0 0 0 357.139 59.532 Z M 364.623 59.532 L 364.623 60.846 Q 364.344 60.981 363.8 61.069 Q 363.257 61.157 362.822 61.157 A 4.488 4.488 0 0 1 361.499 60.979 Q 360.045 60.53 359.665 58.951 A 5.401 5.401 0 0 1 359.53 57.689 L 359.53 50.94 L 357.905 50.94 L 357.905 50.112 L 359.53 49.397 L 360.255 46.975 L 361.248 46.975 L 361.248 49.604 L 364.54 49.604 L 364.54 50.94 L 361.248 50.94 L 361.248 57.617 A 3.46 3.46 0 0 0 361.298 58.224 Q 361.404 58.817 361.735 59.19 A 1.596 1.596 0 0 0 362.716 59.712 A 2.297 2.297 0 0 0 363.07 59.739 Q 363.526 59.739 363.95 59.671 Q 364.355 59.607 364.6 59.538 A 2.58 2.58 0 0 0 364.623 59.532 Z M 348.752 56.993 A 8.876 8.876 0 0 0 348.909 55.267 A 10.085 10.085 0 0 0 348.906 54.994 Q 348.88 54.049 348.676 53.247 A 5.351 5.351 0 0 0 347.507 50.981 Q 346.104 49.397 343.723 49.397 A 6.674 6.674 0 0 0 342.524 49.5 A 4.545 4.545 0 0 0 339.872 50.945 Q 338.951 51.973 338.642 53.541 A 8.922 8.922 0 0 0 338.485 55.267 A 8.596 8.596 0 0 0 338.593 56.659 A 6.357 6.357 0 0 0 339.127 58.393 A 5.648 5.648 0 0 0 339.252 58.638 A 4.652 4.652 0 0 0 340.949 60.443 A 4.785 4.785 0 0 0 342.047 60.931 A 5.518 5.518 0 0 0 343.651 61.157 Q 346.114 61.157 347.512 59.599 A 4.794 4.794 0 0 0 348.083 58.815 Q 348.548 58.018 348.752 56.993 Z M 376.525 56.993 A 8.876 8.876 0 0 0 376.683 55.267 A 10.085 10.085 0 0 0 376.679 54.994 Q 376.653 54.049 376.449 53.247 A 5.351 5.351 0 0 0 375.28 50.981 Q 373.877 49.397 371.496 49.397 A 6.674 6.674 0 0 0 370.298 49.5 A 4.545 4.545 0 0 0 367.646 50.945 Q 366.725 51.973 366.415 53.541 A 8.922 8.922 0 0 0 366.259 55.267 A 8.596 8.596 0 0 0 366.367 56.659 A 6.357 6.357 0 0 0 366.9 58.393 A 5.648 5.648 0 0 0 367.025 58.638 A 4.652 4.652 0 0 0 368.722 60.443 A 4.785 4.785 0 0 0 369.82 60.931 A 5.518 5.518 0 0 0 371.424 61.157 Q 373.888 61.157 375.285 59.599 A 4.794 4.794 0 0 0 375.856 58.815 Q 376.321 58.018 376.525 56.993 Z M 340.266 55.267 A 8.702 8.702 0 0 0 340.349 56.51 Q 340.44 57.141 340.632 57.652 A 3.605 3.605 0 0 0 341.135 58.579 A 2.816 2.816 0 0 0 342.97 59.659 A 4.268 4.268 0 0 0 343.692 59.718 A 3.991 3.991 0 0 0 344.745 59.587 A 2.778 2.778 0 0 0 346.254 58.584 Q 347.129 57.451 347.129 55.267 Q 347.129 53.879 346.769 52.919 A 3.538 3.538 0 0 0 346.254 51.98 A 2.827 2.827 0 0 0 344.497 50.932 A 4.334 4.334 0 0 0 343.671 50.857 A 4.089 4.089 0 0 0 342.653 50.976 A 2.737 2.737 0 0 0 341.125 51.965 Q 340.506 52.762 340.333 54.122 A 9.08 9.08 0 0 0 340.266 55.267 Z M 368.039 55.267 A 8.702 8.702 0 0 0 368.122 56.51 Q 368.213 57.141 368.405 57.652 A 3.605 3.605 0 0 0 368.909 58.579 A 2.816 2.816 0 0 0 370.743 59.659 A 4.268 4.268 0 0 0 371.465 59.718 A 3.991 3.991 0 0 0 372.518 59.587 A 2.778 2.778 0 0 0 374.027 58.584 Q 374.902 57.451 374.902 55.267 Q 374.902 53.879 374.542 52.919 A 3.538 3.538 0 0 0 374.027 51.98 A 2.827 2.827 0 0 0 372.27 50.932 A 4.334 4.334 0 0 0 371.445 50.857 A 4.089 4.089 0 0 0 370.427 50.976 A 2.737 2.737 0 0 0 368.898 51.965 Q 368.28 52.762 368.106 54.122 A 9.08 9.08 0 0 0 368.039 55.267 Z M 331.156 50.857 A 4.829 4.829 0 0 0 330.221 50.941 Q 329.689 51.047 329.284 51.283 A 2.285 2.285 0 0 0 328.62 51.866 Q 327.844 52.876 327.844 55.267 Q 327.844 57.298 328.419 58.347 A 2.592 2.592 0 0 0 328.641 58.688 Q 329.356 59.611 330.844 59.707 A 5.525 5.525 0 0 0 331.198 59.718 Q 332.782 59.718 333.558 58.564 A 3.945 3.945 0 0 0 334.046 57.508 Q 334.199 57.007 334.271 56.4 A 9.846 9.846 0 0 0 334.334 55.246 Q 334.334 53.146 333.637 52.06 A 2.851 2.851 0 0 0 333.558 51.944 A 2.506 2.506 0 0 0 331.963 50.934 A 3.974 3.974 0 0 0 331.156 50.857 Z" id="bottom_labelLayer" stroke="#777777" fill="#777777" style="stroke:#777777;fill:#777777" vector-effect="non-scaling-stroke"/></g></svg>