<?xml version="1.0" encoding="UTF-8" standalone="no"?>
<!-- Created with Inkscape (http://www.inkscape.org/) -->

<svg
   width="420mm"
   height="297mm"
   viewBox="0 0 420 297"
   version="1.1"
   id="svg5"
   inkscape:version="1.1.2 (b8e25be833, 2022-02-05)"
   sodipodi:docname="print_faris_a_3mm.svg"
   xmlns:inkscape="http://www.inkscape.org/namespaces/inkscape"
   xmlns:sodipodi="http://sodipodi.sourceforge.net/DTD/sodipodi-0.dtd"
   xmlns="http://www.w3.org/2000/svg"
   xmlns:svg="http://www.w3.org/2000/svg">
  <sodipodi:namedview
     id="namedview7"
     pagecolor="#ffffff"
     bordercolor="#666666"
     borderopacity="1.0"
     inkscape:pageshadow="2"
     inkscape:pageopacity="0.0"
     inkscape:pagecheckerboard="0"
     inkscape:document-units="mm"
     showgrid="false"
     showguides="false"
     inkscape:snap-bbox="true"
     inkscape:bbox-paths="true"
     inkscape:bbox-nodes="true"
     inkscape:snap-bbox-edge-midpoints="true"
     inkscape:snap-bbox-midpoints="true"
     inkscape:zoom="0.12960772"
     inkscape:cx="2333.9658"
     inkscape:cy="624.96276"
     inkscape:window-width="1920"
     inkscape:window-height="1009"
     inkscape:window-x="-8"
     inkscape:window-y="-8"
     inkscape:window-maximized="1"
     inkscape:current-layer="layer1" />
  <defs
     id="defs2" />
  <g
     inkscape:label="Layer 1"
     inkscape:groupmode="layer"
     id="layer1">
    <g
       id="g7516"
       sodipodi:insensitive="true">
      <g
         id="g6628"
         transform="translate(428.12345,-302.24474)">
        <path
           d="m -396.79586,363.18165 v 13.813 h -3 v 18.375 h 3 v 13.812 h 20.688 v -3 h 18.375 v 3 h 18.375 v -3 h 18.375 v 3 h 18.375 v -3 h 18.375 v 3 h 18.375 v -3 h 18.375 v 3 h 18.375 2.312 v -13.812 h 3 v -18.375 h -3 v -13.813 h -20.687 v 3 h -18.375 v -3 h -18.375 v 3 h -18.375 v -3 h -18.375 v 3 h -18.375 v -3 h -18.375 v 3 h -18.375 v -3 h -18.375 z"
           id="left_outsideCutPath-8"
           stroke="#FF0000"
           stroke-width="0.2"
           style="font-size:12px;fill:none;fill-rule:evenodd;stroke:#ff0000;stroke-width:0.2;stroke-linecap:round"
           vector-effect="non-scaling-stroke" />
        <path
           d="m -301.61542,384.73305 v 0.58 h -1.254 v 4.344 h -0.745 v -4.344 h -0.881 v -0.337 l 0.881,-0.27 v -0.274 a 3.022,3.022 0 0 1 0.07,-0.685 q 0.218,-0.934 1.111,-1.096 a 2.267,2.267 0 0 1 0.404,-0.034 2.401,2.401 0 0 1 0.34,0.026 q 0.165,0.024 0.349,0.069 a 4.827,4.827 0 0 1 0.228,0.063 l -0.193,0.597 a 3.621,3.621 0 0 0 -0.282,-0.079 q -0.142,-0.034 -0.268,-0.049 a 1.604,1.604 0 0 0 -0.187,-0.011 1.006,1.006 0 0 0 -0.243,0.027 0.646,0.646 0 0 0 -0.382,0.254 0.863,0.863 0 0 0 -0.114,0.23 q -0.075,0.224 -0.086,0.558 a 3.521,3.521 0 0 0 -0.002,0.112 v 0.319 z m -3.491,2.125 v 0.472 h -3.391 a 2.993,2.993 0 0 0 0.052,0.501 q 0.054,0.273 0.162,0.488 a 1.4,1.4 0 0 0 0.224,0.327 1.355,1.355 0 0 0 0.711,0.401 2.053,2.053 0 0 0 0.459,0.048 3.938,3.938 0 0 0 1.475,-0.292 4.512,4.512 0 0 0 0.097,-0.04 v 0.665 a 4.477,4.477 0 0 1 -0.408,0.154 3.423,3.423 0 0 1 -0.34,0.09 3.13,3.13 0 0 1 -0.311,0.048 q -0.244,0.026 -0.54,0.026 a 2.898,2.898 0 0 1 -0.725,-0.085 2.052,2.052 0 0 1 -0.998,-0.579 q -0.631,-0.665 -0.631,-1.847 a 3.916,3.916 0 0 1 0.072,-0.776 q 0.096,-0.472 0.317,-0.839 a 2.208,2.208 0 0 1 0.197,-0.276 1.911,1.911 0 0 1 1.393,-0.695 2.636,2.636 0 0 1 0.182,-0.006 2.272,2.272 0 0 1 0.639,0.086 1.729,1.729 0 0 1 0.825,0.523 2.085,2.085 0 0 1 0.473,0.953 3.035,3.035 0 0 1 0.066,0.653 z m 6.653,2.183 v 0.571 a 0.733,0.733 0 0 1 -0.087,0.034 q -0.093,0.031 -0.226,0.055 a 2.79,2.79 0 0 1 -0.044,0.007 3.232,3.232 0 0 1 -0.211,0.028 q -0.099,0.009 -0.188,0.01 a 1.911,1.911 0 0 1 -0.026,0 1.948,1.948 0 0 1 -0.574,-0.077 q -0.854,-0.263 -0.854,-1.427 v -2.929 h -0.705 v -0.36 l 0.705,-0.31 0.314,-1.051 h 0.432 v 1.141 h 1.428 v 0.58 h -1.428 v 2.897 q 0,0.313 0.104,0.523 a 0.723,0.723 0 0 0 0.107,0.16 q 0.211,0.238 0.579,0.238 a 2.449,2.449 0 0 0 0.359,-0.026 2.258,2.258 0 0 0 0.023,-0.003 4.034,4.034 0 0 0 0.108,-0.019 q 0.103,-0.019 0.174,-0.039 a 1.126,1.126 0 0 0 0.01,-0.003 z m -12.124,-6.374 v 6.99 h -0.746 v -6.99 z m 2.097,4.056 h 2.575 a 2.541,2.541 0 0 0 -0.031,-0.408 q -0.036,-0.219 -0.113,-0.395 a 1.154,1.154 0 0 0 -0.171,-0.277 1.022,1.022 0 0 0 -0.615,-0.35 1.533,1.533 0 0 0 -0.283,-0.025 1.47,1.47 0 0 0 -0.425,0.058 1.136,1.136 0 0 0 -0.521,0.328 1.473,1.473 0 0 0 -0.293,0.494 q -0.074,0.203 -0.108,0.448 a 2.817,2.817 0 0 0 -0.015,0.127 z"
           id="left_labelLayer-8"
           stroke="#777777"
           fill="#777777"
           style="font-size:12px;fill:#777777;fill-rule:evenodd;stroke:#777777;stroke-width:0.25mm;stroke-linecap:round"
           vector-effect="non-scaling-stroke" />
      </g>
      <path
         d="m 210.70261,18.861899 v 20.688 h -3 v 18.375 h 3 v 18.375 h -3 v 18.375 h 3 v 18.374991 h -3 v 18.375 h 3 v 18.375 h -3 v 18.375 h 3 v 18.375 2.312 h 20.688 v 3 h 18.375 v -3 h 18.375 v 3 h 18.375 v -3 h 18.375 v 3 h 18.375 v -3 h 18.375 v 3 h 18.375 v -3 h 18.375 2.312 v -20.687 h 3 v -18.375 h -3 v -18.375 h 3 v -18.375 h -3 V 94.674899 h 3 v -18.375 h -3 v -18.375 h 3 v -18.375 h -3 v -18.375 -2.313 h -20.687 v -3 h -18.375 v 3 h -18.375 v -3 h -18.375 v 3 h -18.375 v -3 h -18.375 v 3 h -18.375 v -3 h -18.375 v 3 h -18.375 z"
         id="top_outsideCutPath"
         stroke="#FF0000"
         stroke-width="0.2"
         style="font-size:12px;fill:none;fill-rule:evenodd;stroke:#ff0000;stroke-width:0.2;stroke-linecap:round"
         vector-effect="non-scaling-stroke" />
      <g
         id="g6464"
         transform="translate(239.75496,-15.708539)">
        <rect
           style="fill:none;stroke:#0000ff;stroke-width:0.20168;stroke-miterlimit:4;stroke-dasharray:none;stroke-opacity:1"
           id="rect3435"
           width="29.798319"
           height="69.798317"
           x="-63.891777"
           y="-108.22569"
           transform="rotate(-90)" />
        <rect
           style="fill:none;stroke:#ff0000;stroke-width:0.132084;stroke-miterlimit:4;stroke-dasharray:none;stroke-opacity:1"
           id="rect3435-3"
           width="29.867914"
           height="29.867916"
           x="-63.926575"
           y="-138.2605"
           transform="rotate(-90)" />
        <rect
           style="fill:none;stroke:#0000ff;stroke-width:0.107836;stroke-miterlimit:4;stroke-dasharray:none;stroke-opacity:1"
           id="rect3435-3-3-0"
           width="19.892164"
           height="29.892164"
           x="-53.950829"
           y="-168.15266"
           transform="rotate(-90)" />
        <rect
           style="fill:none;stroke:#ff0000;stroke-width:0.107836;stroke-miterlimit:4;stroke-dasharray:none;stroke-opacity:1"
           id="rect3435-3-3-0-3"
           width="19.892164"
           height="29.892164"
           x="-73.950829"
           y="-168.15266"
           transform="rotate(-90)" />
        <path
           d="m -208.42737,30.645447 v 13.813 h -3 v 18.374996 h 3 V 76.64544 h 20.688 v -3 h 18.375 v 3 h 18.375 v -3 h 18.375 v 3 h 18.375 v -3 h 18.374998 v 3 h 18.374997 v -3 h 18.375 v 3 h 18.375 2.312 V 62.833443 h 3 V 44.458447 h -3 v -13.813 h -20.687 v 3 h -18.375 v -3 h -18.374997 v 3 h -18.374998 v -3 h -18.375 v 3 h -18.375 v -3 h -18.375 v 3 h -18.375 v -3 h -18.375 z"
           id="right_outsideCutPath-9"
           stroke="#FF0000"
           stroke-width="0.2"
           style="font-size:12px;fill:none;fill-rule:evenodd;stroke:#ff0000;stroke-width:0.2;stroke-linecap:round"
           vector-effect="non-scaling-stroke" />
      </g>
      <g
         id="g6297"
         transform="translate(193.05013,-2.5494299)">
        <path
           d="m -161.72254,109.48633 v 20.688 h -3 v 18.375 h 3 v 18.375 h -3 v 18.375 h 3 v 18.375 h -3 v 18.375 h 3 v 18.375 h -3 v 18.375 h 3 v 18.375 2.312 h 20.688 v 3 h 18.375 v -3 h 18.375 v 3 h 18.375001 v -3 h 18.374999 v 3 h 18.375 v -3 h 18.375 v 3 h 18.375 v -3 h 18.375 2.312 v -20.687 h 3 v -18.375 h -3 v -18.375 h 3 v -18.375 h -3 v -18.375 h 3 v -18.375 h -3 v -18.375 h 3 v -18.375 h -3 v -18.375 -2.313 h -20.687 v -3 h -18.375 v 3 h -18.375 v -3 h -18.375 v 3 h -18.374999 v -3 h -18.375001 v 3 h -18.375 v -3 h -18.375 v 3 h -18.375 z"
           id="bottom_outsideCutPath-8"
           stroke="#FF0000"
           stroke-width="0.2"
           style="font-size:12px;fill:none;fill-rule:evenodd;stroke:#ff0000;stroke-width:0.2;stroke-linecap:round"
           vector-effect="non-scaling-stroke" />
        <path
           d="m -18.81754,207.68637 h -2.854 v -12.255 a 8.417,8.417 0 0 0 -0.084,-1.238 q -0.095,-0.632 -0.293,-1.141 a 3.448,3.448 0 0 0 -0.585,-0.998 3.002,3.002 0 0 0 -1.396,-0.903 q -0.497,-0.16 -1.103,-0.206 a 6.623,6.623 0 0 0 -0.492,-0.017 7.342,7.342 0 0 0 -1.494,0.142 q -0.888,0.185 -1.557,0.61 a 3.778,3.778 0 0 0 -0.885,0.777 4.715,4.715 0 0 0 -0.799,1.447 q -0.469,1.315 -0.472,3.234 a 15.991,15.991 0 0 0 0,0.029 v 10.519 h -2.854 v -12.255 a 8.417,8.417 0 0 0 -0.084,-1.238 q -0.095,-0.632 -0.293,-1.141 a 3.448,3.448 0 0 0 -0.585,-0.998 2.993,2.993 0 0 0 -1.377,-0.895 q -0.704,-0.231 -1.631,-0.231 a 7.086,7.086 0 0 0 -1.465,0.141 q -1.586,0.336 -2.462,1.466 a 4.785,4.785 0 0 0 -0.71,1.347 q -0.46,1.301 -0.525,3.253 a 19.864,19.864 0 0 0 -0.011,0.668 v 9.883 h -2.853 v -18.838 h 2.32 l 0.464,2.578 h 0.137 q 0.808,-1.375 2.278,-2.148 a 6.774,6.774 0 0 1 2.675,-0.751 8.181,8.181 0 0 1 0.616,-0.023 q 2.736,0 4.298,1.227 a 4.871,4.871 0 0 1 1.477,1.97 h 0.138 a 5.957,5.957 0 0 1 2.243,-2.227 7.158,7.158 0 0 1 0.197,-0.11 7.221,7.221 0 0 1 2.649,-0.806 9.004,9.004 0 0 1 0.995,-0.054 9.918,9.918 0 0 1 1.799,0.153 q 1.882,0.347 2.988,1.489 a 4.913,4.913 0 0 1 1.055,1.725 q 0.535,1.432 0.535,3.525 z m -112.957,-2.424 h -0.206 l -0.601,2.424 h -2.046 v -26.744 h 2.853 v 6.497 a 59.486,59.486 0 0 1 -0.032,2.009 q -0.032,0.951 -0.096,1.797 a 35.616,35.616 0 0 1 -0.009,0.112 h 0.137 a 6.487,6.487 0 0 1 4.735,-2.75 9.744,9.744 0 0 1 1.178,-0.068 8.72,8.72 0 0 1 2.454,0.327 6.528,6.528 0 0 1 3.312,2.208 8.407,8.407 0 0 1 1.474,2.839 q 0.363,1.17 0.499,2.571 a 18.313,18.313 0 0 1 0.081,1.766 16.729,16.729 0 0 1 -0.221,2.814 q -0.456,2.667 -1.85,4.396 a 6.754,6.754 0 0 1 -4.8,2.524 9.677,9.677 0 0 1 -0.949,0.045 8.654,8.654 0 0 1 -2.175,-0.265 7.53,7.53 0 0 1 -1.185,-0.414 6.319,6.319 0 0 1 -2.553,-2.088 z m 48.641,0.069 v 2.183 q -0.419,0.202 -1.196,0.34 a 10.671,10.671 0 0 1 -0.17,0.029 q -0.903,0.146 -1.625,0.146 a 7.452,7.452 0 0 1 -2.196,-0.295 q -2.414,-0.745 -3.045,-3.367 a 8.968,8.968 0 0 1 -0.224,-2.096 v -11.206 h -2.699 v -1.375 l 2.699,-1.186 1.203,-4.022 h 1.65 v 4.366 h 5.465 v 2.217 h -5.465 v 11.086 q 0,1.196 0.399,2.001 a 2.767,2.767 0 0 0 0.409,0.612 q 0.807,0.911 2.217,0.911 a 9.37,9.37 0 0 0 1.373,-0.099 8.637,8.637 0 0 0 0.088,-0.013 15.434,15.434 0 0 0 0.412,-0.071 q 0.393,-0.073 0.667,-0.15 a 4.281,4.281 0 0 0 0.038,-0.011 z m 12.427,0 v 2.183 q -0.42,0.202 -1.196,0.34 a 10.671,10.671 0 0 1 -0.171,0.029 q -0.902,0.146 -1.624,0.146 a 7.452,7.452 0 0 1 -2.196,-0.295 q -2.414,-0.745 -3.046,-3.367 a 8.968,8.968 0 0 1 -0.224,-2.096 v -11.206 h -2.698 v -1.375 l 2.698,-1.186 1.203,-4.022 h 1.65 v 4.366 h 5.466 v 2.217 h -5.466 v 11.086 q 0,1.196 0.399,2.001 a 2.767,2.767 0 0 0 0.409,0.612 q 0.808,0.911 2.217,0.911 a 9.37,9.37 0 0 0 1.373,-0.099 8.637,8.637 0 0 0 0.088,-0.013 15.434,15.434 0 0 0 0.412,-0.071 q 0.394,-0.073 0.667,-0.15 a 4.281,4.281 0 0 0 0.039,-0.011 z m -26.353,-4.214 a 14.738,14.738 0 0 0 0.262,-2.867 16.745,16.745 0 0 0 -0.006,-0.453 q -0.113,-4.168 -2.323,-6.663 -2.329,-2.63 -6.282,-2.63 a 11.081,11.081 0 0 0 -1.99,0.171 7.547,7.547 0 0 0 -4.404,2.399 q -1.529,1.706 -2.043,4.311 a 14.814,14.814 0 0 0 -0.26,2.865 14.273,14.273 0 0 0 0.179,2.312 10.555,10.555 0 0 0 0.887,2.878 9.378,9.378 0 0 0 0.207,0.407 7.724,7.724 0 0 0 2.818,2.996 7.944,7.944 0 0 0 1.823,0.811 9.162,9.162 0 0 0 2.663,0.375 11.079,11.079 0 0 0 1.934,-0.161 7.606,7.606 0 0 0 4.477,-2.425 q 1.54,-1.718 2.058,-4.326 z m 46.114,0 a 14.738,14.738 0 0 0 0.262,-2.867 16.745,16.745 0 0 0 -0.006,-0.453 q -0.113,-4.168 -2.323,-6.663 -2.329,-2.63 -6.282,-2.63 a 11.081,11.081 0 0 0 -1.99,0.171 7.547,7.547 0 0 0 -4.404,2.399 q -1.529,1.706 -2.043,4.311 a 14.814,14.814 0 0 0 -0.26,2.865 14.273,14.273 0 0 0 0.179,2.312 10.555,10.555 0 0 0 0.887,2.878 9.378,9.378 0 0 0 0.207,0.407 7.724,7.724 0 0 0 2.818,2.996 7.944,7.944 0 0 0 1.823,0.811 9.162,9.162 0 0 0 2.663,0.375 11.079,11.079 0 0 0 1.934,-0.161 7.606,7.606 0 0 0 4.477,-2.425 q 1.54,-1.718 2.058,-4.326 z m -60.204,-2.867 a 14.448,14.448 0 0 0 0.138,2.064 q 0.151,1.047 0.47,1.896 a 5.986,5.986 0 0 0 0.836,1.54 4.676,4.676 0 0 0 3.046,1.793 7.086,7.086 0 0 0 1.199,0.097 6.627,6.627 0 0 0 1.749,-0.217 4.612,4.612 0 0 0 2.505,-1.665 6.125,6.125 0 0 0 0.954,-1.857 q 0.281,-0.859 0.403,-1.907 a 15.029,15.029 0 0 0 0.096,-1.744 14.236,14.236 0 0 0 -0.135,-2.029 q -0.149,-1.033 -0.463,-1.869 a 5.874,5.874 0 0 0 -0.855,-1.559 4.693,4.693 0 0 0 -2.918,-1.741 7.196,7.196 0 0 0 -1.37,-0.124 6.79,6.79 0 0 0 -1.69,0.198 4.544,4.544 0 0 0 -2.538,1.641 5.899,5.899 0 0 0 -0.917,1.772 q -0.271,0.814 -0.398,1.811 a 15.077,15.077 0 0 0 -0.112,1.9 z m 46.114,0 a 14.448,14.448 0 0 0 0.138,2.064 q 0.152,1.047 0.47,1.896 a 5.986,5.986 0 0 0 0.836,1.54 4.676,4.676 0 0 0 3.046,1.793 7.086,7.086 0 0 0 1.199,0.097 6.627,6.627 0 0 0 1.749,-0.217 4.612,4.612 0 0 0 2.505,-1.665 6.125,6.125 0 0 0 0.954,-1.857 q 0.281,-0.859 0.403,-1.907 a 15.029,15.029 0 0 0 0.096,-1.744 14.236,14.236 0 0 0 -0.135,-2.029 q -0.149,-1.033 -0.463,-1.869 a 5.874,5.874 0 0 0 -0.855,-1.559 4.693,4.693 0 0 0 -2.918,-1.741 7.196,7.196 0 0 0 -1.37,-0.124 6.79,6.79 0 0 0 -1.69,0.198 4.544,4.544 0 0 0 -2.538,1.641 5.899,5.899 0 0 0 -0.917,1.772 q -0.271,0.814 -0.398,1.811 a 15.077,15.077 0 0 0 -0.112,1.9 z m -61.239,-7.322 a 8.018,8.018 0 0 0 -1.552,0.14 q -0.885,0.175 -1.557,0.568 a 3.794,3.794 0 0 0 -1.102,0.968 q -1.132,1.472 -1.27,4.716 a 21.982,21.982 0 0 0 -0.019,0.93 18.865,18.865 0 0 0 0.094,1.949 q 0.258,2.475 1.23,3.731 1.186,1.533 3.657,1.692 a 9.174,9.174 0 0 0 0.588,0.018 5.688,5.688 0 0 0 1.616,-0.216 4.103,4.103 0 0 0 2.303,-1.7 q 1.289,-1.917 1.289,-5.509 a 16.857,16.857 0 0 0 -0.102,-1.921 q -0.261,-2.264 -1.187,-3.562 a 4.161,4.161 0 0 0 -2.649,-1.676 6.599,6.599 0 0 0 -1.339,-0.128 z"
           id="bottom_labelLayer-5"
           stroke="#777777"
           fill="#777777"
           style="font-size:12px;fill:#777777;fill-rule:evenodd;stroke:#777777;stroke-width:0.25mm;stroke-linecap:round"
           vector-effect="non-scaling-stroke" />
      </g>
      <g
         id="g7382"
         transform="rotate(90,239.73407,246.31852)">
        <g
           id="g6636"
           transform="rotate(-90,-217.57482,-82.87064)">
          <path
             d="m -578.79586,363.18165 v 13.813 h 3 v 18.375 h -3 v 13.812 h 23.688 v -3 h 18.375 v 3 h 18.375 v -3 h 18.375 v 3 h 18.375 v -3 h 18.375 v 3 h 18.375 v -3 h 18.375 v 3 h 18.375 5.312 v -13.812 h -3 v -18.375 h 3 v -13.813 h -23.687 v 3 h -18.375 v -3 h -18.375 v 3 h -18.375 v -3 h -18.375 v 3 h -18.375 v -3 h -18.375 v 3 h -18.375 v -3 h -18.375 z"
             id="front_outsideCutPath-5"
             stroke="#FF0000"
             stroke-width="0.2"
             style="font-size:12px;fill:none;fill-rule:evenodd;stroke:#ff0000;stroke-width:0.2;stroke-linecap:round"
             vector-effect="non-scaling-stroke" />
          <path
             d="m -484.09086,389.65665 h -0.746 v -3.185 a 2.108,2.108 0 0 0 -0.024,-0.331 q -0.028,-0.174 -0.087,-0.313 a 0.887,0.887 0 0 0 -0.163,-0.255 0.841,0.841 0 0 0 -0.345,-0.22 q -0.135,-0.048 -0.302,-0.066 a 1.977,1.977 0 0 0 -0.211,-0.01 2.257,2.257 0 0 0 -0.422,0.037 q -0.236,0.044 -0.417,0.144 a 1.051,1.051 0 0 0 -0.293,0.237 q -0.36,0.417 -0.36,1.379 v 2.583 h -0.745 v -4.924 h 0.606 l 0.121,0.674 h 0.036 q 0.23,-0.364 0.643,-0.564 0.413,-0.2 0.921,-0.2 0.59,0 0.986,0.189 a 1.34,1.34 0 0 1 0.352,0.24 q 0.45,0.429 0.45,1.373 z m -14.326,-4.924 v 0.58 h -1.253 v 4.344 h -0.746 v -4.344 h -0.88 v -0.337 l 0.88,-0.27 v -0.274 a 3.022,3.022 0 0 1 0.071,-0.685 q 0.218,-0.934 1.111,-1.096 a 2.267,2.267 0 0 1 0.404,-0.034 2.401,2.401 0 0 1 0.34,0.026 q 0.165,0.024 0.349,0.069 a 4.827,4.827 0 0 1 0.227,0.063 l -0.193,0.597 a 3.621,3.621 0 0 0 -0.282,-0.079 q -0.142,-0.034 -0.267,-0.049 a 1.604,1.604 0 0 0 -0.188,-0.011 1.006,1.006 0 0 0 -0.242,0.027 0.646,0.646 0 0 0 -0.382,0.254 0.863,0.863 0 0 0 -0.114,0.23 q -0.076,0.224 -0.087,0.558 a 3.521,3.521 0 0 0 -0.001,0.112 v 0.319 z m 18.121,4.308 v 0.571 a 0.733,0.733 0 0 1 -0.087,0.034 q -0.092,0.031 -0.225,0.055 a 2.79,2.79 0 0 1 -0.045,0.007 3.232,3.232 0 0 1 -0.21,0.028 q -0.1,0.009 -0.189,0.01 a 1.911,1.911 0 0 1 -0.025,0 1.948,1.948 0 0 1 -0.574,-0.077 q -0.855,-0.263 -0.855,-1.427 v -2.929 h -0.705 v -0.36 l 0.705,-0.31 0.315,-1.051 h 0.431 v 1.141 h 1.429 v 0.58 h -1.429 v 2.897 q 0,0.313 0.104,0.523 a 0.723,0.723 0 0 0 0.107,0.16 q 0.211,0.238 0.58,0.238 a 2.449,2.449 0 0 0 0.358,-0.026 2.258,2.258 0 0 0 0.023,-0.003 4.034,4.034 0 0 0 0.108,-0.019 q 0.103,-0.019 0.174,-0.039 a 1.126,1.126 0 0 0 0.01,-0.003 z m -14.388,-4.344 -0.103,0.692 a 3.287,3.287 0 0 0 -0.237,-0.044 q -0.118,-0.017 -0.222,-0.021 a 1.749,1.749 0 0 0 -0.08,-0.002 1.292,1.292 0 0 0 -0.955,0.412 1.768,1.768 0 0 0 -0.067,0.073 q -0.425,0.485 -0.425,1.208 v 2.642 h -0.746 v -4.924 h 0.616 l 0.085,0.912 h 0.036 a 2.518,2.518 0 0 1 0.282,-0.402 1.924,1.924 0 0 1 0.379,-0.339 1.487,1.487 0 0 1 0.849,-0.261 3.423,3.423 0 0 1 0.306,0.013 2.499,2.499 0 0 1 0.282,0.041 z m 5.171,2.493 q 0,1.204 -0.607,1.88 -0.606,0.676 -1.676,0.676 a 2.395,2.395 0 0 1 -0.695,-0.098 2.076,2.076 0 0 1 -0.477,-0.212 2.019,2.019 0 0 1 -0.736,-0.783 2.451,2.451 0 0 1 -0.055,-0.106 2.759,2.759 0 0 1 -0.231,-0.752 3.73,3.73 0 0 1 -0.047,-0.605 3.872,3.872 0 0 1 0.068,-0.748 q 0.134,-0.681 0.534,-1.127 0.602,-0.672 1.671,-0.672 a 2.506,2.506 0 0 1 0.736,0.103 1.952,1.952 0 0 1 0.906,0.585 2.322,2.322 0 0 1 0.507,0.983 q 0.102,0.398 0.102,0.876 z m -3.751,0 a 3.776,3.776 0 0 0 0.035,0.54 q 0.04,0.274 0.123,0.496 a 1.564,1.564 0 0 0 0.219,0.402 1.222,1.222 0 0 0 0.796,0.469 1.852,1.852 0 0 0 0.313,0.025 1.732,1.732 0 0 0 0.457,-0.057 1.205,1.205 0 0 0 0.655,-0.435 1.601,1.601 0 0 0 0.25,-0.485 q 0.073,-0.225 0.105,-0.499 a 3.928,3.928 0 0 0 0.025,-0.456 q 0,-0.938 -0.38,-1.426 a 1.227,1.227 0 0 0 -0.762,-0.455 1.881,1.881 0 0 0 -0.359,-0.032 1.775,1.775 0 0 0 -0.441,0.051 1.188,1.188 0 0 0 -0.664,0.429 q -0.372,0.481 -0.372,1.433 z"
             id="front_labelLayer-2"
             stroke="#777777"
             fill="#777777"
             style="font-size:12px;fill:#777777;fill-rule:evenodd;stroke:#777777;stroke-width:0.25mm;stroke-linecap:round"
             vector-effect="non-scaling-stroke" />
        </g>
        <path
           d="m 182.27747,278.3504 h 13.813 v -3 h 18.375 v 3 h 13.812 v -23.688 h -3 v -18.375 h 3 v -18.375 h -3 v -18.375 h 3 v -18.375 h -3 v -18.375 h 3 v -18.375 h -3 v -18.375 h 3 v -18.375 -5.312 h -13.812 v 3 h -18.375 v -3 h -13.813 v 23.687 h 3 v 18.375 h -3 v 18.375 h 3 v 18.375 h -3 v 18.375 h 3 v 18.375 h -3 v 18.375 h 3 v 18.375 h -3 v 18.375 z"
           id="back_outsideCutPath-5"
           stroke="#FF0000"
           stroke-width="0.2"
           style="font-size:12px;fill:none;fill-rule:evenodd;stroke:#ff0000;stroke-width:0.2;stroke-linecap:round"
           vector-effect="non-scaling-stroke" />
        <g
           id="g6951"
           transform="translate(467.4097,79.739377)">
          <rect
             style="fill:none;stroke:#0000ff;stroke-width:0.20094;stroke-miterlimit:4;stroke-dasharray:none;stroke-opacity:1"
             id="rect1101"
             width="39.799061"
             height="19.799061"
             x="-195.61102"
             y="-261.79422"
             transform="rotate(-90)" />
          <rect
             style="fill:none;stroke:#ff0000;stroke-width:0.200705;stroke-miterlimit:4;stroke-dasharray:none;stroke-opacity:1"
             id="rect1101-1"
             width="39.799297"
             height="19.799295"
             x="-115.81187"
             y="-261.79434"
             transform="rotate(-90)" />
          <rect
             style="fill:none;stroke:#0000ff;stroke-width:0.200708;stroke-miterlimit:4;stroke-dasharray:none;stroke-opacity:1"
             id="rect1101-8"
             width="19.799292"
             height="19.799292"
             x="-135.81187"
             y="-261.79434"
             transform="rotate(-90)" />
          <rect
             style="fill:none;stroke:#ff0000;stroke-width:0.200708;stroke-miterlimit:4;stroke-dasharray:none;stroke-opacity:1"
             id="rect1101-8-5"
             width="19.799292"
             height="19.799292"
             x="-155.61116"
             y="-261.79434"
             transform="rotate(-90)" />
        </g>
      </g>
    </g>
  </g>
</svg>
