<?xml version="1.0" encoding="UTF-8" standalone="no"?>
<!-- Created with Inkscape (http://www.inkscape.org/) -->

<svg
   width="210mm"
   height="297mm"
   viewBox="0 0 210 297"
   version="1.1"
   id="svg5"
   inkscape:version="1.1.2 (b8e25be833, 2022-02-05)"
   sodipodi:docname="print_faris_b.svg"
   xmlns:inkscape="http://www.inkscape.org/namespaces/inkscape"
   xmlns:sodipodi="http://sodipodi.sourceforge.net/DTD/sodipodi-0.dtd"
   xmlns="http://www.w3.org/2000/svg"
   xmlns:svg="http://www.w3.org/2000/svg">
  <sodipodi:namedview
     id="namedview7"
     pagecolor="#ffffff"
     bordercolor="#666666"
     borderopacity="1.0"
     inkscape:pageshadow="2"
     inkscape:pageopacity="0.0"
     inkscape:pagecheckerboard="0"
     inkscape:document-units="mm"
     showgrid="false"
     showguides="false"
     inkscape:snap-bbox="true"
     inkscape:bbox-paths="true"
     inkscape:bbox-nodes="true"
     inkscape:snap-bbox-edge-midpoints="true"
     inkscape:snap-bbox-midpoints="true"
     inkscape:zoom="0.88194447"
     inkscape:cx="617.38581"
     inkscape:cy="863.99997"
     inkscape:window-width="1920"
     inkscape:window-height="1009"
     inkscape:window-x="-8"
     inkscape:window-y="-8"
     inkscape:window-maximized="1"
     inkscape:current-layer="layer1" />
  <defs
     id="defs2" />
  <g
     inkscape:label="Layer 1"
     inkscape:groupmode="layer"
     id="layer1">
    <g
       id="g5331"
       style="stroke-width:0.2;stroke-miterlimit:4;stroke-dasharray:none"
       transform="translate(205.69866,-16.310498)">
      <path
         d="m -185.15188,25.15249 v 16.75 h -2 v 19.5 h 2 v 19.5 h -2 v 19.5 h 2 v 19.5 h -2 v 19.5 h 2 v 19.5 h -2 v 19.5 h 2 v 16.75 h 16.75 v 2 h 19.5 v -2 h 19.5 v 2 h 19.5 v -2 h 19.5 v 2 h 19.5 v -2 h 19.5 v 2 h 19.5 v -2 h 16.75 v -16.75 h 2 v -19.5 h -2 v -19.5 h 2 v -19.5 h -2 v -19.5 h 2 v -19.5 h -2 v -19.5 h 2 v -19.5 h -2 v -16.75 h -16.75 v -2 h -19.5 v 2 h -19.5 v -2 h -19.5 v 2 h -19.5 v -2 h -19.5 v 2 h -19.5 v -2 h -19.5 v 2 z"
         id="top_outsideCutPath"
         stroke="#FF0000"
         stroke-width="0.1"
         style="font-size:12px;fill:none;fill-rule:evenodd;stroke:#ff0000;stroke-width:0.2;stroke-linecap:round;stroke-miterlimit:4;stroke-dasharray:none"
         vector-effect="non-scaling-stroke" />
      <path
         d="m -87.64588,115.04649 h -0.204 a 26.694,26.694 0 0 1 0.175,1.972 22.368,22.368 0 0 1 0.029,1.12 v 7.664 h -2.821 v -26.984 h 2.294 l 0.391,2.549 h 0.136 a 7.593,7.593 0 0 1 1.098,-1.247 5.871,5.871 0 0 1 1.434,-0.962 7.064,7.064 0 0 1 2.025,-0.592 9.143,9.143 0 0 1 1.288,-0.088 q 3.705,0 5.718,2.532 a 8.47,8.47 0 0 1 1.446,2.822 q 0.373,1.216 0.501,2.679 a 18.368,18.368 0 0 1 0.067,1.602 q 0,4.588 -2.048,7.128 -2.047,2.54 -5.684,2.54 a 8.556,8.556 0 0 1 -2.149,-0.262 7.444,7.444 0 0 1 -1.173,-0.409 6.247,6.247 0 0 1 -2.523,-2.064 z m -27.561,0.068 v 2.158 a 2.774,2.774 0 0 1 -0.329,0.13 q -0.351,0.117 -0.854,0.206 a 10.549,10.549 0 0 1 -0.168,0.029 q -0.833,0.135 -1.51,0.144 a 7.232,7.232 0 0 1 -0.096,0 7.367,7.367 0 0 1 -2.171,-0.292 q -2.386,-0.736 -3.011,-3.329 a 8.866,8.866 0 0 1 -0.221,-2.071 v -11.079 h -2.668 v -1.359 l 2.668,-1.173 1.189,-3.976 h 1.631 v 4.316 h 5.404 v 2.192 h -5.404 v 10.96 q 0,1.682 0.799,2.583 a 2.62,2.62 0 0 0 1.611,0.857 3.77,3.77 0 0 0 0.581,0.044 9.264,9.264 0 0 0 1.357,-0.098 8.535,8.535 0 0 0 0.087,-0.013 15.259,15.259 0 0 0 0.408,-0.07 q 0.416,-0.078 0.697,-0.159 z m 19.537,-4.167 a 14.57,14.57 0 0 0 0.259,-2.834 q 0,-1.81 -0.384,-3.315 a 8.783,8.783 0 0 0 -1.919,-3.72 7.384,7.384 0 0 0 -3.428,-2.211 9.478,9.478 0 0 0 -2.782,-0.389 10.955,10.955 0 0 0 -1.968,0.169 7.461,7.461 0 0 0 -4.354,2.372 7.793,7.793 0 0 0 -0.957,1.327 q -0.737,1.285 -1.062,2.935 a 14.646,14.646 0 0 0 -0.257,2.832 14.111,14.111 0 0 0 0.177,2.286 10.435,10.435 0 0 0 0.876,2.846 9.271,9.271 0 0 0 0.205,0.402 7.636,7.636 0 0 0 2.786,2.962 7.854,7.854 0 0 0 1.803,0.802 9.058,9.058 0 0 0 2.632,0.37 q 4.044,0 6.338,-2.557 a 7.869,7.869 0 0 0 0.937,-1.287 q 0.764,-1.308 1.098,-2.99 z m -13.93,-2.834 a 14.284,14.284 0 0 0 0.136,2.04 q 0.15,1.036 0.465,1.875 a 5.918,5.918 0 0 0 0.827,1.522 q 1.427,1.87 4.197,1.87 a 6.552,6.552 0 0 0 1.728,-0.215 4.56,4.56 0 0 0 2.477,-1.646 6.055,6.055 0 0 0 0.943,-1.837 q 0.277,-0.848 0.399,-1.884 a 14.858,14.858 0 0 0 0.094,-1.725 q 0,-3.551 -1.436,-5.395 -1.436,-1.844 -4.239,-1.844 a 6.713,6.713 0 0 0 -1.672,0.196 4.493,4.493 0 0 0 -2.508,1.622 5.832,5.832 0 0 0 -0.907,1.752 q -0.504,1.516 -0.504,3.669 z m 21.954,-0.629 v 0.629 q 0,3.334 0.944,5.056 a 4.254,4.254 0 0 0 0.365,0.56 4.092,4.092 0 0 0 2.075,1.401 q 0.694,0.217 1.54,0.271 a 9.07,9.07 0 0 0 0.582,0.019 4.753,4.753 0 0 0 1.848,-0.347 q 1.065,-0.445 1.826,-1.46 a 5.621,5.621 0 0 0 0.106,-0.148 6.82,6.82 0 0 0 0.935,-1.992 q 0.433,-1.463 0.433,-3.394 a 14.234,14.234 0 0 0 -0.133,-2.019 q -0.294,-2.046 -1.235,-3.325 -1.368,-1.861 -3.848,-1.861 a 8.128,8.128 0 0 0 -1.519,0.132 q -1.704,0.325 -2.61,1.449 a 4.833,4.833 0 0 0 -0.756,1.377 q -0.531,1.442 -0.553,3.652 z"
         id="top_labelLayer"
         stroke="#777777"
         fill="#777777"
         style="font-size:12px;fill:#777777;fill-rule:evenodd;stroke:#777777;stroke-width:0.2;stroke-linecap:round;stroke-miterlimit:4;stroke-dasharray:none"
         vector-effect="non-scaling-stroke" />
    </g>
    <path
       d="m 25.595949,186.54615 v 7.335 h -2 v 12.19 h 2 v 12.19 h -2 v 12.19 h 2 v 12.19 h -2 v 12.19 h 2 v 12.19 h -2 v 12.19 h 2 v 7.335 h 12.955 v 2 h 12.19 v -2 h 12.19 v 2 h 12.19 v -2 h 12.19 v 2 h 12.19 v -2 h 12.190021 v 2 h 12.19 v -2 h 12.19 v 2 h 12.19 v -2 h 12.19 v 2 h 12.19 v -2 h 12.955 v -7.335 h 2 v -12.19 h -2 v -12.19 h 2 v -12.19 h -2 v -12.19 h 2 v -12.19 h -2 v -12.19 h 2 v -12.19 h -2 v -7.335 h -12.955 v -2 h -12.19 v 2 h -12.19 v -2 h -12.19 v 2 h -12.19 v -2 h -12.19 v 2 H 99.500949 v -2 h -12.19 v 2 h -12.19 v -2 h -12.19 v 2 h -12.19 v -2 h -12.19 v 2 z"
       id="top_outsideCutPath-5"
       stroke="#FF0000"
       stroke-width="0.2"
       style="font-size:12px;fill:none;fill-rule:evenodd;stroke:#ff0000;stroke-width:0.2;stroke-linecap:round"
       vector-effect="non-scaling-stroke" />
    <rect
       style="fill:none;stroke:#0000ff;stroke-width:0.2;stroke-miterlimit:4;stroke-dasharray:none;stroke-opacity:1"
       id="rect2064"
       width="89.253731"
       height="149.25374"
       x="191.91928"
       y="-180.22282"
       transform="rotate(90)" />
    <rect
       style="fill:none;stroke:#ff0000;stroke-width:0.223;stroke-miterlimit:4;stroke-dasharray:none;stroke-opacity:1"
       id="rect2798"
       width="34.677082"
       height="34.677082"
       x="219.20761"
       y="-122.93449"
       transform="rotate(90)" />
    <rect
       style="fill:none;stroke:#0000ff;stroke-width:0.124086;stroke-miterlimit:4;stroke-dasharray:none;stroke-opacity:1"
       id="rect3428"
       width="31.875914"
       height="19.875914"
       x="38.048008"
       y="194.54109" />
    <rect
       style="fill:none;stroke:#0000ff;stroke-width:0.124086;stroke-miterlimit:4;stroke-dasharray:none;stroke-opacity:1"
       id="rect3428-6"
       width="31.875914"
       height="19.875914"
       x="38.039642"
       y="258.8396" />
    <rect
       style="fill:none;stroke:#0000ff;stroke-width:0.124086;stroke-miterlimit:4;stroke-dasharray:none;stroke-opacity:1"
       id="rect3428-6-8"
       width="31.875914"
       height="19.875914"
       x="141.27635"
       y="258.8396" />
    <rect
       style="fill:none;stroke:#0000ff;stroke-width:0.124086;stroke-miterlimit:4;stroke-dasharray:none;stroke-opacity:1"
       id="rect3428-6-8-8"
       width="31.875914"
       height="19.875914"
       x="141.28471"
       y="194.54109" />
    <rect
       style="fill:none;stroke:#0000ff;stroke-width:0.147573;stroke-miterlimit:4;stroke-dasharray:none;stroke-opacity:1"
       id="rect3884"
       width="6.9525819"
       height="89.306152"
       x="30.942871"
       y="191.89307" />
    <rect
       style="fill:none;stroke:#0000ff;stroke-width:0.147573;stroke-miterlimit:4;stroke-dasharray:none;stroke-opacity:1"
       id="rect3884-7"
       width="6.9525819"
       height="89.306152"
       x="173.29646"
       y="191.89307" />
    <rect
       style="fill:none;stroke:#0000ff;stroke-width:0.100051;stroke-miterlimit:4;stroke-dasharray:none;stroke-opacity:1"
       id="rect3884-5"
       width="135.13666"
       height="2.3954127"
       x="38.035992"
       y="192.03362" />
    <rect
       style="fill:none;stroke:#0000ff;stroke-width:0.100051;stroke-miterlimit:4;stroke-dasharray:none;stroke-opacity:1"
       id="rect3884-5-6"
       width="135.13666"
       height="2.3954127"
       x="38.027626"
       y="278.82758" />
    <rect
       style="fill:none;stroke:#0000ff;stroke-width:0.1;stroke-miterlimit:4;stroke-dasharray:none;stroke-opacity:1"
       id="rect4222"
       width="2.9187083"
       height="19.918709"
       x="38.035965"
       y="194.5197" />
    <rect
       style="fill:none;stroke:#0000ff;stroke-width:0.1;stroke-miterlimit:4;stroke-dasharray:none;stroke-opacity:1"
       id="rect4222-5"
       width="2.9187083"
       height="19.918709"
       x="38.027599"
       y="258.81821" />
    <rect
       style="fill:none;stroke:#0000ff;stroke-width:0.1;stroke-miterlimit:4;stroke-dasharray:none;stroke-opacity:1"
       id="rect4222-5-8"
       width="2.9187083"
       height="19.918709"
       x="170.25397"
       y="194.5197" />
    <rect
       style="fill:none;stroke:#0000ff;stroke-width:0.1;stroke-miterlimit:4;stroke-dasharray:none;stroke-opacity:1"
       id="rect4222-5-8-5"
       width="2.9187083"
       height="19.918709"
       x="170.23357"
       y="258.79681" />
    <ellipse
       style="fill:none;stroke:#0000ff;stroke-width:0.089017;stroke-miterlimit:4;stroke-dasharray:none;stroke-opacity:1"
       id="path4516"
       cx="51.004673"
       cy="204.4697"
       rx="9.955492"
       ry="9.9554911" />
    <ellipse
       style="fill:none;stroke:#0000ff;stroke-width:0.089017;stroke-miterlimit:4;stroke-dasharray:none;stroke-opacity:1"
       id="path4516-7"
       cx="160.20396"
       cy="204.4884"
       rx="9.955492"
       ry="9.9554911" />
    <ellipse
       style="fill:none;stroke:#0000ff;stroke-width:0.089017;stroke-miterlimit:4;stroke-dasharray:none;stroke-opacity:1"
       id="path4516-7-5"
       cx="160.18356"
       cy="268.76553"
       rx="9.955492"
       ry="9.9554911" />
    <ellipse
       style="fill:none;stroke:#0000ff;stroke-width:0.089017;stroke-miterlimit:4;stroke-dasharray:none;stroke-opacity:1"
       id="path4516-5"
       cx="50.996307"
       cy="268.78693"
       rx="9.955492"
       ry="9.9554911" />
    <ellipse
       style="fill:none;stroke:#ff0000;stroke-width:0.133525;stroke-miterlimit:4;stroke-dasharray:none;stroke-opacity:1"
       id="path4516-3"
       cx="51.004673"
       cy="204.4697"
       rx="14.933237"
       ry="14.933236" />
    <ellipse
       style="fill:none;stroke:#ff0000;stroke-width:0.133525;stroke-miterlimit:4;stroke-dasharray:none;stroke-opacity:1"
       id="path4516-3-6"
       cx="160.18356"
       cy="268.76553"
       rx="14.933237"
       ry="14.933236" />
    <ellipse
       style="fill:none;stroke:#ff0000;stroke-width:0.133525;stroke-miterlimit:4;stroke-dasharray:none;stroke-opacity:1"
       id="path4516-3-6-3"
       cx="160.20396"
       cy="204.4884"
       rx="14.933237"
       ry="14.933236" />
    <ellipse
       style="fill:none;stroke:#ff0000;stroke-width:0.133525;stroke-miterlimit:4;stroke-dasharray:none;stroke-opacity:1"
       id="path4516-3-7"
       cx="50.996307"
       cy="268.78693"
       rx="14.933237"
       ry="14.933236" />
  </g>
</svg>
