<?xml version="1.0" encoding="UTF-8" standalone="no"?>
<!-- Created with Inkscape (http://www.inkscape.org/) -->

<svg
   width="297mm"
   height="420mm"
   viewBox="0 0 297 420"
   version="1.1"
   id="svg5"
   inkscape:version="1.1.2 (b8e25be833, 2022-02-05)"
   sodipodi:docname="back_front.svg"
   xmlns:inkscape="http://www.inkscape.org/namespaces/inkscape"
   xmlns:sodipodi="http://sodipodi.sourceforge.net/DTD/sodipodi-0.dtd"
   xmlns="http://www.w3.org/2000/svg"
   xmlns:svg="http://www.w3.org/2000/svg">
  <sodipodi:namedview
     id="namedview7"
     pagecolor="#ffffff"
     bordercolor="#666666"
     borderopacity="1.0"
     inkscape:pageshadow="2"
     inkscape:pageopacity="0.0"
     inkscape:pagecheckerboard="0"
     inkscape:document-units="mm"
     showgrid="false"
     inkscape:zoom="0.183293"
     inkscape:cx="-641.05012"
     inkscape:cy="1085.6934"
     inkscape:window-width="1920"
     inkscape:window-height="1009"
     inkscape:window-x="-8"
     inkscape:window-y="-8"
     inkscape:window-maximized="1"
     inkscape:current-layer="layer1" />
  <defs
     id="defs2" />
  <g
     inkscape:label="Layer 1"
     inkscape:groupmode="layer"
     id="layer1">
    <g
       id="g88"
       transform="translate(237.75,-375)">
      <g
         id="g94"
         transform="translate(44.25,9.75)">
        <path
           d="m -271.20657,567.13305 v 20.813 h 3 v 20.625 h -3 v 20.625 h 3 v 20.625 h -3 v 20.625 h 3 v 20.625 h -3 v 20.625 h 3 v 20.625 h -3 v 20.812 h 24.563 v -3 h 20.625 v 3 h 20.625 v -3 h 20.625 v 3 h 20.625 v -3 h 20.625 v 3 h 20.625 v -3 h 20.625 v 3 h 20.625 v -3 h 20.625 v 3 h 20.625 v -3 h 20.625 v 3 h 24.562 v -20.812 h -3 v -20.625 h 3 v -20.625 h -3 v -20.625 h 3 v -20.625 h -3 v -20.625 h 3 v -20.625 h -3 v -20.625 h 3 v -20.813 h -24.562 v 3 h -20.625 v -3 h -20.625 v 3 h -20.625 v -3 h -20.625 v 3 h -20.625 v -3 h -20.625 v 3 h -20.625 v -3 h -20.625 v 3 h -20.625 v -3 h -20.625 v 3 h -20.625 v -3 z"
           id="front_outsideCutPath"
           stroke="#FF0000"
           stroke-width="0.2"
           style="font-size:12px;fill:none;fill-rule:evenodd;stroke:#ff0000;stroke-width:0.2;stroke-linecap:round"
           vector-effect="non-scaling-stroke" />
        <path
           d="m -106.09657,674.18305 h -3.015 v -12.879 a 8.523,8.523 0 0 0 -0.098,-1.336 q -0.112,-0.704 -0.353,-1.265 a 3.587,3.587 0 0 0 -0.657,-1.032 3.399,3.399 0 0 0 -1.395,-0.889 q -0.547,-0.194 -1.221,-0.266 a 7.994,7.994 0 0 0 -0.854,-0.043 q -2.058,0 -3.391,0.733 a 4.251,4.251 0 0 0 -1.186,0.956 4.929,4.929 0 0 0 -0.857,1.498 q -0.596,1.588 -0.596,4.078 v 10.445 h -3.015 v -19.908 h 2.452 l 0.49,2.724 h 0.145 q 0.927,-1.471 2.598,-2.279 a 8.165,8.165 0 0 1 2.905,-0.775 9.873,9.873 0 0 1 0.819,-0.034 q 3.596,0 5.412,1.735 1.382,1.32 1.713,3.843 a 13.158,13.158 0 0 1 0.104,1.706 z m -57.925,-19.908 v 2.343 h -5.068 v 17.565 h -3.015 v -17.565 h -3.56 v -1.362 l 3.56,-1.09 v -1.108 a 12.221,12.221 0 0 1 0.285,-2.77 q 1.067,-4.569 6.127,-4.569 1.228,0 2.786,0.385 a 19.518,19.518 0 0 1 0.919,0.251 l -0.781,2.416 q -1.239,-0.4 -2.221,-0.516 a 6.485,6.485 0 0 0 -0.758,-0.047 4.066,4.066 0 0 0 -0.98,0.111 2.611,2.611 0 0 0 -1.545,1.024 3.489,3.489 0 0 0 -0.461,0.93 q -0.306,0.909 -0.349,2.258 a 14.236,14.236 0 0 0 -0.007,0.454 v 1.29 z m 73.273,17.419 v 2.307 a 2.966,2.966 0 0 1 -0.351,0.139 q -0.437,0.145 -1.093,0.251 a 13.069,13.069 0 0 1 -0.852,0.111 q -0.401,0.038 -0.762,0.043 a 7.729,7.729 0 0 1 -0.102,0.001 7.875,7.875 0 0 1 -2.321,-0.313 q -3.455,-1.066 -3.455,-5.772 v -11.843 h -2.852 v -1.453 l 2.852,-1.254 1.271,-4.25 h 1.744 v 4.614 h 5.776 v 2.343 h -5.776 v 11.716 a 6.072,6.072 0 0 0 0.088,1.066 q 0.104,0.585 0.333,1.048 a 2.925,2.925 0 0 0 0.433,0.647 2.801,2.801 0 0 0 1.722,0.916 4.03,4.03 0 0 0 0.621,0.046 9.902,9.902 0 0 0 1.451,-0.103 9.127,9.127 0 0 0 0.093,-0.015 q 0.745,-0.118 1.18,-0.245 z m -58.179,-17.565 -0.418,2.798 q -1.029,-0.227 -1.856,-0.265 a 7.072,7.072 0 0 0 -0.323,-0.008 5.225,5.225 0 0 0 -3.86,1.667 7.148,7.148 0 0 0 -0.273,0.295 6.886,6.886 0 0 0 -1.661,3.866 9.152,9.152 0 0 0 -0.055,1.02 v 10.681 h -3.016 v -19.908 h 2.489 l 0.345,3.687 h 0.145 a 10.183,10.183 0 0 1 1.139,-1.627 7.778,7.778 0 0 1 1.532,-1.37 6.011,6.011 0 0 1 3.433,-1.054 q 1.325,0 2.379,0.218 z m 20.63,13.111 a 15.575,15.575 0 0 0 0.277,-3.03 17.696,17.696 0 0 0 -0.007,-0.478 q -0.044,-1.658 -0.403,-3.065 a 9.389,9.389 0 0 0 -2.051,-3.976 7.893,7.893 0 0 0 -3.665,-2.364 10.132,10.132 0 0 0 -2.974,-0.416 11.711,11.711 0 0 0 -2.104,0.181 7.975,7.975 0 0 0 -4.653,2.535 8.33,8.33 0 0 0 -1.023,1.419 q -0.789,1.373 -1.137,3.137 a 15.656,15.656 0 0 0 -0.274,3.027 15.084,15.084 0 0 0 0.189,2.444 11.154,11.154 0 0 0 0.937,3.042 9.91,9.91 0 0 0 0.219,0.43 8.163,8.163 0 0 0 2.978,3.166 8.396,8.396 0 0 0 1.927,0.857 9.683,9.683 0 0 0 2.813,0.397 11.708,11.708 0 0 0 2.045,-0.171 8.039,8.039 0 0 0 4.731,-2.563 8.411,8.411 0 0 0 1.001,-1.376 q 0.817,-1.398 1.174,-3.196 z m -14.89,-3.03 a 15.269,15.269 0 0 0 0.145,2.182 q 0.16,1.107 0.497,2.004 a 6.326,6.326 0 0 0 0.884,1.627 4.942,4.942 0 0 0 3.218,1.895 7.489,7.489 0 0 0 1.268,0.103 q 2.961,0 4.496,-1.989 1.535,-1.989 1.535,-5.822 a 15.045,15.045 0 0 0 -0.143,-2.143 q -0.157,-1.092 -0.489,-1.976 a 6.208,6.208 0 0 0 -0.903,-1.648 4.96,4.96 0 0 0 -3.084,-1.839 7.605,7.605 0 0 0 -1.448,-0.131 7.176,7.176 0 0 0 -1.787,0.209 4.802,4.802 0 0 0 -2.682,1.734 6.234,6.234 0 0 0 -0.969,1.873 q -0.538,1.62 -0.538,3.921 z"
           id="front_labelLayer"
           stroke="#777777"
           fill="#777777"
           style="font-size:12px;fill:#777777;fill-rule:evenodd;stroke:#777777;stroke-width:0.25mm;stroke-linecap:round"
           vector-effect="non-scaling-stroke" />
        <path
           d="m -271.20657,378.13305 v 20.813 h 3 v 20.625 h -3 v 20.625 h 3 v 20.625 h -3 v 20.625 h 3 v 20.625 h -3 v 20.625 h 3 v 20.625 h -3 v 20.812 h 24.563 v -3 h 20.625 v 3 h 20.625 v -3 h 20.625 v 3 h 20.625 v -3 h 20.625 v 3 h 20.625 v -3 h 20.625 v 3 h 20.625 v -3 h 20.625 v 3 h 20.625 v -3 h 20.625 v 3 h 24.562 v -20.812 h -3 v -20.625 h 3 v -20.625 h -3 v -20.625 h 3 v -20.625 h -3 v -20.625 h 3 v -20.625 h -3 v -20.625 h 3 v -20.813 h -24.562 v 3 h -20.625 v -3 h -20.625 v 3 h -20.625 v -3 h -20.625 v 3 h -20.625 v -3 h -20.625 v 3 h -20.625 v -3 h -20.625 v 3 h -20.625 v -3 h -20.625 v 3 h -20.625 v -3 z"
           id="back_outsideCutPath"
           stroke="#FF0000"
           stroke-width="0.2"
           style="font-size:12px;fill:none;fill-rule:evenodd;stroke:#ff0000;stroke-width:0.2;stroke-linecap:round"
           vector-effect="non-scaling-stroke" />
        <path
           d="m -107.74057,474.89305 h 0.145 a 17.85,17.85 0 0 1 0.442,-0.597 q 0.508,-0.661 1.233,-1.504 a 64.786,64.786 0 0 1 0.705,-0.805 l 6.43,-6.812 h 3.578 l -8.065,8.483 8.628,11.425 h -3.651 l -7.029,-9.409 -2.271,1.962 v 7.447 h -2.979 v -28.263 h 2.979 v 14.985 a 20.093,20.093 0 0 1 -0.009,0.567 q -0.026,0.931 -0.131,2.445 a 125.463,125.463 0 0 1 -0.005,0.076 z m -61.013,7.629 h -0.218 l -0.636,2.561 h -2.161 v -28.263 h 3.015 v 6.866 a 62.865,62.865 0 0 1 -0.034,2.123 q -0.034,1.005 -0.102,1.899 a 37.661,37.661 0 0 1 -0.009,0.119 h 0.145 q 2.107,-2.979 6.248,-2.979 a 9.216,9.216 0 0 1 2.594,0.346 6.899,6.899 0 0 1 3.5,2.333 8.885,8.885 0 0 1 1.558,3.001 q 0.613,1.977 0.613,4.583 a 17.679,17.679 0 0 1 -0.234,2.974 q -0.271,1.585 -0.856,2.857 a 8.475,8.475 0 0 1 -1.099,1.789 7.138,7.138 0 0 1 -5.073,2.667 10.227,10.227 0 0 1 -1.003,0.048 q -1.943,0 -3.551,-0.717 a 6.678,6.678 0 0 1 -2.697,-2.207 z m 34.257,2.561 h -2.234 l -0.599,-2.834 h -0.146 q -1.051,1.321 -2.098,2.04 a 5.555,5.555 0 0 1 -0.871,0.494 6.953,6.953 0 0 1 -1.437,0.453 q -0.696,0.145 -1.503,0.19 a 13.569,13.569 0 0 1 -0.757,0.02 q -2.368,0 -3.917,-0.976 a 5.192,5.192 0 0 1 -0.724,-0.55 q -1.68,-1.525 -1.68,-4.341 0,-5.836 9.032,-6.296 a 29.453,29.453 0 0 1 0.613,-0.025 l 3.379,-0.109 v -1.235 q 0,-1.432 -0.377,-2.406 a 3.365,3.365 0 0 0 -0.631,-1.054 q -0.805,-0.892 -2.378,-1.072 a 7.45,7.45 0 0 0 -0.846,-0.045 q -2.001,0 -4.424,0.986 a 20.194,20.194 0 0 0 -1.207,0.539 l -0.927,-2.307 a 13.902,13.902 0 0 1 2.684,-1.103 15.825,15.825 0 0 1 0.54,-0.15 q 1.753,-0.454 3.515,-0.454 a 12.735,12.735 0 0 1 1.94,0.137 q 2.127,0.329 3.337,1.443 1.716,1.581 1.716,5.068 z m 19.49,-19.236 -0.926,2.561 a 13.414,13.414 0 0 0 -1.455,-0.484 16.021,16.021 0 0 0 -0.725,-0.179 q -1.18,-0.263 -2.089,-0.263 a 6.688,6.688 0 0 0 -2.716,0.51 q -2.846,1.255 -3.275,5.595 a 16.661,16.661 0 0 0 -0.075,1.633 14.603,14.603 0 0 0 0.144,2.126 q 0.159,1.078 0.493,1.954 a 6.254,6.254 0 0 0 0.843,1.551 4.789,4.789 0 0 0 3.103,1.854 7.295,7.295 0 0 0 1.284,0.107 12.622,12.622 0 0 0 3.481,-0.506 15.584,15.584 0 0 0 1.623,-0.565 v 2.67 a 8.577,8.577 0 0 1 -2.098,0.742 q -0.97,0.215 -2.097,0.272 a 16.535,16.535 0 0 1 -0.837,0.021 11.269,11.269 0 0 1 -2.741,-0.314 7.642,7.642 0 0 1 -3.952,-2.347 q -2.371,-2.661 -2.371,-7.529 0,-4.995 2.407,-7.72 a 7.807,7.807 0 0 1 4.275,-2.458 11.836,11.836 0 0 1 2.582,-0.266 13.607,13.607 0 0 1 2.87,0.308 15.05,15.05 0 0 1 0.837,0.204 q 0.853,0.236 1.415,0.523 z m -51.22,2.274 a 4.01,4.01 0 0 0 -1.165,1.023 q -1.362,1.771 -1.362,5.967 a 19.936,19.936 0 0 0 0.099,2.06 q 0.216,2.079 0.91,3.344 a 4.548,4.548 0 0 0 0.39,0.599 q 1.253,1.62 3.865,1.788 a 9.695,9.695 0 0 0 0.621,0.019 6.011,6.011 0 0 0 1.707,-0.228 4.336,4.336 0 0 0 2.434,-1.797 q 0.974,-1.447 1.252,-3.797 a 17.277,17.277 0 0 0 0.111,-2.025 17.814,17.814 0 0 0 -0.108,-2.029 q -0.255,-2.221 -1.116,-3.561 a 5.002,5.002 0 0 0 -0.139,-0.204 4.397,4.397 0 0 0 -2.799,-1.772 6.974,6.974 0 0 0 -1.415,-0.135 q -2.007,0 -3.285,0.748 z m 28.715,8.97 v -1.799 l -3.015,0.128 q -3.003,0.106 -4.607,0.814 a 4.631,4.631 0 0 0 -0.579,0.303 3.217,3.217 0 0 0 -1.533,2.334 4.762,4.762 0 0 0 -0.056,0.744 q 0,1.438 0.765,2.271 a 2.686,2.686 0 0 0 0.225,0.218 q 0.855,0.737 2.299,0.838 a 6.782,6.782 0 0 0 0.471,0.016 8.302,8.302 0 0 0 1.793,-0.183 q 1.249,-0.276 2.17,-0.97 a 5.034,5.034 0 0 0 0.46,-0.391 5.05,5.05 0 0 0 1.408,-2.522 q 0.196,-0.811 0.199,-1.771 a 9.595,9.595 0 0 0 0,-0.03 z"
           id="back_labelLayer"
           stroke="#777777"
           fill="#777777"
           style="font-size:12px;fill:#777777;fill-rule:evenodd;stroke:#777777;stroke-width:0.25mm;stroke-linecap:round"
           vector-effect="non-scaling-stroke" />
      </g>
    </g>
  </g>
</svg>
