<?xml version="1.0" encoding="UTF-8" standalone="no"?>
<!-- Created with Inkscape (http://www.inkscape.org/) -->

<svg
   width="297mm"
   height="420mm"
   viewBox="0 0 297 420"
   version="1.1"
   id="svg170"
   inkscape:version="1.1.2 (b8e25be833, 2022-02-05)"
   sodipodi:docname="bottom.svg"
   xmlns:inkscape="http://www.inkscape.org/namespaces/inkscape"
   xmlns:sodipodi="http://sodipodi.sourceforge.net/DTD/sodipodi-0.dtd"
   xmlns="http://www.w3.org/2000/svg"
   xmlns:svg="http://www.w3.org/2000/svg">
  <sodipodi:namedview
     id="namedview172"
     pagecolor="#ffffff"
     bordercolor="#666666"
     borderopacity="1.0"
     inkscape:pageshadow="2"
     inkscape:pageopacity="0.0"
     inkscape:pagecheckerboard="0"
     inkscape:document-units="mm"
     showgrid="false"
     inkscape:zoom="0.366586"
     inkscape:cx="50.465648"
     inkscape:cy="862.00783"
     inkscape:window-width="1920"
     inkscape:window-height="1009"
     inkscape:window-x="-8"
     inkscape:window-y="-8"
     inkscape:window-maximized="1"
     inkscape:current-layer="layer1" />
  <defs
     id="defs167" />
  <g
     inkscape:label="Layer 1"
     inkscape:groupmode="layer"
     id="layer1">
    <g
       id="g78"
       transform="translate(-275.39124,-190.33961)">
      <path
         d="m 289.79343,201.13305 v 21.563 h -3 v 20.625 h 3 v 20.625 h -3 v 20.625 h 3 v 20.625 h -3 v 20.625 h 3 v 20.625 h -3 v 20.625 h 3 v 20.625 h -3 v 20.625 h 3 v 20.625 h -3 v 20.625 h 3 v 21.562 h 21.563 v 3 h 20.625 v -3 h 20.625 v 3 h 20.625 v -3 h 20.625 v 3 h 20.625 v -3 h 20.625 v 3 h 20.625 v -3 h 20.625 v 3 h 20.625 v -3 h 20.625 v 3 h 20.625 v -3 h 21.562 v -21.562 h 3 v -20.625 h -3 v -20.625 h 3 v -20.625 h -3 v -20.625 h 3 v -20.625 h -3 v -20.625 h 3 v -20.625 h -3 v -20.625 h 3 v -20.625 h -3 v -20.625 h 3 v -20.625 h -3 v -21.563 h -21.562 v -3 h -20.625 v 3 h -20.625 v -3 h -20.625 v 3 h -20.625 v -3 h -20.625 v 3 h -20.625 v -3 h -20.625 v 3 h -20.625 v -3 h -20.625 v 3 h -20.625 v -3 h -20.625 v 3 z"
         id="bottom_outsideCutPath"
         stroke="#FF0000"
         stroke-width="0.2"
         style="font-size:12px;fill:none;fill-rule:evenodd;stroke:#ff0000;stroke-width:0.2;stroke-linecap:round"
         vector-effect="non-scaling-stroke" />
      <path
         d="m 515.59843,356.83205 h -4.474 v -19.217 a 13.199,13.199 0 0 0 -0.133,-1.941 q -0.315,-2.114 -1.377,-3.356 a 4.708,4.708 0 0 0 -2.188,-1.415 q -0.78,-0.252 -1.731,-0.322 a 10.386,10.386 0 0 0 -0.77,-0.028 11.513,11.513 0 0 0 -2.344,0.223 q -2.442,0.508 -3.829,2.176 a 7.394,7.394 0 0 0 -1.254,2.269 q -0.735,2.062 -0.74,5.07 a 24.857,24.857 0 0 0 0,0.046 v 16.495 h -4.475 v -19.217 a 13.199,13.199 0 0 0 -0.133,-1.941 q -0.315,-2.114 -1.376,-3.356 -1.306,-1.528 -3.884,-1.733 a 10.477,10.477 0 0 0 -0.833,-0.032 11.113,11.113 0 0 0 -2.298,0.222 q -1.418,0.3 -2.474,1.005 a 5.864,5.864 0 0 0 -1.386,1.293 7.503,7.503 0 0 0 -1.113,2.113 q -0.721,2.041 -0.824,5.1 a 31.151,31.151 0 0 0 -0.018,1.048 v 15.498 h -4.474 v -29.54 h 3.639 l 0.728,4.043 h 0.215 a 8.793,8.793 0 0 1 3.572,-3.369 10.622,10.622 0 0 1 4.195,-1.178 12.83,12.83 0 0 1 0.966,-0.035 14.649,14.649 0 0 1 3.297,0.343 q 2.028,0.469 3.443,1.58 a 7.639,7.639 0 0 1 2.316,3.09 h 0.216 a 9.342,9.342 0 0 1 3.519,-3.493 11.224,11.224 0 0 1 0.308,-0.173 11.324,11.324 0 0 1 4.154,-1.263 14.12,14.12 0 0 1 1.56,-0.084 q 5.014,0 7.507,2.574 a 7.705,7.705 0 0 1 1.654,2.706 q 0.839,2.244 0.839,5.528 z m -177.136,-3.8 h -0.323 l -0.944,3.8 h -3.207 v -41.939 h 4.474 v 10.189 q 0,3.312 -0.202,5.969 a 55.833,55.833 0 0 1 -0.014,0.176 h 0.216 a 10.173,10.173 0 0 1 7.425,-4.313 15.281,15.281 0 0 1 1.847,-0.107 13.675,13.675 0 0 1 3.848,0.513 10.237,10.237 0 0 1 5.195,3.462 13.184,13.184 0 0 1 2.312,4.453 q 0.909,2.934 0.909,6.8 0,7.277 -3.248,11.307 a 10.592,10.592 0 0 1 -7.528,3.958 15.175,15.175 0 0 1 -1.488,0.071 13.571,13.571 0 0 1 -3.41,-0.416 11.808,11.808 0 0 1 -1.859,-0.648 9.91,9.91 0 0 1 -4.003,-3.275 z m 76.277,0.108 v 3.423 a 4.401,4.401 0 0 1 -0.522,0.207 q -0.556,0.185 -1.353,0.327 a 16.731,16.731 0 0 1 -0.267,0.045 q -1.321,0.214 -2.396,0.228 a 11.467,11.467 0 0 1 -0.151,0.001 11.686,11.686 0 0 1 -3.444,-0.463 q -3.786,-1.168 -4.776,-5.28 a 14.064,14.064 0 0 1 -0.352,-3.286 v -17.573 h -4.231 v -2.157 l 4.231,-1.859 1.887,-6.307 h 2.588 v 6.846 h 8.571 v 3.477 h -8.571 v 17.384 a 9.01,9.01 0 0 0 0.13,1.583 q 0.275,1.543 1.136,2.514 a 4.156,4.156 0 0 0 2.556,1.36 5.98,5.98 0 0 0 0.921,0.069 14.694,14.694 0 0 0 2.153,-0.154 13.543,13.543 0 0 0 0.138,-0.021 q 1.055,-0.168 1.692,-0.347 a 6.72,6.72 0 0 0 0.06,-0.017 z m 19.487,0 v 3.423 a 4.401,4.401 0 0 1 -0.521,0.207 q -0.557,0.185 -1.354,0.327 a 16.731,16.731 0 0 1 -0.267,0.045 q -1.321,0.214 -2.396,0.228 a 11.467,11.467 0 0 1 -0.151,0.001 11.686,11.686 0 0 1 -3.444,-0.463 q -3.786,-1.168 -4.776,-5.28 a 14.064,14.064 0 0 1 -0.351,-3.286 v -17.573 h -4.232 v -2.157 l 4.232,-1.859 1.886,-6.307 h 2.588 v 6.846 h 8.571 v 3.477 h -8.571 v 17.384 a 9.01,9.01 0 0 0 0.13,1.583 q 0.276,1.543 1.137,2.514 a 4.156,4.156 0 0 0 2.555,1.36 5.98,5.98 0 0 0 0.921,0.069 14.694,14.694 0 0 0 2.153,-0.154 13.543,13.543 0 0 0 0.139,-0.021 q 1.054,-0.168 1.691,-0.347 a 6.72,6.72 0 0 0 0.06,-0.017 z m -41.325,-6.609 a 23.111,23.111 0 0 0 0.411,-4.496 26.259,26.259 0 0 0 -0.01,-0.71 q -0.177,-6.535 -3.643,-10.449 -3.652,-4.123 -9.851,-4.123 a 17.377,17.377 0 0 0 -3.121,0.267 11.834,11.834 0 0 0 -6.905,3.762 12.361,12.361 0 0 0 -1.519,2.105 q -1.169,2.039 -1.686,4.655 a 23.231,23.231 0 0 0 -0.407,4.493 22.383,22.383 0 0 0 0.281,3.626 16.552,16.552 0 0 0 1.39,4.514 14.706,14.706 0 0 0 0.326,0.638 12.113,12.113 0 0 0 4.418,4.699 12.458,12.458 0 0 0 2.859,1.271 14.368,14.368 0 0 0 4.175,0.588 17.374,17.374 0 0 0 3.034,-0.253 11.928,11.928 0 0 0 7.02,-3.803 12.481,12.481 0 0 0 1.486,-2.042 q 1.212,-2.074 1.742,-4.742 z m 72.315,0 a 23.111,23.111 0 0 0 0.411,-4.496 26.259,26.259 0 0 0 -0.01,-0.71 q -0.176,-6.535 -3.642,-10.449 -3.652,-4.123 -9.852,-4.123 a 17.377,17.377 0 0 0 -3.121,0.267 11.834,11.834 0 0 0 -6.905,3.762 12.361,12.361 0 0 0 -1.518,2.105 q -1.17,2.039 -1.686,4.655 a 23.231,23.231 0 0 0 -0.408,4.493 22.383,22.383 0 0 0 0.281,3.626 16.552,16.552 0 0 0 1.39,4.514 14.706,14.706 0 0 0 0.326,0.638 12.113,12.113 0 0 0 4.418,4.699 12.458,12.458 0 0 0 2.86,1.271 14.368,14.368 0 0 0 4.175,0.588 17.374,17.374 0 0 0 3.034,-0.253 11.928,11.928 0 0 0 7.019,-3.803 12.481,12.481 0 0 0 1.486,-2.042 q 1.213,-2.074 1.742,-4.742 z m -94.41,-4.496 a 22.657,22.657 0 0 0 0.215,3.237 q 0.238,1.643 0.738,2.974 a 9.387,9.387 0 0 0 1.311,2.414 7.333,7.333 0 0 0 4.776,2.813 11.112,11.112 0 0 0 1.881,0.152 q 4.394,0 6.671,-2.951 a 9.605,9.605 0 0 0 1.496,-2.914 q 0.44,-1.346 0.632,-2.989 a 23.568,23.568 0 0 0 0.15,-2.736 q 0,-3.614 -0.938,-6.112 a 9.212,9.212 0 0 0 -1.34,-2.446 q -2.277,-2.924 -6.725,-2.924 a 10.648,10.648 0 0 0 -2.651,0.311 7.126,7.126 0 0 0 -3.979,2.573 9.251,9.251 0 0 0 -1.438,2.779 q -0.799,2.404 -0.799,5.819 z m 72.315,0 a 22.657,22.657 0 0 0 0.216,3.237 q 0.237,1.643 0.737,2.974 a 9.387,9.387 0 0 0 1.311,2.414 7.333,7.333 0 0 0 4.776,2.813 11.112,11.112 0 0 0 1.881,0.152 q 4.394,0 6.671,-2.951 a 9.605,9.605 0 0 0 1.496,-2.914 q 0.44,-1.346 0.632,-2.989 a 23.568,23.568 0 0 0 0.15,-2.736 q 0,-3.614 -0.937,-6.112 a 9.212,9.212 0 0 0 -1.341,-2.446 q -2.277,-2.924 -6.724,-2.924 a 10.648,10.648 0 0 0 -2.651,0.311 7.126,7.126 0 0 0 -3.98,2.573 9.251,9.251 0 0 0 -1.438,2.779 q -0.799,2.404 -0.799,5.819 z m -96.034,-11.482 q -4.582,0 -6.604,2.628 a 7.659,7.659 0 0 0 -1.108,2.112 q -0.748,2.097 -0.883,5.284 a 34.472,34.472 0 0 0 -0.03,1.458 q 0,5.289 1.497,8.02 a 6.748,6.748 0 0 0 0.578,0.888 6.491,6.491 0 0 0 3.293,2.222 q 1.101,0.345 2.443,0.431 a 14.386,14.386 0 0 0 0.922,0.029 8.919,8.919 0 0 0 2.533,-0.339 6.435,6.435 0 0 0 3.612,-2.666 q 2.022,-3.006 2.022,-8.639 a 26.434,26.434 0 0 0 -0.16,-3.012 q -0.379,-3.295 -1.657,-5.283 a 7.422,7.422 0 0 0 -0.205,-0.303 6.525,6.525 0 0 0 -4.154,-2.629 10.348,10.348 0 0 0 -2.099,-0.201 z"
         id="bottom_labelLayer"
         stroke="#777777"
         fill="#777777"
         style="font-size:12px;fill:#777777;fill-rule:evenodd;stroke:#777777;stroke-width:0.25mm;stroke-linecap:round"
         vector-effect="non-scaling-stroke" />
    </g>
  </g>
</svg>
