<svg width="834mm" height="555mm" viewBox="0 0 834 555" xmlns="http://www.w3.org/2000/svg" version="1.1" preserveAspectRatio="xMidYMid meet"><g id="svgGroup" stroke-linecap="round" fill-rule="evenodd" font-size="9pt" stroke="#000" stroke-width="0.25mm" fill="none" style="stroke:#000;stroke-width:0.25mm;fill:none"><path d="M 0 369 L 0 389.813 L 3 389.813 L 3 410.438 L 0 410.438 L 0 431.063 L 3 431.063 L 3 451.688 L 0 451.688 L 0 472.313 L 3 472.313 L 3 492.938 L 0 492.938 L 0 513.563 L 3 513.563 L 3 534.188 L 0 534.188 L 0 555 L 24.563 555 L 24.563 552 L 45.188 552 L 45.188 555 L 65.813 555 L 65.813 552 L 86.438 552 L 86.438 555 L 107.063 555 L 107.063 552 L 127.688 552 L 127.688 555 L 148.313 555 L 148.313 552 L 168.938 552 L 168.938 555 L 189.563 555 L 189.563 552 L 210.188 552 L 210.188 555 L 230.813 555 L 230.813 552 L 251.438 552 L 251.438 555 L 276 555 L 276 534.188 L 273 534.188 L 273 513.563 L 276 513.563 L 276 492.938 L 273 492.938 L 273 472.313 L 276 472.313 L 276 451.688 L 273 451.688 L 273 431.063 L 276 431.063 L 276 410.438 L 273 410.438 L 273 389.813 L 276 389.813 L 276 369 L 251.438 369 L 251.438 372 L 230.813 372 L 230.813 369 L 210.188 369 L 210.188 372 L 189.563 372 L 189.563 369 L 168.938 369 L 168.938 372 L 148.313 372 L 148.313 369 L 127.688 369 L 127.688 372 L 107.063 372 L 107.063 369 L 86.438 369 L 86.438 372 L 65.813 372 L 65.813 369 L 45.188 369 L 45.188 372 L 24.563 372 L 24.563 369 L 0 369 Z" id="front_outsideCutPath" stroke="#FF0000" stroke-width="0.2" style="stroke:#FF0000;stroke-width:0.2" vector-effect="non-scaling-stroke"/><path d="M 165.11 476.05 L 162.095 476.05 L 162.095 463.171 A 8.523 8.523 0 0 0 161.997 461.835 Q 161.885 461.131 161.644 460.57 A 3.587 3.587 0 0 0 160.987 459.538 A 3.399 3.399 0 0 0 159.592 458.649 Q 159.045 458.455 158.371 458.383 A 7.994 7.994 0 0 0 157.517 458.34 Q 155.459 458.34 154.126 459.073 A 4.251 4.251 0 0 0 152.94 460.029 A 4.929 4.929 0 0 0 152.083 461.527 Q 151.487 463.115 151.487 465.605 L 151.487 476.05 L 148.472 476.05 L 148.472 456.142 L 150.924 456.142 L 151.414 458.866 L 151.559 458.866 Q 152.486 457.395 154.157 456.587 A 8.165 8.165 0 0 1 157.062 455.812 A 9.873 9.873 0 0 1 157.881 455.778 Q 161.477 455.778 163.293 457.513 Q 164.675 458.833 165.006 461.356 A 13.158 13.158 0 0 1 165.11 463.062 L 165.11 476.05 Z M 107.185 456.142 L 107.185 458.485 L 102.117 458.485 L 102.117 476.05 L 99.102 476.05 L 99.102 458.485 L 95.542 458.485 L 95.542 457.123 L 99.102 456.033 L 99.102 454.925 A 12.221 12.221 0 0 1 99.387 452.155 Q 100.454 447.586 105.514 447.586 Q 106.742 447.586 108.3 447.971 A 19.518 19.518 0 0 1 109.219 448.222 L 108.438 450.638 Q 107.199 450.238 106.217 450.122 A 6.485 6.485 0 0 0 105.459 450.075 A 4.066 4.066 0 0 0 104.479 450.186 A 2.611 2.611 0 0 0 102.934 451.21 A 3.489 3.489 0 0 0 102.473 452.14 Q 102.167 453.049 102.124 454.398 A 14.236 14.236 0 0 0 102.117 454.852 L 102.117 456.142 L 107.185 456.142 Z M 180.458 473.561 L 180.458 475.868 A 2.966 2.966 0 0 1 180.107 476.007 Q 179.67 476.152 179.014 476.258 A 13.069 13.069 0 0 1 178.162 476.369 Q 177.761 476.407 177.4 476.412 A 7.729 7.729 0 0 1 177.298 476.413 A 7.875 7.875 0 0 1 174.977 476.1 Q 171.522 475.034 171.522 470.328 L 171.522 458.485 L 168.67 458.485 L 168.67 457.032 L 171.522 455.778 L 172.793 451.528 L 174.537 451.528 L 174.537 456.142 L 180.313 456.142 L 180.313 458.485 L 174.537 458.485 L 174.537 470.201 A 6.072 6.072 0 0 0 174.625 471.267 Q 174.729 471.852 174.958 472.315 A 2.925 2.925 0 0 0 175.391 472.962 A 2.801 2.801 0 0 0 177.113 473.878 A 4.03 4.03 0 0 0 177.734 473.924 A 9.902 9.902 0 0 0 179.185 473.821 A 9.127 9.127 0 0 0 179.278 473.806 Q 180.023 473.688 180.458 473.561 Z M 122.279 455.996 L 121.861 458.794 Q 120.832 458.567 120.005 458.529 A 7.072 7.072 0 0 0 119.682 458.521 A 5.225 5.225 0 0 0 115.822 460.188 A 7.148 7.148 0 0 0 115.549 460.483 A 6.886 6.886 0 0 0 113.888 464.349 A 9.152 9.152 0 0 0 113.833 465.369 L 113.833 476.05 L 110.817 476.05 L 110.817 456.142 L 113.306 456.142 L 113.651 459.829 L 113.796 459.829 A 10.183 10.183 0 0 1 114.935 458.202 A 7.778 7.778 0 0 1 116.467 456.832 A 6.011 6.011 0 0 1 119.9 455.778 Q 121.225 455.778 122.279 455.996 Z M 142.909 469.107 A 15.575 15.575 0 0 0 143.186 466.077 A 17.696 17.696 0 0 0 143.179 465.599 Q 143.135 463.941 142.776 462.534 A 9.389 9.389 0 0 0 140.725 458.558 A 7.893 7.893 0 0 0 137.06 456.194 A 10.132 10.132 0 0 0 134.086 455.778 A 11.711 11.711 0 0 0 131.982 455.959 A 7.975 7.975 0 0 0 127.329 458.494 A 8.33 8.33 0 0 0 126.306 459.913 Q 125.517 461.286 125.169 463.05 A 15.656 15.656 0 0 0 124.895 466.077 A 15.084 15.084 0 0 0 125.084 468.521 A 11.154 11.154 0 0 0 126.021 471.563 A 9.91 9.91 0 0 0 126.24 471.993 A 8.163 8.163 0 0 0 129.218 475.159 A 8.396 8.396 0 0 0 131.145 476.016 A 9.683 9.683 0 0 0 133.958 476.413 A 11.708 11.708 0 0 0 136.003 476.242 A 8.039 8.039 0 0 0 140.734 473.679 A 8.411 8.411 0 0 0 141.735 472.303 Q 142.552 470.905 142.909 469.107 Z M 128.019 466.077 A 15.269 15.269 0 0 0 128.164 468.259 Q 128.324 469.366 128.661 470.263 A 6.326 6.326 0 0 0 129.545 471.89 A 4.942 4.942 0 0 0 132.763 473.785 A 7.489 7.489 0 0 0 134.031 473.888 Q 136.992 473.888 138.527 471.899 Q 140.062 469.91 140.062 466.077 A 15.045 15.045 0 0 0 139.919 463.934 Q 139.762 462.842 139.43 461.958 A 6.208 6.208 0 0 0 138.527 460.31 A 4.96 4.96 0 0 0 135.443 458.471 A 7.605 7.605 0 0 0 133.995 458.34 A 7.176 7.176 0 0 0 132.208 458.549 A 4.802 4.802 0 0 0 129.526 460.283 A 6.234 6.234 0 0 0 128.557 462.156 Q 128.019 463.776 128.019 466.077 Z" id="front_labelLayer" stroke="#777777" fill="#777777" style="stroke:#777777;fill:#777777" vector-effect="non-scaling-stroke"/><path d="M 282 369 L 282 389.813 L 279 389.813 L 279 410.438 L 282 410.438 L 282 431.063 L 279 431.063 L 279 451.688 L 282 451.688 L 282 472.313 L 279 472.313 L 279 492.938 L 282 492.938 L 282 513.563 L 279 513.563 L 279 534.188 L 282 534.188 L 282 555 L 303.563 555 L 303.563 552 L 324.188 552 L 324.188 555 L 344.813 555 L 344.813 552 L 365.438 552 L 365.438 555 L 386.063 555 L 386.063 552 L 406.688 552 L 406.688 555 L 427.313 555 L 427.313 552 L 447.938 552 L 447.938 555 L 468.563 555 L 468.563 552 L 489.188 552 L 489.188 555 L 509.813 555 L 509.813 552 L 530.438 552 L 530.438 555 L 552 555 L 552 534.188 L 555 534.188 L 555 513.563 L 552 513.563 L 552 492.938 L 555 492.938 L 555 472.313 L 552 472.313 L 552 451.688 L 555 451.688 L 555 431.063 L 552 431.063 L 552 410.438 L 555 410.438 L 555 389.813 L 552 389.813 L 552 369 L 530.438 369 L 530.438 372 L 509.813 372 L 509.813 369 L 489.188 369 L 489.188 372 L 468.563 372 L 468.563 369 L 447.938 369 L 447.938 372 L 427.313 372 L 427.313 369 L 406.688 369 L 406.688 372 L 386.063 372 L 386.063 369 L 365.438 369 L 365.438 372 L 344.813 372 L 344.813 369 L 324.188 369 L 324.188 372 L 303.563 372 L 303.563 369 L 282 369 Z" id="left_outsideCutPath" stroke="#FF0000" stroke-width="0.2" style="stroke:#FF0000;stroke-width:0.2" vector-effect="non-scaling-stroke"/><path d="M 430.233 456.142 L 430.233 458.485 L 425.165 458.485 L 425.165 476.05 L 422.15 476.05 L 422.15 458.485 L 418.589 458.485 L 418.589 457.123 L 422.15 456.033 L 422.15 454.925 A 12.221 12.221 0 0 1 422.435 452.155 Q 423.502 447.586 428.561 447.586 Q 429.79 447.586 431.348 447.971 A 19.518 19.518 0 0 1 432.267 448.222 L 431.486 450.638 Q 430.247 450.238 429.265 450.122 A 6.485 6.485 0 0 0 428.507 450.075 A 4.066 4.066 0 0 0 427.527 450.186 A 2.611 2.611 0 0 0 425.982 451.21 A 3.489 3.489 0 0 0 425.521 452.14 Q 425.215 453.049 425.172 454.398 A 14.236 14.236 0 0 0 425.165 454.852 L 425.165 456.142 L 430.233 456.142 Z M 416.119 464.733 L 416.119 466.641 L 402.405 466.641 Q 402.467 469.035 403.271 470.642 A 5.661 5.661 0 0 0 404.176 471.963 A 5.479 5.479 0 0 0 407.053 473.583 A 8.301 8.301 0 0 0 408.908 473.779 Q 412.123 473.779 415.265 472.435 L 415.265 475.123 A 18.102 18.102 0 0 1 413.616 475.746 A 13.843 13.843 0 0 1 412.241 476.113 Q 410.815 476.413 408.799 476.413 A 11.717 11.717 0 0 1 405.867 476.066 A 8.297 8.297 0 0 1 401.833 473.725 A 8.874 8.874 0 0 1 399.71 469.826 Q 399.341 468.445 399.289 466.803 A 17.223 17.223 0 0 1 399.281 466.259 A 15.833 15.833 0 0 1 399.574 463.119 Q 400.114 460.449 401.651 458.612 A 7.727 7.727 0 0 1 407.283 455.803 A 10.659 10.659 0 0 1 408.018 455.778 A 9.186 9.186 0 0 1 410.605 456.125 A 6.99 6.99 0 0 1 413.939 458.24 A 8.431 8.431 0 0 1 415.85 462.092 A 12.272 12.272 0 0 1 416.119 464.733 Z M 443.02 473.561 L 443.02 475.868 A 2.966 2.966 0 0 1 442.668 476.007 Q 442.232 476.152 441.576 476.258 A 13.069 13.069 0 0 1 440.724 476.369 Q 440.322 476.407 439.962 476.412 A 7.729 7.729 0 0 1 439.859 476.413 A 7.875 7.875 0 0 1 437.539 476.1 Q 434.083 475.034 434.083 470.328 L 434.083 458.485 L 431.232 458.485 L 431.232 457.032 L 434.083 455.778 L 435.355 451.528 L 437.099 451.528 L 437.099 456.142 L 442.875 456.142 L 442.875 458.485 L 437.099 458.485 L 437.099 470.201 A 6.072 6.072 0 0 0 437.186 471.267 Q 437.291 471.852 437.52 472.315 A 2.925 2.925 0 0 0 437.952 472.962 A 2.801 2.801 0 0 0 439.674 473.878 A 4.03 4.03 0 0 0 440.295 473.924 A 9.902 9.902 0 0 0 441.746 473.821 A 9.127 9.127 0 0 0 441.839 473.806 Q 442.584 473.688 443.02 473.561 Z M 393.995 447.786 L 393.995 476.05 L 390.98 476.05 L 390.98 447.786 L 393.995 447.786 Z M 402.478 464.188 L 412.886 464.188 A 10.275 10.275 0 0 0 412.762 462.536 Q 412.489 460.863 411.614 459.82 A 4.131 4.131 0 0 0 409.127 458.404 A 6.197 6.197 0 0 0 407.982 458.303 A 5.944 5.944 0 0 0 406.265 458.539 A 4.592 4.592 0 0 0 404.158 459.865 A 5.956 5.956 0 0 0 402.974 461.863 Q 402.674 462.685 402.537 463.673 A 11.391 11.391 0 0 0 402.478 464.188 Z" id="left_labelLayer" stroke="#777777" fill="#777777" style="stroke:#777777;fill:#777777" vector-effect="non-scaling-stroke"/><path d="M 561 282 L 561 303.563 L 558 303.563 L 558 324.188 L 561 324.188 L 561 344.813 L 558 344.813 L 558 365.438 L 561 365.438 L 561 386.063 L 558 386.063 L 558 406.688 L 561 406.688 L 561 427.313 L 558 427.313 L 558 447.938 L 561 447.938 L 561 468.563 L 558 468.563 L 558 489.188 L 561 489.188 L 561 509.813 L 558 509.813 L 558 530.438 L 561 530.438 L 561 552 L 582.563 552 L 582.563 555 L 603.188 555 L 603.188 552 L 623.813 552 L 623.813 555 L 644.438 555 L 644.438 552 L 665.063 552 L 665.063 555 L 685.688 555 L 685.688 552 L 706.313 552 L 706.313 555 L 726.938 555 L 726.938 552 L 747.563 552 L 747.563 555 L 768.188 555 L 768.188 552 L 788.813 552 L 788.813 555 L 809.438 555 L 809.438 552 L 831 552 L 831 530.438 L 834 530.438 L 834 509.813 L 831 509.813 L 831 489.188 L 834 489.188 L 834 468.563 L 831 468.563 L 831 447.938 L 834 447.938 L 834 427.313 L 831 427.313 L 831 406.688 L 834 406.688 L 834 386.063 L 831 386.063 L 831 365.438 L 834 365.438 L 834 344.813 L 831 344.813 L 831 324.188 L 834 324.188 L 834 303.563 L 831 303.563 L 831 282 L 809.438 282 L 809.438 279 L 788.813 279 L 788.813 282 L 768.188 282 L 768.188 279 L 747.563 279 L 747.563 282 L 726.938 282 L 726.938 279 L 706.313 279 L 706.313 282 L 685.688 282 L 685.688 279 L 665.063 279 L 665.063 282 L 644.438 282 L 644.438 279 L 623.813 279 L 623.813 282 L 603.188 282 L 603.188 279 L 582.563 279 L 582.563 282 L 561 282 Z" id="top_outsideCutPath" stroke="#FF0000" stroke-width="0.2" style="stroke:#FF0000;stroke-width:0.2" vector-effect="non-scaling-stroke"/><path d="M 715.837 424.763 L 715.514 424.763 A 42.343 42.343 0 0 1 715.792 427.892 A 35.481 35.481 0 0 1 715.837 429.668 L 715.837 441.824 L 711.363 441.824 L 711.363 399.022 L 715.002 399.022 L 715.622 403.065 L 715.837 403.065 A 12.044 12.044 0 0 1 717.579 401.087 A 9.313 9.313 0 0 1 719.853 399.561 A 11.205 11.205 0 0 1 723.065 398.622 A 14.503 14.503 0 0 1 725.109 398.483 A 13.715 13.715 0 0 1 728.984 399.001 A 10.137 10.137 0 0 1 734.179 402.499 Q 737.373 406.515 737.373 413.766 Q 737.373 421.043 734.125 425.072 A 10.592 10.592 0 0 1 726.597 429.031 A 15.175 15.175 0 0 1 725.109 429.102 A 13.571 13.571 0 0 1 721.699 428.686 A 11.808 11.808 0 0 1 719.84 428.037 A 9.91 9.91 0 0 1 715.837 424.763 Z M 672.119 424.87 L 672.119 428.293 A 4.401 4.401 0 0 1 671.597 428.501 Q 671.04 428.685 670.244 428.827 A 16.731 16.731 0 0 1 669.977 428.873 Q 668.655 429.087 667.581 429.101 A 11.467 11.467 0 0 1 667.429 429.102 A 11.686 11.686 0 0 1 663.986 428.638 Q 660.2 427.47 659.21 423.358 A 14.064 14.064 0 0 1 658.858 420.073 L 658.858 402.499 L 654.627 402.499 L 654.627 400.343 L 658.858 398.483 L 660.745 392.176 L 663.333 392.176 L 663.333 399.022 L 671.904 399.022 L 671.904 402.499 L 663.333 402.499 L 663.333 419.884 A 9.01 9.01 0 0 0 663.463 421.466 Q 663.738 423.01 664.599 423.981 A 4.156 4.156 0 0 0 667.155 425.341 A 5.98 5.98 0 0 0 668.076 425.409 A 14.694 14.694 0 0 0 670.229 425.255 A 13.543 13.543 0 0 0 670.367 425.234 Q 671.422 425.067 672.059 424.888 A 6.72 6.72 0 0 0 672.119 424.87 Z M 703.109 418.261 A 23.111 23.111 0 0 0 703.52 413.766 A 26.259 26.259 0 0 0 703.51 413.055 Q 703.333 406.52 699.868 402.607 Q 696.215 398.483 690.016 398.483 A 17.377 17.377 0 0 0 686.895 398.751 A 11.834 11.834 0 0 0 679.99 402.513 A 12.361 12.361 0 0 0 678.471 404.618 Q 677.302 406.656 676.785 409.273 A 23.231 23.231 0 0 0 676.378 413.766 A 22.383 22.383 0 0 0 676.659 417.391 A 16.552 16.552 0 0 0 678.049 421.905 A 14.706 14.706 0 0 0 678.375 422.543 A 12.113 12.113 0 0 0 682.793 427.242 A 12.458 12.458 0 0 0 685.652 428.514 A 14.368 14.368 0 0 0 689.828 429.102 A 17.374 17.374 0 0 0 692.861 428.848 A 11.928 11.928 0 0 0 699.881 425.046 A 12.481 12.481 0 0 0 701.367 423.004 Q 702.58 420.93 703.109 418.261 Z M 681.014 413.766 A 22.657 22.657 0 0 0 681.229 417.002 Q 681.467 418.645 681.967 419.976 A 9.387 9.387 0 0 0 683.278 422.391 A 7.333 7.333 0 0 0 688.054 425.203 A 11.112 11.112 0 0 0 689.935 425.355 Q 694.329 425.355 696.606 422.404 A 9.605 9.605 0 0 0 698.102 419.491 Q 698.542 418.145 698.734 416.502 A 23.568 23.568 0 0 0 698.884 413.766 Q 698.884 410.152 697.947 407.653 A 9.212 9.212 0 0 0 696.606 405.208 Q 694.329 402.284 689.881 402.284 A 10.648 10.648 0 0 0 687.23 402.594 A 7.126 7.126 0 0 0 683.251 405.168 A 9.251 9.251 0 0 0 681.813 407.946 Q 681.014 410.351 681.014 413.766 Z M 715.837 412.768 L 715.837 413.766 Q 715.837 419.054 717.335 421.785 A 6.748 6.748 0 0 0 717.913 422.674 A 6.491 6.491 0 0 0 721.205 424.896 Q 722.306 425.241 723.648 425.327 A 14.386 14.386 0 0 0 724.57 425.355 A 7.539 7.539 0 0 0 727.501 424.805 Q 729.192 424.1 730.398 422.489 A 8.916 8.916 0 0 0 730.567 422.256 A 10.818 10.818 0 0 0 732.05 419.095 Q 732.479 417.644 732.64 415.904 A 23.837 23.837 0 0 0 732.737 413.712 Q 732.737 410.086 731.802 407.568 A 9.485 9.485 0 0 0 730.567 405.235 A 6.96 6.96 0 0 0 725.476 402.336 A 9.626 9.626 0 0 0 724.462 402.284 A 12.892 12.892 0 0 0 722.054 402.493 Q 720.712 402.749 719.683 403.316 A 5.912 5.912 0 0 0 717.913 404.79 A 7.666 7.666 0 0 0 716.714 406.975 Q 715.956 409.035 715.852 412.082 A 28.476 28.476 0 0 0 715.837 412.768 Z" id="top_labelLayer" stroke="#777777" fill="#777777" style="stroke:#777777;fill:#777777" vector-effect="non-scaling-stroke"/><path d="M 0 180 L 0 200.813 L 3 200.813 L 3 221.438 L 0 221.438 L 0 242.063 L 3 242.063 L 3 262.688 L 0 262.688 L 0 283.313 L 3 283.313 L 3 303.938 L 0 303.938 L 0 324.563 L 3 324.563 L 3 345.188 L 0 345.188 L 0 366 L 24.563 366 L 24.563 363 L 45.188 363 L 45.188 366 L 65.813 366 L 65.813 363 L 86.438 363 L 86.438 366 L 107.063 366 L 107.063 363 L 127.688 363 L 127.688 366 L 148.313 366 L 148.313 363 L 168.938 363 L 168.938 366 L 189.563 366 L 189.563 363 L 210.188 363 L 210.188 366 L 230.813 366 L 230.813 363 L 251.438 363 L 251.438 366 L 276 366 L 276 345.188 L 273 345.188 L 273 324.563 L 276 324.563 L 276 303.938 L 273 303.938 L 273 283.313 L 276 283.313 L 276 262.688 L 273 262.688 L 273 242.063 L 276 242.063 L 276 221.438 L 273 221.438 L 273 200.813 L 276 200.813 L 276 180 L 251.438 180 L 251.438 183 L 230.813 183 L 230.813 180 L 210.188 180 L 210.188 183 L 189.563 183 L 189.563 180 L 168.938 180 L 168.938 183 L 148.313 183 L 148.313 180 L 127.688 180 L 127.688 183 L 107.063 183 L 107.063 180 L 86.438 180 L 86.438 183 L 65.813 183 L 65.813 180 L 45.188 180 L 45.188 183 L 24.563 183 L 24.563 180 L 0 180 Z" id="back_outsideCutPath" stroke="#FF0000" stroke-width="0.2" style="stroke:#FF0000;stroke-width:0.2" vector-effect="non-scaling-stroke"/><path d="M 163.466 276.76 L 163.611 276.76 A 17.85 17.85 0 0 1 164.053 276.163 Q 164.561 275.502 165.286 274.659 A 64.786 64.786 0 0 1 165.991 273.854 L 172.421 267.042 L 175.999 267.042 L 167.934 275.525 L 176.562 286.95 L 172.911 286.95 L 165.882 277.541 L 163.611 279.503 L 163.611 286.95 L 160.632 286.95 L 160.632 258.687 L 163.611 258.687 L 163.611 273.672 A 20.093 20.093 0 0 1 163.602 274.239 Q 163.576 275.17 163.471 276.684 A 125.463 125.463 0 0 1 163.466 276.76 Z M 102.453 284.389 L 102.235 284.389 L 101.599 286.95 L 99.438 286.95 L 99.438 258.687 L 102.453 258.687 L 102.453 265.553 A 62.865 62.865 0 0 1 102.419 267.676 Q 102.385 268.681 102.317 269.575 A 37.661 37.661 0 0 1 102.308 269.694 L 102.453 269.694 Q 104.56 266.715 108.701 266.715 A 9.216 9.216 0 0 1 111.295 267.061 A 6.899 6.899 0 0 1 114.795 269.394 A 8.885 8.885 0 0 1 116.353 272.395 Q 116.966 274.372 116.966 276.978 A 17.679 17.679 0 0 1 116.732 279.952 Q 116.461 281.537 115.876 282.809 A 8.475 8.475 0 0 1 114.777 284.598 A 7.138 7.138 0 0 1 109.704 287.265 A 10.227 10.227 0 0 1 108.701 287.313 Q 106.758 287.313 105.15 286.596 A 6.678 6.678 0 0 1 102.453 284.389 Z M 136.71 286.95 L 134.476 286.95 L 133.877 284.116 L 133.731 284.116 Q 132.68 285.437 131.633 286.156 A 5.555 5.555 0 0 1 130.762 286.65 A 6.953 6.953 0 0 1 129.325 287.103 Q 128.629 287.248 127.822 287.293 A 13.569 13.569 0 0 1 127.065 287.313 Q 124.697 287.313 123.148 286.337 A 5.192 5.192 0 0 1 122.424 285.787 Q 120.744 284.262 120.744 281.446 Q 120.744 275.61 129.776 275.15 A 29.453 29.453 0 0 1 130.389 275.125 L 133.768 275.016 L 133.768 273.781 Q 133.768 272.349 133.391 271.375 A 3.365 3.365 0 0 0 132.76 270.321 Q 131.955 269.429 130.382 269.249 A 7.45 7.45 0 0 0 129.536 269.204 Q 127.535 269.204 125.112 270.19 A 20.194 20.194 0 0 0 123.905 270.729 L 122.978 268.422 A 13.902 13.902 0 0 1 125.662 267.319 A 15.825 15.825 0 0 1 126.202 267.169 Q 127.955 266.715 129.717 266.715 A 12.735 12.735 0 0 1 131.657 266.852 Q 133.784 267.181 134.994 268.295 Q 136.71 269.876 136.71 273.363 L 136.71 286.95 Z M 156.2 267.714 L 155.274 270.275 A 13.414 13.414 0 0 0 153.819 269.791 A 16.021 16.021 0 0 0 153.094 269.612 Q 151.914 269.349 151.005 269.349 A 6.688 6.688 0 0 0 148.289 269.859 Q 145.443 271.114 145.014 275.454 A 16.661 16.661 0 0 0 144.939 277.087 A 14.603 14.603 0 0 0 145.083 279.213 Q 145.242 280.291 145.576 281.167 A 6.254 6.254 0 0 0 146.419 282.718 A 4.789 4.789 0 0 0 149.522 284.572 A 7.295 7.295 0 0 0 150.806 284.679 A 12.622 12.622 0 0 0 154.287 284.173 A 15.584 15.584 0 0 0 155.91 283.608 L 155.91 286.278 A 8.577 8.577 0 0 1 153.812 287.02 Q 152.842 287.235 151.715 287.292 A 16.535 16.535 0 0 1 150.878 287.313 A 11.269 11.269 0 0 1 148.137 286.999 A 7.642 7.642 0 0 1 144.185 284.652 Q 141.814 281.991 141.814 277.123 Q 141.814 272.128 144.221 269.403 A 7.807 7.807 0 0 1 148.496 266.945 A 11.836 11.836 0 0 1 151.078 266.679 A 13.607 13.607 0 0 1 153.948 266.987 A 15.05 15.05 0 0 1 154.785 267.191 Q 155.638 267.427 156.2 267.714 Z M 104.98 269.988 A 4.01 4.01 0 0 0 103.815 271.011 Q 102.453 272.782 102.453 276.978 A 19.936 19.936 0 0 0 102.552 279.038 Q 102.768 281.117 103.462 282.382 A 4.548 4.548 0 0 0 103.852 282.981 Q 105.105 284.601 107.717 284.769 A 9.695 9.695 0 0 0 108.338 284.788 A 6.011 6.011 0 0 0 110.045 284.56 A 4.336 4.336 0 0 0 112.479 282.763 Q 113.453 281.316 113.731 278.966 A 17.277 17.277 0 0 0 113.842 276.941 A 17.814 17.814 0 0 0 113.734 274.912 Q 113.479 272.691 112.618 271.351 A 5.002 5.002 0 0 0 112.479 271.147 A 4.397 4.397 0 0 0 109.68 269.375 A 6.974 6.974 0 0 0 108.265 269.24 Q 106.258 269.24 104.98 269.988 Z M 133.695 278.958 L 133.695 277.159 L 130.68 277.287 Q 127.677 277.393 126.073 278.101 A 4.631 4.631 0 0 0 125.494 278.404 A 3.217 3.217 0 0 0 123.961 280.738 A 4.762 4.762 0 0 0 123.905 281.482 Q 123.905 282.92 124.67 283.753 A 2.686 2.686 0 0 0 124.895 283.971 Q 125.75 284.708 127.194 284.809 A 6.782 6.782 0 0 0 127.665 284.825 A 8.302 8.302 0 0 0 129.458 284.642 Q 130.707 284.366 131.628 283.672 A 5.034 5.034 0 0 0 132.088 283.281 A 5.05 5.05 0 0 0 133.496 280.759 Q 133.692 279.948 133.695 278.988 A 9.595 9.595 0 0 0 133.695 278.958 Z" id="back_labelLayer" stroke="#777777" fill="#777777" style="stroke:#777777;fill:#777777" vector-effect="non-scaling-stroke"/><path d="M 282 180 L 282 200.813 L 279 200.813 L 279 221.438 L 282 221.438 L 282 242.063 L 279 242.063 L 279 262.688 L 282 262.688 L 282 283.313 L 279 283.313 L 279 303.938 L 282 303.938 L 282 324.563 L 279 324.563 L 279 345.188 L 282 345.188 L 282 366 L 303.563 366 L 303.563 363 L 324.188 363 L 324.188 366 L 344.813 366 L 344.813 363 L 365.438 363 L 365.438 366 L 386.063 366 L 386.063 363 L 406.688 363 L 406.688 366 L 427.313 366 L 427.313 363 L 447.938 363 L 447.938 366 L 468.563 366 L 468.563 363 L 489.188 363 L 489.188 366 L 509.813 366 L 509.813 363 L 530.438 363 L 530.438 366 L 552 366 L 552 345.188 L 555 345.188 L 555 324.563 L 552 324.563 L 552 303.938 L 555 303.938 L 555 283.313 L 552 283.313 L 552 262.688 L 555 262.688 L 555 242.063 L 552 242.063 L 552 221.438 L 555 221.438 L 555 200.813 L 552 200.813 L 552 180 L 530.438 180 L 530.438 183 L 509.813 183 L 509.813 180 L 489.188 180 L 489.188 183 L 468.563 183 L 468.563 180 L 447.938 180 L 447.938 183 L 427.313 183 L 427.313 180 L 406.688 180 L 406.688 183 L 386.063 183 L 386.063 180 L 365.438 180 L 365.438 183 L 344.813 183 L 344.813 180 L 324.188 180 L 324.188 183 L 303.563 183 L 303.563 180 L 282 180 Z" id="right_outsideCutPath" stroke="#FF0000" stroke-width="0.2" style="stroke:#FF0000;stroke-width:0.2" vector-effect="non-scaling-stroke"/><path d="M 440.132 282.663 L 437.117 282.663 L 437.117 269.785 A 8.523 8.523 0 0 0 437.019 268.449 Q 436.907 267.744 436.666 267.184 A 3.587 3.587 0 0 0 436.009 266.152 A 3.399 3.399 0 0 0 434.614 265.262 Q 434.067 265.069 433.393 264.997 A 7.994 7.994 0 0 0 432.539 264.953 A 9.125 9.125 0 0 0 430.834 265.102 Q 429.888 265.282 429.16 265.681 A 4.222 4.222 0 0 0 427.953 266.661 Q 426.633 268.222 426.519 271.605 A 19.46 19.46 0 0 0 426.509 272.255 L 426.509 282.663 L 423.494 282.663 L 423.494 254.4 L 426.509 254.4 L 426.509 262.955 A 27.124 27.124 0 0 1 426.49 263.997 Q 426.471 264.485 426.434 264.905 A 11.795 11.795 0 0 1 426.364 265.516 L 426.545 265.516 A 6.024 6.024 0 0 1 428.656 263.485 A 7.36 7.36 0 0 1 429.079 263.255 Q 430.723 262.428 432.83 262.428 Q 435.232 262.428 436.843 263.179 A 5.435 5.435 0 0 1 438.306 264.163 Q 439.724 265.511 440.041 268.091 A 13.039 13.039 0 0 1 440.132 269.676 L 440.132 282.663 Z M 412.523 262.755 L 419.407 262.755 L 419.407 264.663 L 415.719 265.099 A 4.9 4.9 0 0 1 416.144 265.73 Q 416.403 266.183 416.628 266.761 A 5.801 5.801 0 0 1 416.971 268.146 A 7.449 7.449 0 0 1 417.027 269.076 A 6.912 6.912 0 0 1 416.71 271.219 A 5.591 5.591 0 0 1 415.029 273.745 A 6.687 6.687 0 0 1 412.398 275.13 Q 411.403 275.41 410.22 275.471 A 13.096 13.096 0 0 1 409.544 275.488 A 9.691 9.691 0 0 1 408.422 275.426 A 8.183 8.183 0 0 1 407.873 275.343 A 5.365 5.365 0 0 0 407.008 275.903 Q 406.56 276.264 406.302 276.676 A 2.269 2.269 0 0 0 405.947 277.904 Q 405.947 278.722 406.619 279.112 A 2.115 2.115 0 0 0 407.088 279.305 Q 407.579 279.449 408.327 279.488 A 11.47 11.47 0 0 0 408.926 279.503 L 412.45 279.503 Q 415.683 279.503 417.418 280.865 A 4.411 4.411 0 0 1 419.057 283.675 A 6.625 6.625 0 0 1 419.152 284.825 A 6.529 6.529 0 0 1 418.78 287.083 Q 418.158 288.781 416.5 289.865 A 9.042 9.042 0 0 1 414.169 290.922 Q 413.02 291.272 411.619 291.441 A 23.899 23.899 0 0 1 408.763 291.6 A 16.894 16.894 0 0 1 406.497 291.458 Q 404.196 291.146 402.741 290.147 A 4.806 4.806 0 0 1 401.192 288.466 Q 400.696 287.546 400.634 286.38 A 6.367 6.367 0 0 1 400.625 286.042 Q 400.625 284.225 401.788 282.899 A 5.265 5.265 0 0 1 403.596 281.582 A 7.463 7.463 0 0 1 405.057 281.101 A 3.129 3.129 0 0 1 403.842 280.119 A 3.715 3.715 0 0 1 403.777 280.029 A 2.795 2.795 0 0 1 403.263 278.519 A 3.462 3.462 0 0 1 403.259 278.34 A 3.448 3.448 0 0 1 403.433 277.23 A 3.056 3.056 0 0 1 403.84 276.433 Q 404.279 275.815 405.102 275.229 A 9.472 9.472 0 0 1 405.675 274.853 A 5.286 5.286 0 0 1 403.378 273.014 A 6.552 6.552 0 0 1 403.159 272.691 A 6.233 6.233 0 0 1 402.202 269.687 A 7.608 7.608 0 0 1 402.187 269.204 A 8.712 8.712 0 0 1 402.416 267.144 A 5.732 5.732 0 0 1 404.149 264.163 A 6.403 6.403 0 0 1 406.607 262.808 Q 407.583 262.509 408.758 262.425 A 13.317 13.317 0 0 1 409.707 262.392 A 11.558 11.558 0 0 1 411.236 262.489 A 8.802 8.802 0 0 1 412.523 262.755 Z M 455.481 280.175 L 455.481 282.482 A 2.966 2.966 0 0 1 455.129 282.621 Q 454.692 282.766 454.037 282.872 A 13.069 13.069 0 0 1 453.184 282.983 Q 452.783 283.021 452.422 283.026 A 7.729 7.729 0 0 1 452.32 283.026 A 7.875 7.875 0 0 1 449.999 282.714 Q 446.544 281.648 446.544 276.941 L 446.544 265.099 L 443.692 265.099 L 443.692 263.645 L 446.544 262.392 L 447.815 258.142 L 449.559 258.142 L 449.559 262.755 L 455.335 262.755 L 455.335 265.099 L 449.559 265.099 L 449.559 276.814 A 6.072 6.072 0 0 0 449.647 277.881 Q 449.751 278.466 449.981 278.929 A 2.925 2.925 0 0 0 450.413 279.575 A 2.801 2.801 0 0 0 452.135 280.492 A 4.03 4.03 0 0 0 452.756 280.538 A 9.902 9.902 0 0 0 454.207 280.434 A 9.127 9.127 0 0 0 454.3 280.42 Q 455.045 280.302 455.481 280.175 Z M 389.981 262.61 L 389.563 265.407 Q 388.534 265.18 387.707 265.142 A 7.072 7.072 0 0 0 387.383 265.135 A 5.225 5.225 0 0 0 383.524 266.802 A 7.148 7.148 0 0 0 383.251 267.097 A 6.886 6.886 0 0 0 381.59 270.963 A 9.152 9.152 0 0 0 381.535 271.983 L 381.535 282.663 L 378.519 282.663 L 378.519 262.755 L 381.008 262.755 L 381.353 266.443 L 381.498 266.443 A 10.183 10.183 0 0 1 382.637 264.816 A 7.778 7.778 0 0 1 384.168 263.446 A 6.011 6.011 0 0 1 387.601 262.392 Q 388.927 262.392 389.981 262.61 Z M 396.72 262.755 L 396.72 282.663 L 393.705 282.663 L 393.705 262.755 L 396.72 262.755 Z M 411.487 282.209 L 407.873 282.209 A 6.931 6.931 0 0 0 406.623 282.315 Q 405.445 282.531 404.676 283.19 Q 403.531 284.171 403.531 286.005 A 3.028 3.028 0 0 0 403.731 287.129 Q 404.018 287.853 404.716 288.341 A 3.538 3.538 0 0 0 404.894 288.458 A 4.829 4.829 0 0 0 406.081 288.967 Q 407.201 289.291 408.774 289.293 A 15.366 15.366 0 0 0 408.799 289.293 A 20.27 20.27 0 0 0 410.778 289.203 Q 413.109 288.974 414.421 288.158 A 4.398 4.398 0 0 0 415.441 287.304 A 3.296 3.296 0 0 0 416.246 285.079 A 4.08 4.08 0 0 0 416.171 284.269 Q 415.973 283.291 415.247 282.836 Q 414.486 282.358 412.703 282.245 A 19.186 19.186 0 0 0 411.487 282.209 Z M 405.838 271.704 A 3.226 3.226 0 0 0 406.347 272.291 A 3.897 3.897 0 0 0 407.915 273.143 Q 408.512 273.315 409.226 273.353 A 7.764 7.764 0 0 0 409.634 273.363 Q 414.048 273.363 414.048 269.076 A 6.483 6.483 0 0 0 413.827 267.301 Q 413.259 265.31 411.235 264.781 A 6.558 6.558 0 0 0 409.58 264.59 A 6.327 6.327 0 0 0 408.291 264.713 Q 407.079 264.965 406.31 265.734 A 3.619 3.619 0 0 0 405.435 267.209 Q 405.25 267.78 405.192 268.474 A 7.932 7.932 0 0 0 405.166 269.131 Q 405.166 270.707 405.838 271.704 Z M 393.493 256.808 A 3.341 3.341 0 0 0 393.45 257.361 Q 393.45 257.873 393.579 258.254 A 1.557 1.557 0 0 0 393.959 258.877 A 1.692 1.692 0 0 0 394.571 259.267 A 1.915 1.915 0 0 0 395.23 259.377 Q 395.957 259.377 396.484 258.877 A 1.472 1.472 0 0 0 396.771 258.497 Q 396.902 258.25 396.962 257.932 A 3.12 3.12 0 0 0 397.01 257.361 A 3.449 3.449 0 0 0 396.996 257.034 Q 396.967 256.736 396.885 256.493 A 1.522 1.522 0 0 0 396.484 255.853 A 1.777 1.777 0 0 0 395.23 255.363 Q 394.467 255.363 393.959 255.844 Q 393.597 256.186 393.493 256.808 Z" id="right_labelLayer" stroke="#777777" fill="#777777" style="stroke:#777777;fill:#777777" vector-effect="non-scaling-stroke"/><path d="M 561 3 L 561 24.563 L 558 24.563 L 558 45.188 L 561 45.188 L 561 65.813 L 558 65.813 L 558 86.438 L 561 86.438 L 561 107.063 L 558 107.063 L 558 127.688 L 561 127.688 L 561 148.313 L 558 148.313 L 558 168.938 L 561 168.938 L 561 189.563 L 558 189.563 L 558 210.188 L 561 210.188 L 561 230.813 L 558 230.813 L 558 251.438 L 561 251.438 L 561 273 L 582.563 273 L 582.563 276 L 603.188 276 L 603.188 273 L 623.813 273 L 623.813 276 L 644.438 276 L 644.438 273 L 665.063 273 L 665.063 276 L 685.688 276 L 685.688 273 L 706.313 273 L 706.313 276 L 726.938 276 L 726.938 273 L 747.563 273 L 747.563 276 L 768.188 276 L 768.188 273 L 788.813 273 L 788.813 276 L 809.438 276 L 809.438 273 L 831 273 L 831 251.438 L 834 251.438 L 834 230.813 L 831 230.813 L 831 210.188 L 834 210.188 L 834 189.563 L 831 189.563 L 831 168.938 L 834 168.938 L 834 148.313 L 831 148.313 L 831 127.688 L 834 127.688 L 834 107.063 L 831 107.063 L 831 86.438 L 834 86.438 L 834 65.813 L 831 65.813 L 831 45.188 L 834 45.188 L 834 24.563 L 831 24.563 L 831 3 L 809.438 3 L 809.438 0 L 788.813 0 L 788.813 3 L 768.188 3 L 768.188 0 L 747.563 0 L 747.563 3 L 726.938 3 L 726.938 0 L 706.313 0 L 706.313 3 L 685.688 3 L 685.688 0 L 665.063 0 L 665.063 3 L 644.438 3 L 644.438 0 L 623.813 0 L 623.813 3 L 603.188 3 L 603.188 0 L 582.563 0 L 582.563 3 L 561 3 Z" id="bottom_outsideCutPath" stroke="#FF0000" stroke-width="0.2" style="stroke:#FF0000;stroke-width:0.2" vector-effect="non-scaling-stroke"/><path d="M 786.805 158.699 L 782.331 158.699 L 782.331 139.482 A 13.199 13.199 0 0 0 782.198 137.541 Q 781.883 135.427 780.821 134.185 A 4.708 4.708 0 0 0 778.633 132.77 Q 777.853 132.518 776.902 132.448 A 10.386 10.386 0 0 0 776.132 132.42 A 11.513 11.513 0 0 0 773.788 132.643 Q 771.346 133.151 769.959 134.819 A 7.394 7.394 0 0 0 768.705 137.088 Q 767.97 139.15 767.965 142.158 A 24.857 24.857 0 0 0 767.965 142.204 L 767.965 158.699 L 763.49 158.699 L 763.49 139.482 A 13.199 13.199 0 0 0 763.357 137.541 Q 763.042 135.427 761.981 134.185 Q 760.675 132.657 758.097 132.452 A 10.477 10.477 0 0 0 757.264 132.42 A 11.113 11.113 0 0 0 754.966 132.642 Q 753.548 132.942 752.492 133.647 A 5.864 5.864 0 0 0 751.106 134.94 A 7.503 7.503 0 0 0 749.993 137.053 Q 749.272 139.094 749.169 142.153 A 31.151 31.151 0 0 0 749.151 143.201 L 749.151 158.699 L 744.677 158.699 L 744.677 129.159 L 748.316 129.159 L 749.044 133.202 L 749.259 133.202 A 8.793 8.793 0 0 1 752.831 129.833 A 10.622 10.622 0 0 1 757.026 128.655 A 12.83 12.83 0 0 1 757.992 128.62 A 14.649 14.649 0 0 1 761.289 128.963 Q 763.317 129.432 764.732 130.543 A 7.639 7.639 0 0 1 767.048 133.633 L 767.264 133.633 A 9.342 9.342 0 0 1 770.783 130.14 A 11.224 11.224 0 0 1 771.091 129.967 A 11.324 11.324 0 0 1 775.245 128.704 A 14.12 14.12 0 0 1 776.805 128.62 Q 781.819 128.62 784.312 131.194 A 7.705 7.705 0 0 1 785.966 133.9 Q 786.805 136.144 786.805 139.428 L 786.805 158.699 Z M 609.669 154.899 L 609.346 154.899 L 608.402 158.699 L 605.195 158.699 L 605.195 116.76 L 609.669 116.76 L 609.669 126.949 Q 609.669 130.261 609.467 132.918 A 55.833 55.833 0 0 1 609.453 133.094 L 609.669 133.094 A 10.173 10.173 0 0 1 617.094 128.781 A 15.281 15.281 0 0 1 618.941 128.674 A 13.675 13.675 0 0 1 622.789 129.187 A 10.237 10.237 0 0 1 627.984 132.649 A 13.184 13.184 0 0 1 630.296 137.102 Q 631.205 140.036 631.205 143.902 Q 631.205 151.179 627.957 155.209 A 10.592 10.592 0 0 1 620.429 159.167 A 15.175 15.175 0 0 1 618.941 159.238 A 13.571 13.571 0 0 1 615.531 158.822 A 11.808 11.808 0 0 1 613.672 158.174 A 9.91 9.91 0 0 1 609.669 154.899 Z M 685.946 155.007 L 685.946 158.43 A 4.401 4.401 0 0 1 685.424 158.637 Q 684.868 158.822 684.071 158.964 A 16.731 16.731 0 0 1 683.804 159.009 Q 682.483 159.223 681.408 159.237 A 11.467 11.467 0 0 1 681.257 159.238 A 11.686 11.686 0 0 1 677.813 158.775 Q 674.027 157.607 673.037 153.495 A 14.064 14.064 0 0 1 672.685 150.209 L 672.685 132.636 L 668.454 132.636 L 668.454 130.479 L 672.685 128.62 L 674.572 122.313 L 677.16 122.313 L 677.16 129.159 L 685.731 129.159 L 685.731 132.636 L 677.16 132.636 L 677.16 150.02 A 9.01 9.01 0 0 0 677.29 151.603 Q 677.565 153.146 678.426 154.117 A 4.156 4.156 0 0 0 680.982 155.477 A 5.98 5.98 0 0 0 681.903 155.546 A 14.694 14.694 0 0 0 684.056 155.392 A 13.543 13.543 0 0 0 684.194 155.371 Q 685.249 155.203 685.886 155.024 A 6.72 6.72 0 0 0 685.946 155.007 Z M 705.433 155.007 L 705.433 158.43 A 4.401 4.401 0 0 1 704.912 158.637 Q 704.355 158.822 703.558 158.964 A 16.731 16.731 0 0 1 703.291 159.009 Q 701.97 159.223 700.895 159.237 A 11.467 11.467 0 0 1 700.744 159.238 A 11.686 11.686 0 0 1 697.3 158.775 Q 693.514 157.607 692.524 153.495 A 14.064 14.064 0 0 1 692.173 150.209 L 692.173 132.636 L 687.941 132.636 L 687.941 130.479 L 692.173 128.62 L 694.059 122.313 L 696.647 122.313 L 696.647 129.159 L 705.218 129.159 L 705.218 132.636 L 696.647 132.636 L 696.647 150.02 A 9.01 9.01 0 0 0 696.777 151.603 Q 697.053 153.146 697.914 154.117 A 4.156 4.156 0 0 0 700.469 155.477 A 5.98 5.98 0 0 0 701.39 155.546 A 14.694 14.694 0 0 0 703.543 155.392 A 13.543 13.543 0 0 0 703.682 155.371 Q 704.736 155.203 705.373 155.024 A 6.72 6.72 0 0 0 705.433 155.007 Z M 664.108 148.398 A 23.111 23.111 0 0 0 664.519 143.902 A 26.259 26.259 0 0 0 664.509 143.192 Q 664.332 136.657 660.866 132.743 Q 657.214 128.62 651.015 128.62 A 17.377 17.377 0 0 0 647.894 128.887 A 11.834 11.834 0 0 0 640.989 132.649 A 12.361 12.361 0 0 0 639.47 134.754 Q 638.301 136.793 637.784 139.409 A 23.231 23.231 0 0 0 637.377 143.902 A 22.383 22.383 0 0 0 637.658 147.528 A 16.552 16.552 0 0 0 639.048 152.042 A 14.706 14.706 0 0 0 639.374 152.68 A 12.113 12.113 0 0 0 643.792 157.379 A 12.458 12.458 0 0 0 646.651 158.65 A 14.368 14.368 0 0 0 650.826 159.238 A 17.374 17.374 0 0 0 653.86 158.985 A 11.928 11.928 0 0 0 660.88 155.182 A 12.481 12.481 0 0 0 662.366 153.14 Q 663.578 151.066 664.108 148.398 Z M 736.423 148.398 A 23.111 23.111 0 0 0 736.834 143.902 A 26.259 26.259 0 0 0 736.824 143.192 Q 736.648 136.657 733.182 132.743 Q 729.53 128.62 723.33 128.62 A 17.377 17.377 0 0 0 720.209 128.887 A 11.834 11.834 0 0 0 713.304 132.649 A 12.361 12.361 0 0 0 711.786 134.754 Q 710.616 136.793 710.1 139.409 A 23.231 23.231 0 0 0 709.692 143.902 A 22.383 22.383 0 0 0 709.973 147.528 A 16.552 16.552 0 0 0 711.363 152.042 A 14.706 14.706 0 0 0 711.689 152.68 A 12.113 12.113 0 0 0 716.107 157.379 A 12.458 12.458 0 0 0 718.967 158.65 A 14.368 14.368 0 0 0 723.142 159.238 A 17.374 17.374 0 0 0 726.176 158.985 A 11.928 11.928 0 0 0 733.195 155.182 A 12.481 12.481 0 0 0 734.681 153.14 Q 735.894 151.066 736.423 148.398 Z M 642.013 143.902 A 22.657 22.657 0 0 0 642.228 147.139 Q 642.466 148.782 642.966 150.113 A 9.387 9.387 0 0 0 644.277 152.527 A 7.333 7.333 0 0 0 649.053 155.34 A 11.112 11.112 0 0 0 650.934 155.492 Q 655.328 155.492 657.605 152.541 A 9.605 9.605 0 0 0 659.101 149.627 Q 659.541 148.281 659.733 146.638 A 23.568 23.568 0 0 0 659.883 143.902 Q 659.883 140.288 658.945 137.79 A 9.212 9.212 0 0 0 657.605 135.344 Q 655.328 132.42 650.88 132.42 A 10.648 10.648 0 0 0 648.229 132.731 A 7.126 7.126 0 0 0 644.25 135.304 A 9.251 9.251 0 0 0 642.812 138.083 Q 642.013 140.487 642.013 143.902 Z M 714.328 143.902 A 22.657 22.657 0 0 0 714.544 147.139 Q 714.781 148.782 715.281 150.113 A 9.387 9.387 0 0 0 716.592 152.527 A 7.333 7.333 0 0 0 721.368 155.34 A 11.112 11.112 0 0 0 723.249 155.492 Q 727.643 155.492 729.92 152.541 A 9.605 9.605 0 0 0 731.416 149.627 Q 731.856 148.281 732.048 146.638 A 23.568 23.568 0 0 0 732.198 143.902 Q 732.198 140.288 731.261 137.79 A 9.212 9.212 0 0 0 729.92 135.344 Q 727.643 132.42 723.196 132.42 A 10.648 10.648 0 0 0 720.545 132.731 A 7.126 7.126 0 0 0 716.565 135.304 A 9.251 9.251 0 0 0 715.127 138.083 Q 714.328 140.487 714.328 143.902 Z M 618.294 132.42 Q 613.712 132.42 611.69 135.048 A 7.659 7.659 0 0 0 610.582 137.16 Q 609.834 139.257 609.699 142.444 A 34.472 34.472 0 0 0 609.669 143.902 Q 609.669 149.191 611.166 151.922 A 6.748 6.748 0 0 0 611.744 152.81 A 6.491 6.491 0 0 0 615.037 155.032 Q 616.138 155.377 617.48 155.463 A 14.386 14.386 0 0 0 618.402 155.492 A 8.919 8.919 0 0 0 620.935 155.153 A 6.435 6.435 0 0 0 624.547 152.487 Q 626.569 149.481 626.569 143.848 A 26.434 26.434 0 0 0 626.409 140.836 Q 626.03 137.541 624.752 135.553 A 7.422 7.422 0 0 0 624.547 135.25 A 6.525 6.525 0 0 0 620.393 132.621 A 10.348 10.348 0 0 0 618.294 132.42 Z" id="bottom_labelLayer" stroke="#777777" fill="#777777" style="stroke:#777777;fill:#777777" vector-effect="non-scaling-stroke"/></g></svg>