<?xml version="1.0" encoding="UTF-8" standalone="no"?>
<!-- Created with Inkscape (http://www.inkscape.org/) -->

<svg
   width="297mm"
   height="420mm"
   viewBox="0 0 297 420"
   version="1.1"
   id="svg106"
   inkscape:version="1.1.2 (b8e25be833, 2022-02-05)"
   sodipodi:docname="right_left.svg"
   xmlns:inkscape="http://www.inkscape.org/namespaces/inkscape"
   xmlns:sodipodi="http://sodipodi.sourceforge.net/DTD/sodipodi-0.dtd"
   xmlns="http://www.w3.org/2000/svg"
   xmlns:svg="http://www.w3.org/2000/svg">
  <sodipodi:namedview
     id="namedview108"
     pagecolor="#ffffff"
     bordercolor="#666666"
     borderopacity="1.0"
     inkscape:pageshadow="2"
     inkscape:pageopacity="0.0"
     inkscape:pagecheckerboard="0"
     inkscape:document-units="mm"
     showgrid="false"
     inkscape:zoom="0.366586"
     inkscape:cx="118.66247"
     inkscape:cy="908.38166"
     inkscape:window-width="1920"
     inkscape:window-height="1009"
     inkscape:window-x="-8"
     inkscape:window-y="-8"
     inkscape:window-maximized="1"
     inkscape:current-layer="layer1" />
  <defs
     id="defs103" />
  <g
     inkscape:label="Layer 1"
     inkscape:groupmode="layer"
     id="layer1">
    <g
       id="g101"
       transform="translate(3.6087578,-358.49088)">
      <path
         d="m 10.79343,567.13305 v 20.813 h -3 v 20.625 h 3 v 20.625 h -3 v 20.625 h 3 v 20.625 h -3 v 20.625 h 3 v 20.625 h -3 v 20.625 h 3 v 20.812 h 21.563 v -3 h 20.625 v 3 h 20.625 v -3 h 20.625 v 3 h 20.625 v -3 h 20.625 v 3 h 20.625 v -3 h 20.625 v 3 h 20.625 v -3 h 20.625 v 3 h 20.625 v -3 h 20.625 v 3 h 21.562 v -20.812 h 3 v -20.625 h -3 v -20.625 h 3 v -20.625 h -3 v -20.625 h 3 v -20.625 h -3 v -20.625 h 3 v -20.625 h -3 v -20.813 h -21.562 v 3 h -20.625 v -3 h -20.625 v 3 h -20.625 v -3 h -20.625 v 3 h -20.625 v -3 h -20.625 v 3 h -20.625 v -3 h -20.625 v 3 h -20.625 v -3 h -20.625 v 3 h -20.625 v -3 z"
         id="left_outsideCutPath"
         stroke="#FF0000"
         stroke-width="0.2"
         style="font-size:12px;fill:none;fill-rule:evenodd;stroke:#ff0000;stroke-width:0.2;stroke-linecap:round"
         vector-effect="non-scaling-stroke" />
      <path
         d="m 159.02643,654.27505 v 2.343 h -5.068 v 17.565 h -3.015 v -17.565 h -3.561 v -1.362 l 3.561,-1.09 v -1.108 a 12.221,12.221 0 0 1 0.285,-2.77 q 1.067,-4.569 6.126,-4.569 1.229,0 2.787,0.385 a 19.518,19.518 0 0 1 0.919,0.251 l -0.781,2.416 q -1.239,-0.4 -2.221,-0.516 a 6.485,6.485 0 0 0 -0.758,-0.047 4.066,4.066 0 0 0 -0.98,0.111 2.611,2.611 0 0 0 -1.545,1.024 3.489,3.489 0 0 0 -0.461,0.93 q -0.306,0.909 -0.349,2.258 a 14.236,14.236 0 0 0 -0.007,0.454 v 1.29 z m -14.114,8.591 v 1.908 h -13.714 q 0.062,2.394 0.866,4.001 a 5.661,5.661 0 0 0 0.905,1.321 5.479,5.479 0 0 0 2.877,1.62 8.301,8.301 0 0 0 1.855,0.196 q 3.215,0 6.357,-1.344 v 2.688 a 18.102,18.102 0 0 1 -1.649,0.623 13.843,13.843 0 0 1 -1.375,0.367 q -1.426,0.3 -3.442,0.3 a 11.717,11.717 0 0 1 -2.932,-0.347 8.297,8.297 0 0 1 -4.034,-2.341 8.874,8.874 0 0 1 -2.123,-3.899 q -0.369,-1.381 -0.421,-3.023 a 17.223,17.223 0 0 1 -0.008,-0.544 15.833,15.833 0 0 1 0.293,-3.14 q 0.54,-2.67 2.077,-4.507 a 7.727,7.727 0 0 1 5.632,-2.809 10.659,10.659 0 0 1 0.735,-0.025 9.186,9.186 0 0 1 2.587,0.347 6.99,6.99 0 0 1 3.334,2.115 8.431,8.431 0 0 1 1.911,3.852 12.272,12.272 0 0 1 0.269,2.641 z m 26.901,8.828 v 2.307 a 2.966,2.966 0 0 1 -0.352,0.139 q -0.436,0.145 -1.092,0.251 a 13.069,13.069 0 0 1 -0.852,0.111 q -0.402,0.038 -0.762,0.043 a 7.729,7.729 0 0 1 -0.103,0.001 7.875,7.875 0 0 1 -2.32,-0.313 q -3.456,-1.066 -3.456,-5.772 v -11.843 h -2.851 v -1.453 l 2.851,-1.254 1.272,-4.25 h 1.744 v 4.614 h 5.776 v 2.343 h -5.776 v 11.716 a 6.072,6.072 0 0 0 0.087,1.066 q 0.105,0.585 0.334,1.048 a 2.925,2.925 0 0 0 0.432,0.647 2.801,2.801 0 0 0 1.722,0.916 4.03,4.03 0 0 0 0.621,0.046 9.902,9.902 0 0 0 1.451,-0.103 9.127,9.127 0 0 0 0.093,-0.015 q 0.745,-0.118 1.181,-0.245 z m -49.025,-25.775 v 28.264 h -3.015 v -28.264 z m 8.483,16.402 h 10.408 a 10.275,10.275 0 0 0 -0.124,-1.652 q -0.273,-1.673 -1.148,-2.716 a 4.131,4.131 0 0 0 -2.487,-1.416 6.197,6.197 0 0 0 -1.145,-0.101 5.944,5.944 0 0 0 -1.717,0.236 4.592,4.592 0 0 0 -2.107,1.326 5.956,5.956 0 0 0 -1.184,1.998 q -0.3,0.822 -0.437,1.81 a 11.391,11.391 0 0 0 -0.059,0.515 z"
         id="left_labelLayer"
         stroke="#777777"
         fill="#777777"
         style="font-size:12px;fill:#777777;fill-rule:evenodd;stroke:#777777;stroke-width:0.25mm;stroke-linecap:round"
         vector-effect="non-scaling-stroke" />
      <g
         id="g74">
        <path
           d="m 10.79343,378.13305 v 20.813 h -3 v 20.625 h 3 v 20.625 h -3 v 20.625 h 3 v 20.625 h -3 v 20.625 h 3 v 20.625 h -3 v 20.625 h 3 v 20.812 h 21.563 v -3 h 20.625 v 3 h 20.625 v -3 h 20.625 v 3 h 20.625 v -3 h 20.625 v 3 h 20.625 v -3 h 20.625 v 3 h 20.625 v -3 h 20.625 v 3 h 20.625 v -3 h 20.625 v 3 h 21.562 v -20.812 h 3 v -20.625 h -3 v -20.625 h 3 v -20.625 h -3 v -20.625 h 3 v -20.625 h -3 v -20.625 h 3 v -20.625 h -3 v -20.813 h -21.562 v 3 h -20.625 v -3 h -20.625 v 3 h -20.625 v -3 h -20.625 v 3 h -20.625 v -3 h -20.625 v 3 h -20.625 v -3 h -20.625 v 3 h -20.625 v -3 h -20.625 v 3 h -20.625 v -3 z"
           id="right_outsideCutPath"
           stroke="#FF0000"
           stroke-width="0.2"
           style="font-size:12px;fill:none;fill-rule:evenodd;stroke:#ff0000;stroke-width:0.2;stroke-linecap:round"
           vector-effect="non-scaling-stroke" />
        <path
           d="m 168.92543,480.79605 h -3.015 v -12.878 a 8.523,8.523 0 0 0 -0.098,-1.336 q -0.112,-0.705 -0.353,-1.265 a 3.587,3.587 0 0 0 -0.657,-1.032 3.399,3.399 0 0 0 -1.395,-0.89 q -0.547,-0.193 -1.221,-0.265 a 7.994,7.994 0 0 0 -0.854,-0.044 9.125,9.125 0 0 0 -1.705,0.149 q -0.946,0.18 -1.674,0.579 a 4.222,4.222 0 0 0 -1.207,0.98 q -1.32,1.561 -1.434,4.944 a 19.46,19.46 0 0 0 -0.01,0.65 v 10.408 h -3.015 v -28.263 h 3.015 v 8.555 a 27.124,27.124 0 0 1 -0.019,1.042 q -0.019,0.488 -0.056,0.908 a 11.795,11.795 0 0 1 -0.07,0.611 h 0.181 a 6.024,6.024 0 0 1 2.111,-2.031 7.36,7.36 0 0 1 0.423,-0.23 q 1.644,-0.827 3.751,-0.827 2.402,0 4.013,0.751 a 5.435,5.435 0 0 1 1.463,0.984 q 1.418,1.348 1.735,3.928 a 13.039,13.039 0 0 1 0.091,1.585 z m -27.609,-19.908 h 6.884 v 1.908 l -3.688,0.436 a 4.9,4.9 0 0 1 0.425,0.631 q 0.259,0.453 0.484,1.031 a 5.801,5.801 0 0 1 0.343,1.385 7.449,7.449 0 0 1 0.056,0.93 6.912,6.912 0 0 1 -0.317,2.143 5.591,5.591 0 0 1 -1.681,2.526 6.687,6.687 0 0 1 -2.631,1.385 q -0.995,0.28 -2.178,0.341 a 13.096,13.096 0 0 1 -0.676,0.017 9.691,9.691 0 0 1 -1.122,-0.062 8.183,8.183 0 0 1 -0.549,-0.083 5.365,5.365 0 0 0 -0.865,0.56 q -0.448,0.361 -0.706,0.773 a 2.269,2.269 0 0 0 -0.355,1.228 q 0,0.818 0.672,1.208 a 2.115,2.115 0 0 0 0.469,0.193 q 0.491,0.144 1.239,0.183 a 11.47,11.47 0 0 0 0.599,0.015 h 3.524 q 3.233,0 4.968,1.362 a 4.411,4.411 0 0 1 1.639,2.81 6.625,6.625 0 0 1 0.095,1.15 6.529,6.529 0 0 1 -0.372,2.258 q -0.622,1.698 -2.28,2.782 a 9.042,9.042 0 0 1 -2.331,1.057 q -1.149,0.35 -2.55,0.519 a 23.899,23.899 0 0 1 -2.856,0.159 16.894,16.894 0 0 1 -2.266,-0.142 q -2.301,-0.312 -3.756,-1.311 a 4.806,4.806 0 0 1 -1.549,-1.681 q -0.496,-0.92 -0.558,-2.086 a 6.367,6.367 0 0 1 -0.009,-0.338 q 0,-1.817 1.163,-3.143 a 5.265,5.265 0 0 1 1.808,-1.317 7.463,7.463 0 0 1 1.461,-0.481 3.129,3.129 0 0 1 -1.215,-0.982 3.715,3.715 0 0 1 -0.065,-0.09 2.795,2.795 0 0 1 -0.514,-1.51 3.462,3.462 0 0 1 -0.004,-0.179 3.448,3.448 0 0 1 0.174,-1.11 3.056,3.056 0 0 1 0.407,-0.797 q 0.439,-0.618 1.262,-1.204 a 9.472,9.472 0 0 1 0.573,-0.376 5.286,5.286 0 0 1 -2.297,-1.839 6.552,6.552 0 0 1 -0.219,-0.323 6.233,6.233 0 0 1 -0.957,-3.004 7.608,7.608 0 0 1 -0.015,-0.483 8.712,8.712 0 0 1 0.229,-2.06 5.732,5.732 0 0 1 1.733,-2.981 6.403,6.403 0 0 1 2.458,-1.355 q 0.976,-0.299 2.151,-0.383 a 13.317,13.317 0 0 1 0.949,-0.033 11.558,11.558 0 0 1 1.529,0.097 8.802,8.802 0 0 1 1.287,0.266 z m 42.958,17.42 v 2.307 a 2.966,2.966 0 0 1 -0.352,0.139 q -0.437,0.145 -1.092,0.251 a 13.069,13.069 0 0 1 -0.853,0.111 q -0.401,0.038 -0.762,0.043 a 7.729,7.729 0 0 1 -0.102,0 7.875,7.875 0 0 1 -2.321,-0.312 q -3.455,-1.066 -3.455,-5.773 v -11.842 h -2.852 v -1.454 l 2.852,-1.253 1.271,-4.25 h 1.744 v 4.613 h 5.776 v 2.344 h -5.776 v 11.715 a 6.072,6.072 0 0 0 0.088,1.067 q 0.104,0.585 0.334,1.048 a 2.925,2.925 0 0 0 0.432,0.646 2.801,2.801 0 0 0 1.722,0.917 4.03,4.03 0 0 0 0.621,0.046 9.902,9.902 0 0 0 1.451,-0.104 9.127,9.127 0 0 0 0.093,-0.014 q 0.745,-0.118 1.181,-0.245 z m -65.5,-17.565 -0.418,2.797 q -1.029,-0.227 -1.856,-0.265 a 7.072,7.072 0 0 0 -0.324,-0.007 5.225,5.225 0 0 0 -3.859,1.667 7.148,7.148 0 0 0 -0.273,0.295 6.886,6.886 0 0 0 -1.661,3.866 9.152,9.152 0 0 0 -0.055,1.02 v 10.68 h -3.016 v -19.908 h 2.489 l 0.345,3.688 h 0.145 a 10.183,10.183 0 0 1 1.139,-1.627 7.778,7.778 0 0 1 1.531,-1.37 6.011,6.011 0 0 1 3.433,-1.054 q 1.326,0 2.38,0.218 z m 6.739,0.145 v 19.908 h -3.015 v -19.908 z m 14.767,19.454 h -3.614 a 6.931,6.931 0 0 0 -1.25,0.106 q -1.178,0.216 -1.947,0.875 -1.145,0.981 -1.145,2.815 a 3.028,3.028 0 0 0 0.2,1.124 q 0.287,0.724 0.985,1.212 a 3.538,3.538 0 0 0 0.178,0.117 4.829,4.829 0 0 0 1.187,0.509 q 1.12,0.324 2.693,0.326 a 15.366,15.366 0 0 0 0.025,0 20.27,20.27 0 0 0 1.979,-0.09 q 2.331,-0.229 3.643,-1.045 a 4.398,4.398 0 0 0 1.02,-0.854 3.296,3.296 0 0 0 0.805,-2.225 4.08,4.08 0 0 0 -0.075,-0.81 q -0.198,-0.978 -0.924,-1.433 -0.761,-0.478 -2.544,-0.591 a 19.186,19.186 0 0 0 -1.216,-0.036 z m -5.649,-10.505 a 3.226,3.226 0 0 0 0.509,0.587 3.897,3.897 0 0 0 1.568,0.852 q 0.597,0.172 1.311,0.21 a 7.764,7.764 0 0 0 0.408,0.01 q 4.414,0 4.414,-4.287 a 6.483,6.483 0 0 0 -0.221,-1.775 q -0.568,-1.991 -2.592,-2.52 a 6.558,6.558 0 0 0 -1.655,-0.191 6.327,6.327 0 0 0 -1.289,0.123 q -1.212,0.252 -1.981,1.021 a 3.619,3.619 0 0 0 -0.875,1.475 q -0.185,0.571 -0.243,1.265 a 7.932,7.932 0 0 0 -0.026,0.657 q 0,1.576 0.672,2.573 z m -12.345,-14.896 a 3.341,3.341 0 0 0 -0.043,0.553 q 0,0.512 0.129,0.893 a 1.557,1.557 0 0 0 0.38,0.623 1.692,1.692 0 0 0 0.612,0.39 1.915,1.915 0 0 0 0.659,0.11 q 0.727,0 1.254,-0.5 a 1.472,1.472 0 0 0 0.287,-0.38 q 0.131,-0.247 0.191,-0.565 a 3.12,3.12 0 0 0 0.048,-0.571 3.449,3.449 0 0 0 -0.014,-0.327 q -0.029,-0.298 -0.111,-0.541 a 1.522,1.522 0 0 0 -0.401,-0.64 1.777,1.777 0 0 0 -1.254,-0.49 q -0.763,0 -1.271,0.481 -0.362,0.342 -0.466,0.964 z"
           id="right_labelLayer"
           stroke="#777777"
           fill="#777777"
           style="font-size:12px;fill:#777777;fill-rule:evenodd;stroke:#777777;stroke-width:0.25mm;stroke-linecap:round"
           vector-effect="non-scaling-stroke" />
      </g>
    </g>
  </g>
</svg>
