<?xml version="1.0" encoding="UTF-8" standalone="no"?>
<!-- Created with Inkscape (http://www.inkscape.org/) -->

<svg
   width="297mm"
   height="420mm"
   viewBox="0 0 297 420"
   version="1.1"
   id="svg170"
   inkscape:version="1.1.2 (b8e25be833, 2022-02-05)"
   sodipodi:docname="top.svg"
   xmlns:inkscape="http://www.inkscape.org/namespaces/inkscape"
   xmlns:sodipodi="http://sodipodi.sourceforge.net/DTD/sodipodi-0.dtd"
   xmlns="http://www.w3.org/2000/svg"
   xmlns:svg="http://www.w3.org/2000/svg">
  <sodipodi:namedview
     id="namedview172"
     pagecolor="#ffffff"
     bordercolor="#666666"
     borderopacity="1.0"
     inkscape:pageshadow="2"
     inkscape:pageopacity="0.0"
     inkscape:pagecheckerboard="0"
     inkscape:document-units="mm"
     showgrid="false"
     inkscape:zoom="0.733172"
     inkscape:cx="351.21363"
     inkscape:cy="417.36455"
     inkscape:window-width="1920"
     inkscape:window-height="1009"
     inkscape:window-x="-8"
     inkscape:window-y="-8"
     inkscape:window-maximized="1"
     inkscape:current-layer="layer1"
     inkscape:snap-bbox="true"
     inkscape:bbox-paths="true"
     inkscape:bbox-nodes="true"
     inkscape:snap-bbox-edge-midpoints="true"
     inkscape:snap-bbox-midpoints="true" />
  <defs
     id="defs167" />
  <g
     inkscape:label="Layer 1"
     inkscape:groupmode="layer"
     id="layer1">
    <path
       d="m 15.12394,15.84568 v 21.563 h -3 v 20.625 h 3 v 20.625 h -3 v 20.625 h 3 v 20.625 h -3 v 20.625 h 3 v 20.625 h -3 v 20.625 h 3 v 20.625 h -3 v 20.625 h 3 v 20.625 h -3 v 20.625 h 3 v 21.562 h 21.563 v 3 h 20.625 v -3 h 20.625 v 3 h 20.625 v -3 h 20.625 v 3 h 20.625 v -3 h 20.625 v 3 h 20.625 v -3 h 20.625 v 3 h 20.625 v -3 h 20.625 v 3 h 20.625 v -3 h 21.562 v -21.562 h 3 v -20.625 h -3 v -20.625 h 3 v -20.625 h -3 v -20.625 h 3 v -20.625 h -3 v -20.625 h 3 v -20.625 h -3 v -20.625 h 3 v -20.625 h -3 v -20.625 h 3 v -20.625 h -3 v -21.563 h -21.562 v -3 h -20.625 v 3 h -20.625 v -3 h -20.625 v 3 h -20.625 v -3 h -20.625 v 3 h -20.625 v -3 h -20.625 v 3 h -20.625 v -3 h -20.625 v 3 h -20.625 v -3 h -20.625 v 3 z"
       id="top_outsideCutPath"
       stroke="#FF0000"
       stroke-width="0.2"
       style="font-size:12px;fill:none;fill-rule:evenodd;stroke:#ff0000;stroke-width:0.2;stroke-linecap:round"
       vector-effect="non-scaling-stroke" />
    <path
       d="m 70.12393,100.84568 v 7.335 h -2 v 12.19 h 2 v 12.19 h -2 v 12.19 h 2 v 12.19 h -2 v 12.19 h 2 v 12.19 h -2 v 12.19 h 2 v 7.335 h 12.955 v 2 h 12.19 v -2 h 12.19 v 2 h 12.19 v -2 h 12.19 v 2 h 12.19 v -2 h 12.19002 v 2 h 12.19 v -2 h 12.19 v 2 h 12.19 v -2 h 12.19 v 2 h 12.19 v -2 h 12.955 v -7.335 h 2 v -12.19 h -2 v -12.19 h 2 v -12.19 h -2 v -12.19 h 2 v -12.19 h -2 v -12.19 h 2 v -12.19 h -2 v -7.335 h -12.955 v -2 h -12.19 v 2 h -12.19 v -2 h -12.19 v 2 h -12.19 v -2 h -12.19 v 2 h -12.19002 v -2 h -12.19 v 2 h -12.19 v -2 h -12.19 v 2 h -12.19 v -2 h -12.19 v 2 z"
       id="top_outsideCutPath-5"
       stroke="#FF0000"
       stroke-width="0.2"
       style="font-size:12px;fill:none;fill-rule:evenodd;stroke:#000000;stroke-width:0.2;stroke-linecap:round;stroke-opacity:1"
       vector-effect="non-scaling-stroke" />
    <rect
       style="fill:none;stroke:#0000ff;stroke-width:0.2;stroke-miterlimit:4;stroke-dasharray:none;stroke-opacity:1"
       id="rect2064"
       width="89.253731"
       height="149.25374"
       x="106.2188"
       y="-224.75081"
       transform="rotate(90)" />
    <rect
       style="fill:none;stroke:#ff0000;stroke-width:0.223;stroke-miterlimit:4;stroke-dasharray:none;stroke-opacity:1"
       id="rect2798"
       width="34.677082"
       height="34.677082"
       x="133.50714"
       y="-167.46246"
       transform="rotate(90)" />
    <rect
       style="fill:none;stroke:#0000ff;stroke-width:0.124086;stroke-miterlimit:4;stroke-dasharray:none;stroke-opacity:1"
       id="rect3428"
       width="31.875914"
       height="19.875914"
       x="82.575996"
       y="108.84062" />
    <rect
       style="fill:none;stroke:#0000ff;stroke-width:0.124086;stroke-miterlimit:4;stroke-dasharray:none;stroke-opacity:1"
       id="rect3428-6"
       width="31.875914"
       height="19.875914"
       x="82.567619"
       y="173.13913" />
    <rect
       style="fill:none;stroke:#0000ff;stroke-width:0.124086;stroke-miterlimit:4;stroke-dasharray:none;stroke-opacity:1"
       id="rect3428-6-8"
       width="31.875914"
       height="19.875914"
       x="185.80432"
       y="173.13913" />
    <rect
       style="fill:none;stroke:#0000ff;stroke-width:0.124086;stroke-miterlimit:4;stroke-dasharray:none;stroke-opacity:1"
       id="rect3428-6-8-8"
       width="31.875914"
       height="19.875914"
       x="185.8127"
       y="108.84062" />
    <rect
       style="fill:none;stroke:#0000ff;stroke-width:0.147573;stroke-miterlimit:4;stroke-dasharray:none;stroke-opacity:1"
       id="rect3884"
       width="6.9525819"
       height="89.306152"
       x="75.470848"
       y="106.1926" />
    <rect
       style="fill:none;stroke:#0000ff;stroke-width:0.147573;stroke-miterlimit:4;stroke-dasharray:none;stroke-opacity:1"
       id="rect3884-7"
       width="6.9525819"
       height="89.306152"
       x="217.82445"
       y="106.1926" />
    <rect
       style="fill:none;stroke:#0000ff;stroke-width:0.100051;stroke-miterlimit:4;stroke-dasharray:none;stroke-opacity:1"
       id="rect3884-5"
       width="135.13666"
       height="2.3954127"
       x="82.563972"
       y="106.33315" />
    <rect
       style="fill:none;stroke:#0000ff;stroke-width:0.100051;stroke-miterlimit:4;stroke-dasharray:none;stroke-opacity:1"
       id="rect3884-5-6"
       width="135.13666"
       height="2.3954127"
       x="82.555611"
       y="193.12711" />
    <rect
       style="fill:none;stroke:#0000ff;stroke-width:0.1;stroke-miterlimit:4;stroke-dasharray:none;stroke-opacity:1"
       id="rect4222"
       width="2.9187083"
       height="19.918709"
       x="82.563942"
       y="108.81923" />
    <rect
       style="fill:none;stroke:#0000ff;stroke-width:0.1;stroke-miterlimit:4;stroke-dasharray:none;stroke-opacity:1"
       id="rect4222-5"
       width="2.9187083"
       height="19.918709"
       x="82.55558"
       y="173.11774" />
    <rect
       style="fill:none;stroke:#0000ff;stroke-width:0.1;stroke-miterlimit:4;stroke-dasharray:none;stroke-opacity:1"
       id="rect4222-5-8"
       width="2.9187083"
       height="19.918709"
       x="214.78195"
       y="108.81923" />
    <rect
       style="fill:none;stroke:#0000ff;stroke-width:0.1;stroke-miterlimit:4;stroke-dasharray:none;stroke-opacity:1"
       id="rect4222-5-8-5"
       width="2.9187083"
       height="19.918709"
       x="214.76155"
       y="173.09634" />
    <ellipse
       style="fill:none;stroke:#0000ff;stroke-width:0.089017;stroke-miterlimit:4;stroke-dasharray:none;stroke-opacity:1"
       id="path4516"
       cx="95.532661"
       cy="118.76923"
       rx="9.955492"
       ry="9.9554911" />
    <ellipse
       style="fill:none;stroke:#0000ff;stroke-width:0.089017;stroke-miterlimit:4;stroke-dasharray:none;stroke-opacity:1"
       id="path4516-7"
       cx="204.73195"
       cy="118.78793"
       rx="9.955492"
       ry="9.9554911" />
    <ellipse
       style="fill:none;stroke:#0000ff;stroke-width:0.089017;stroke-miterlimit:4;stroke-dasharray:none;stroke-opacity:1"
       id="path4516-7-5"
       cx="204.71155"
       cy="183.06506"
       rx="9.955492"
       ry="9.9554911" />
    <ellipse
       style="fill:none;stroke:#0000ff;stroke-width:0.089017;stroke-miterlimit:4;stroke-dasharray:none;stroke-opacity:1"
       id="path4516-5"
       cx="95.524284"
       cy="183.08646"
       rx="9.955492"
       ry="9.9554911" />
    <ellipse
       style="fill:none;stroke:#ff0000;stroke-width:0.133525;stroke-miterlimit:4;stroke-dasharray:none;stroke-opacity:1"
       id="path4516-3"
       cx="95.532661"
       cy="118.76923"
       rx="14.933237"
       ry="14.933236" />
    <ellipse
       style="fill:none;stroke:#ff0000;stroke-width:0.133525;stroke-miterlimit:4;stroke-dasharray:none;stroke-opacity:1"
       id="path4516-3-6"
       cx="204.71155"
       cy="183.06506"
       rx="14.933237"
       ry="14.933236" />
    <ellipse
       style="fill:none;stroke:#ff0000;stroke-width:0.133525;stroke-miterlimit:4;stroke-dasharray:none;stroke-opacity:1"
       id="path4516-3-6-3"
       cx="204.73195"
       cy="118.78793"
       rx="14.933237"
       ry="14.933236" />
    <ellipse
       style="fill:none;stroke:#ff0000;stroke-width:0.133525;stroke-miterlimit:4;stroke-dasharray:none;stroke-opacity:1"
       id="path4516-3-7"
       cx="95.524284"
       cy="183.08646"
       rx="14.933237"
       ry="14.933236" />
  </g>
</svg>
